G04 Layer: BottomSolderMaskLayer*
G04 EasyEDA v6.1.51, Wed, 19 Jun 2019 18:44:14 GMT*
G04 e07e6d747a584c628bb32b84df99dd00,dd6e2cb4672846f4b5eb8f4429f9b141,10*
G04 Gerber Generator version 0.2*
G04 Scale: 100 percent, Rotated: No, Reflected: No *
G04 Dimensions in inches *
G04 leading zeros omitted , absolute positions ,2 integer and 4 decimal *
%FSLAX24Y24*%
%MOIN*%
G90*
G70D02*

%ADD23C,0.118236*%
%ADD25C,0.165480*%

%LPD*%
G54D23*
G01X5500Y17125D03*
G01X6500Y18125D03*
G01X6500Y16125D03*
G01X4500Y16125D03*
G01X4500Y18125D03*
G01X2500Y2375D03*
G01X3500Y3375D03*
G01X3500Y1375D03*
G01X1500Y1375D03*
G01X1500Y3375D03*
G01X11125Y17125D03*
G01X12125Y18125D03*
G01X12125Y16125D03*
G01X10125Y16125D03*
G01X10125Y18125D03*
G01X10125Y2375D03*
G01X11125Y3375D03*
G01X11125Y1375D03*
G01X9125Y1375D03*
G01X9125Y3375D03*
G01X16750Y17125D03*
G01X17750Y18125D03*
G01X17750Y16125D03*
G01X15750Y16125D03*
G01X15750Y18125D03*
G01X17750Y2375D03*
G01X18750Y3375D03*
G01X18750Y1375D03*
G01X16750Y1375D03*
G01X16750Y3375D03*
G01X22375Y17125D03*
G01X23375Y18125D03*
G01X23375Y16125D03*
G01X21375Y16125D03*
G01X21375Y18125D03*
G01X25375Y2375D03*
G01X26375Y3375D03*
G01X26375Y1375D03*
G01X24375Y1375D03*
G01X24375Y3375D03*
G54D25*
G01X1500Y12375D03*
G01X6250Y2375D03*
G01X21625Y2375D03*
G01X26500Y12375D03*

%LPD*%
G36*
G01X27750Y19375D02*
G01X125Y19375D01*
G01X125Y125D01*
G01X27750Y125D01*
G01X27750Y19375D01*
G37*

%LPD*%
G36*
G01X27750Y19375D02*
G01X125Y19375D01*
G01X125Y125D01*
G01X27750Y125D01*
G01X27750Y19375D01*
G37*
M00*
M02*
