;Layer: Drill PTH
;EasyEDA v6.1.51, Wed, 19 Jun 2019 18:44:14 GMT
;e07e6d747a584c628bb32b84df99dd00,dd6e2cb4672846f4b5eb8f4429f9b141,10
;Gerber Generator version 0.2
M48
INCH,LZ,00.0000
;Holesize 1 = 0.061 INCH
T01C0.061
;Holesize 2 = 0.122 INCH
T02C0.122
%
G05
G90
T01
X+005498Y+017125G85X+005501Y+017125
X+006498Y+018125G85X+006501Y+018125
X+006498Y+016125G85X+006501Y+016125
X+004498Y+016125G85X+004501Y+016125
X+004498Y+018125G85X+004501Y+018125
X+002498Y+002375G85X+002501Y+002375
X+003498Y+003375G85X+003501Y+003375
X+003498Y+001375G85X+003501Y+001375
X+001498Y+001375G85X+001501Y+001375
X+001498Y+003375G85X+001501Y+003375
X+011123Y+017125G85X+011126Y+017125
X+012123Y+018125G85X+012126Y+018125
X+012123Y+016125G85X+012126Y+016125
X+010123Y+016125G85X+010126Y+016125
X+010123Y+018125G85X+010126Y+018125
X+010123Y+002375G85X+010126Y+002375
X+011123Y+003375G85X+011126Y+003375
X+011123Y+001375G85X+011126Y+001375
X+009123Y+001375G85X+009126Y+001375
X+009123Y+003375G85X+009126Y+003375
X+016748Y+017125G85X+016751Y+017125
X+017748Y+018125G85X+017751Y+018125
X+017748Y+016125G85X+017751Y+016125
X+015748Y+016125G85X+015751Y+016125
X+015748Y+018125G85X+015751Y+018125
X+017748Y+002375G85X+017751Y+002375
X+018748Y+003375G85X+018751Y+003375
X+018748Y+001375G85X+018751Y+001375
X+016748Y+001375G85X+016751Y+001375
X+016748Y+003375G85X+016751Y+003375
X+022373Y+017125G85X+022376Y+017125
X+023373Y+018125G85X+023376Y+018125
X+023373Y+016125G85X+023376Y+016125
X+021373Y+016125G85X+021376Y+016125
X+021373Y+018125G85X+021376Y+018125
X+025373Y+002375G85X+025376Y+002375
X+026373Y+003375G85X+026376Y+003375
X+026373Y+001375G85X+026376Y+001375
X+024373Y+001375G85X+024376Y+001375
X+024373Y+003375G85X+024376Y+003375
T02
X+001500Y+012375
X+006250Y+002375
X+021625Y+002375
X+026500Y+012375
M30
