G04 Layer: TopPasteMaskLayer*
G04 EasyEDA v6.1.51, Wed, 19 Jun 2019 18:44:14 GMT*
G04 e07e6d747a584c628bb32b84df99dd00,dd6e2cb4672846f4b5eb8f4429f9b141,10*
G04 Gerber Generator version 0.2*
G04 Scale: 100 percent, Rotated: No, Reflected: No *
G04 Dimensions in inches *
G04 leading zeros omitted , absolute positions ,2 integer and 4 decimal *
%FSLAX24Y24*%
%MOIN*%
G90*
G70D02*

%ADD14R,0.047200X0.051200*%
%ADD15R,0.055100X0.070900*%

%LPD*%
G36*
G01X4756Y10480D02*
G01X4756Y10009D01*
G01X4243Y10009D01*
G01X4243Y10480D01*
G01X4756Y10480D01*
G37*
G36*
G01X4756Y9740D02*
G01X4756Y9269D01*
G01X4243Y9269D01*
G01X4243Y9740D01*
G01X4756Y9740D01*
G37*
G36*
G01X4756Y7980D02*
G01X4756Y7509D01*
G01X4243Y7509D01*
G01X4243Y7980D01*
G01X4756Y7980D01*
G37*
G36*
G01X4756Y7240D02*
G01X4756Y6769D01*
G01X4243Y6769D01*
G01X4243Y7240D01*
G01X4756Y7240D01*
G37*
G36*
G01X10381Y10481D02*
G01X10381Y10009D01*
G01X9868Y10009D01*
G01X9868Y10481D01*
G01X10381Y10481D01*
G37*
G36*
G01X10381Y9741D02*
G01X10381Y9269D01*
G01X9868Y9269D01*
G01X9868Y9741D01*
G01X10381Y9741D01*
G37*
G36*
G01X10381Y7981D02*
G01X10381Y7509D01*
G01X9868Y7509D01*
G01X9868Y7981D01*
G01X10381Y7981D01*
G37*
G36*
G01X10381Y7241D02*
G01X10381Y6769D01*
G01X9868Y6769D01*
G01X9868Y7241D01*
G01X10381Y7241D01*
G37*
G36*
G01X16006Y10480D02*
G01X16006Y10009D01*
G01X15493Y10009D01*
G01X15493Y10480D01*
G01X16006Y10480D01*
G37*
G36*
G01X16006Y9740D02*
G01X16006Y9269D01*
G01X15493Y9269D01*
G01X15493Y9740D01*
G01X16006Y9740D01*
G37*
G36*
G01X16006Y7980D02*
G01X16006Y7509D01*
G01X15493Y7509D01*
G01X15493Y7980D01*
G01X16006Y7980D01*
G37*
G36*
G01X16006Y7240D02*
G01X16006Y6769D01*
G01X15493Y6769D01*
G01X15493Y7240D01*
G01X16006Y7240D01*
G37*
G36*
G01X21631Y10480D02*
G01X21631Y10009D01*
G01X21118Y10009D01*
G01X21118Y10480D01*
G01X21631Y10480D01*
G37*
G36*
G01X21631Y9740D02*
G01X21631Y9269D01*
G01X21118Y9269D01*
G01X21118Y9740D01*
G01X21631Y9740D01*
G37*
G36*
G01X21631Y7980D02*
G01X21631Y7509D01*
G01X21118Y7509D01*
G01X21118Y7980D01*
G01X21631Y7980D01*
G37*
G36*
G01X21631Y7240D02*
G01X21631Y6769D01*
G01X21118Y6769D01*
G01X21118Y7240D01*
G01X21631Y7240D01*
G37*
G36*
G01X12731Y12619D02*
G01X12259Y12619D01*
G01X12259Y13131D01*
G01X12731Y13131D01*
G01X12731Y12619D01*
G37*
G36*
G01X11990Y12619D02*
G01X11518Y12619D01*
G01X11518Y13131D01*
G01X11990Y13131D01*
G01X11990Y12619D01*
G37*
G36*
G01X18356Y12619D02*
G01X17884Y12619D01*
G01X17884Y13130D01*
G01X18356Y13130D01*
G01X18356Y12619D01*
G37*
G36*
G01X17615Y12619D02*
G01X17143Y12619D01*
G01X17143Y13130D01*
G01X17615Y13130D01*
G01X17615Y12619D01*
G37*
G36*
G01X18356Y11619D02*
G01X17884Y11619D01*
G01X17884Y12130D01*
G01X18356Y12130D01*
G01X18356Y11619D01*
G37*
G36*
G01X17615Y11619D02*
G01X17143Y11619D01*
G01X17143Y12130D01*
G01X17615Y12130D01*
G01X17615Y11619D01*
G37*
G36*
G01X23981Y12619D02*
G01X23509Y12619D01*
G01X23509Y13130D01*
G01X23981Y13130D01*
G01X23981Y12619D01*
G37*
G36*
G01X23240Y12619D02*
G01X22768Y12619D01*
G01X22768Y13130D01*
G01X23240Y13130D01*
G01X23240Y12619D01*
G37*
G36*
G01X23981Y11619D02*
G01X23509Y11619D01*
G01X23509Y12130D01*
G01X23981Y12130D01*
G01X23981Y11619D01*
G37*
G36*
G01X23240Y11619D02*
G01X22768Y11619D01*
G01X22768Y12130D01*
G01X23240Y12130D01*
G01X23240Y11619D01*
G37*
G36*
G01X7106Y11619D02*
G01X6634Y11619D01*
G01X6634Y12130D01*
G01X7106Y12130D01*
G01X7106Y11619D01*
G37*
G36*
G01X6365Y11619D02*
G01X5893Y11619D01*
G01X5893Y12130D01*
G01X6365Y12130D01*
G01X6365Y11619D01*
G37*
G54D14*
G01X4755Y14625D03*
G01X5494Y14625D03*
G36*
G01X7106Y10119D02*
G01X6634Y10119D01*
G01X6634Y10630D01*
G01X7106Y10630D01*
G01X7106Y10119D01*
G37*
G36*
G01X6365Y10119D02*
G01X5893Y10119D01*
G01X5893Y10630D01*
G01X6365Y10630D01*
G01X6365Y10119D01*
G37*
G36*
G01X7106Y9119D02*
G01X6634Y9119D01*
G01X6634Y9630D01*
G01X7106Y9630D01*
G01X7106Y9119D01*
G37*
G36*
G01X6365Y9119D02*
G01X5893Y9119D01*
G01X5893Y9630D01*
G01X6365Y9630D01*
G01X6365Y9119D01*
G37*
G36*
G01X4756Y12980D02*
G01X4756Y12509D01*
G01X4243Y12509D01*
G01X4243Y12980D01*
G01X4756Y12980D01*
G37*
G36*
G01X4756Y12240D02*
G01X4756Y11769D01*
G01X4243Y11769D01*
G01X4243Y12240D01*
G01X4756Y12240D01*
G37*
G01X21630Y14625D03*
G01X22369Y14625D03*
G36*
G01X10381Y12980D02*
G01X10381Y12509D01*
G01X9868Y12509D01*
G01X9868Y12980D01*
G01X10381Y12980D01*
G37*
G36*
G01X10381Y12240D02*
G01X10381Y11769D01*
G01X9868Y11769D01*
G01X9868Y12240D01*
G01X10381Y12240D01*
G37*
G36*
G01X16006Y12980D02*
G01X16006Y12509D01*
G01X15493Y12509D01*
G01X15493Y12980D01*
G01X16006Y12980D01*
G37*
G36*
G01X16006Y12240D02*
G01X16006Y11769D01*
G01X15493Y11769D01*
G01X15493Y12240D01*
G01X16006Y12240D01*
G37*
G36*
G01X12731Y11619D02*
G01X12259Y11619D01*
G01X12259Y12131D01*
G01X12731Y12131D01*
G01X12731Y11619D01*
G37*
G36*
G01X11990Y11619D02*
G01X11518Y11619D01*
G01X11518Y12131D01*
G01X11990Y12131D01*
G01X11990Y11619D01*
G37*
G36*
G01X23981Y10119D02*
G01X23509Y10119D01*
G01X23509Y10630D01*
G01X23981Y10630D01*
G01X23981Y10119D01*
G37*
G36*
G01X23240Y10119D02*
G01X22768Y10119D01*
G01X22768Y10630D01*
G01X23240Y10630D01*
G01X23240Y10119D01*
G37*
G36*
G01X23981Y9119D02*
G01X23509Y9119D01*
G01X23509Y9630D01*
G01X23981Y9630D01*
G01X23981Y9119D01*
G37*
G36*
G01X23240Y9119D02*
G01X22768Y9119D01*
G01X22768Y9630D01*
G01X23240Y9630D01*
G01X23240Y9119D01*
G37*
G36*
G01X21631Y12980D02*
G01X21631Y12509D01*
G01X21118Y12509D01*
G01X21118Y12980D01*
G01X21631Y12980D01*
G37*
G36*
G01X21631Y12240D02*
G01X21631Y11769D01*
G01X21118Y11769D01*
G01X21118Y12240D01*
G01X21631Y12240D01*
G37*
G36*
G01X23981Y6619D02*
G01X23509Y6619D01*
G01X23509Y7130D01*
G01X23981Y7130D01*
G01X23981Y6619D01*
G37*
G36*
G01X23240Y6619D02*
G01X22768Y6619D01*
G01X22768Y7130D01*
G01X23240Y7130D01*
G01X23240Y6619D01*
G37*
G36*
G01X7106Y6619D02*
G01X6634Y6619D01*
G01X6634Y7130D01*
G01X7106Y7130D01*
G01X7106Y6619D01*
G37*
G36*
G01X6365Y6619D02*
G01X5893Y6619D01*
G01X5893Y7130D01*
G01X6365Y7130D01*
G01X6365Y6619D01*
G37*
G01X10380Y14625D03*
G01X11119Y14625D03*
G36*
G01X12731Y10119D02*
G01X12259Y10119D01*
G01X12259Y10631D01*
G01X12731Y10631D01*
G01X12731Y10119D01*
G37*
G36*
G01X11990Y10119D02*
G01X11518Y10119D01*
G01X11518Y10631D01*
G01X11990Y10631D01*
G01X11990Y10119D01*
G37*
G36*
G01X12731Y9119D02*
G01X12259Y9119D01*
G01X12259Y9631D01*
G01X12731Y9631D01*
G01X12731Y9119D01*
G37*
G36*
G01X11990Y9119D02*
G01X11518Y9119D01*
G01X11518Y9631D01*
G01X11990Y9631D01*
G01X11990Y9119D01*
G37*
G36*
G01X12731Y6619D02*
G01X12259Y6619D01*
G01X12259Y7131D01*
G01X12731Y7131D01*
G01X12731Y6619D01*
G37*
G36*
G01X11990Y6619D02*
G01X11518Y6619D01*
G01X11518Y7131D01*
G01X11990Y7131D01*
G01X11990Y6619D01*
G37*
G01X16005Y14625D03*
G01X16744Y14625D03*
G36*
G01X18356Y10119D02*
G01X17884Y10119D01*
G01X17884Y10630D01*
G01X18356Y10630D01*
G01X18356Y10119D01*
G37*
G36*
G01X17615Y10119D02*
G01X17143Y10119D01*
G01X17143Y10630D01*
G01X17615Y10630D01*
G01X17615Y10119D01*
G37*
G36*
G01X7106Y12619D02*
G01X6634Y12619D01*
G01X6634Y13130D01*
G01X7106Y13130D01*
G01X7106Y12619D01*
G37*
G36*
G01X6365Y12619D02*
G01X5893Y12619D01*
G01X5893Y13130D01*
G01X6365Y13130D01*
G01X6365Y12619D01*
G37*
G36*
G01X18356Y9119D02*
G01X17884Y9119D01*
G01X17884Y9630D01*
G01X18356Y9630D01*
G01X18356Y9119D01*
G37*
G36*
G01X17615Y9119D02*
G01X17143Y9119D01*
G01X17143Y9630D01*
G01X17615Y9630D01*
G01X17615Y9119D01*
G37*
G36*
G01X18356Y6619D02*
G01X17884Y6619D01*
G01X17884Y7130D01*
G01X18356Y7130D01*
G01X18356Y6619D01*
G37*
G36*
G01X17615Y6619D02*
G01X17143Y6619D01*
G01X17143Y7130D01*
G01X17615Y7130D01*
G01X17615Y6619D01*
G37*
G36*
G01X3630Y4770D02*
G01X3079Y4770D01*
G01X3079Y5479D01*
G01X3630Y5479D01*
G01X3630Y4770D01*
G37*
G36*
G01X4670Y4770D02*
G01X4119Y4770D01*
G01X4119Y5479D01*
G01X4670Y5479D01*
G01X4670Y4770D01*
G37*
G36*
G01X10380Y4770D02*
G01X9829Y4770D01*
G01X9829Y5479D01*
G01X10380Y5479D01*
G01X10380Y4770D01*
G37*
G36*
G01X11420Y4770D02*
G01X10869Y4770D01*
G01X10869Y5479D01*
G01X11420Y5479D01*
G01X11420Y4770D01*
G37*
G54D15*
G01X17769Y5125D03*
G01X16730Y5125D03*
G01X23769Y5125D03*
G01X22730Y5125D03*
G36*
G01X7106Y7619D02*
G01X6634Y7619D01*
G01X6634Y8130D01*
G01X7106Y8130D01*
G01X7106Y7619D01*
G37*
G36*
G01X6365Y7619D02*
G01X5893Y7619D01*
G01X5893Y8130D01*
G01X6365Y8130D01*
G01X6365Y7619D01*
G37*
G36*
G01X12731Y7619D02*
G01X12259Y7619D01*
G01X12259Y8130D01*
G01X12731Y8130D01*
G01X12731Y7619D01*
G37*
G36*
G01X11990Y7619D02*
G01X11518Y7619D01*
G01X11518Y8130D01*
G01X11990Y8130D01*
G01X11990Y7619D01*
G37*
G36*
G01X18356Y7619D02*
G01X17884Y7619D01*
G01X17884Y8130D01*
G01X18356Y8130D01*
G01X18356Y7619D01*
G37*
G36*
G01X17615Y7619D02*
G01X17143Y7619D01*
G01X17143Y8130D01*
G01X17615Y8130D01*
G01X17615Y7619D01*
G37*
G36*
G01X23981Y7619D02*
G01X23509Y7619D01*
G01X23509Y8130D01*
G01X23981Y8130D01*
G01X23981Y7619D01*
G37*
G36*
G01X23240Y7619D02*
G01X22768Y7619D01*
G01X22768Y8130D01*
G01X23240Y8130D01*
G01X23240Y7619D01*
G37*
M00*
M02*
