G04 Layer: TopSolderMaskLayer*
G04 EasyEDA v6.1.51, Wed, 19 Jun 2019 18:44:14 GMT*
G04 e07e6d747a584c628bb32b84df99dd00,dd6e2cb4672846f4b5eb8f4429f9b141,10*
G04 Gerber Generator version 0.2*
G04 Scale: 100 percent, Rotated: No, Reflected: No *
G04 Dimensions in inches *
G04 leading zeros omitted , absolute positions ,2 integer and 4 decimal *
%FSLAX24Y24*%
%MOIN*%
G90*
G70D02*

%ADD22R,0.055200X0.059200*%
%ADD23C,0.118236*%
%ADD24R,0.063100X0.078900*%
%ADD25C,0.165480*%

%LPD*%
G36*
G01X4203Y9969D02*
G01X4203Y10521D01*
G01X4796Y10521D01*
G01X4796Y9969D01*
G01X4203Y9969D01*
G37*
G36*
G01X4203Y9228D02*
G01X4203Y9780D01*
G01X4796Y9780D01*
G01X4796Y9228D01*
G01X4203Y9228D01*
G37*
G36*
G01X4203Y7469D02*
G01X4203Y8021D01*
G01X4796Y8021D01*
G01X4796Y7469D01*
G01X4203Y7469D01*
G37*
G36*
G01X4203Y6728D02*
G01X4203Y7280D01*
G01X4796Y7280D01*
G01X4796Y6728D01*
G01X4203Y6728D01*
G37*
G36*
G01X9828Y9969D02*
G01X9828Y10521D01*
G01X10421Y10521D01*
G01X10421Y9969D01*
G01X9828Y9969D01*
G37*
G36*
G01X9828Y9228D02*
G01X9828Y9780D01*
G01X10421Y9780D01*
G01X10421Y9228D01*
G01X9828Y9228D01*
G37*
G36*
G01X9828Y7469D02*
G01X9828Y8021D01*
G01X10421Y8021D01*
G01X10421Y7469D01*
G01X9828Y7469D01*
G37*
G36*
G01X9828Y6728D02*
G01X9828Y7280D01*
G01X10421Y7280D01*
G01X10421Y6728D01*
G01X9828Y6728D01*
G37*
G36*
G01X15453Y9969D02*
G01X15453Y10521D01*
G01X16046Y10521D01*
G01X16046Y9969D01*
G01X15453Y9969D01*
G37*
G36*
G01X15453Y9228D02*
G01X15453Y9780D01*
G01X16046Y9780D01*
G01X16046Y9228D01*
G01X15453Y9228D01*
G37*
G36*
G01X15453Y7469D02*
G01X15453Y8021D01*
G01X16046Y8021D01*
G01X16046Y7469D01*
G01X15453Y7469D01*
G37*
G36*
G01X15453Y6728D02*
G01X15453Y7280D01*
G01X16046Y7280D01*
G01X16046Y6728D01*
G01X15453Y6728D01*
G37*
G36*
G01X21078Y9969D02*
G01X21078Y10521D01*
G01X21671Y10521D01*
G01X21671Y9969D01*
G01X21078Y9969D01*
G37*
G36*
G01X21078Y9228D02*
G01X21078Y9780D01*
G01X21671Y9780D01*
G01X21671Y9228D01*
G01X21078Y9228D01*
G37*
G36*
G01X21078Y7469D02*
G01X21078Y8021D01*
G01X21671Y8021D01*
G01X21671Y7469D01*
G01X21078Y7469D01*
G37*
G36*
G01X21078Y6728D02*
G01X21078Y7280D01*
G01X21671Y7280D01*
G01X21671Y6728D01*
G01X21078Y6728D01*
G37*
G36*
G01X12218Y12578D02*
G01X12218Y13171D01*
G01X12771Y13171D01*
G01X12771Y12578D01*
G01X12218Y12578D01*
G37*
G36*
G01X11478Y12578D02*
G01X11478Y13171D01*
G01X12031Y13171D01*
G01X12031Y12578D01*
G01X11478Y12578D01*
G37*
G36*
G01X17843Y12578D02*
G01X17843Y13171D01*
G01X18396Y13171D01*
G01X18396Y12578D01*
G01X17843Y12578D01*
G37*
G36*
G01X17103Y12578D02*
G01X17103Y13171D01*
G01X17656Y13171D01*
G01X17656Y12578D01*
G01X17103Y12578D01*
G37*
G36*
G01X17843Y11578D02*
G01X17843Y12171D01*
G01X18396Y12171D01*
G01X18396Y11578D01*
G01X17843Y11578D01*
G37*
G36*
G01X17103Y11578D02*
G01X17103Y12171D01*
G01X17656Y12171D01*
G01X17656Y11578D01*
G01X17103Y11578D01*
G37*
G36*
G01X23468Y12578D02*
G01X23468Y13171D01*
G01X24021Y13171D01*
G01X24021Y12578D01*
G01X23468Y12578D01*
G37*
G36*
G01X22728Y12578D02*
G01X22728Y13171D01*
G01X23281Y13171D01*
G01X23281Y12578D01*
G01X22728Y12578D01*
G37*
G36*
G01X23468Y11578D02*
G01X23468Y12171D01*
G01X24021Y12171D01*
G01X24021Y11578D01*
G01X23468Y11578D01*
G37*
G36*
G01X22728Y11578D02*
G01X22728Y12171D01*
G01X23281Y12171D01*
G01X23281Y11578D01*
G01X22728Y11578D01*
G37*
G54D23*
G01X5500Y17125D03*
G01X6500Y18125D03*
G01X6500Y16125D03*
G01X4500Y16125D03*
G01X4500Y18125D03*
G01X2500Y2375D03*
G01X3500Y3375D03*
G01X3500Y1375D03*
G01X1500Y1375D03*
G01X1500Y3375D03*
G36*
G01X6593Y11578D02*
G01X6593Y12171D01*
G01X7146Y12171D01*
G01X7146Y11578D01*
G01X6593Y11578D01*
G37*
G36*
G01X5853Y11578D02*
G01X5853Y12171D01*
G01X6406Y12171D01*
G01X6406Y11578D01*
G01X5853Y11578D01*
G37*
G54D22*
G01X4755Y14625D03*
G01X5494Y14625D03*
G36*
G01X6593Y10078D02*
G01X6593Y10671D01*
G01X7146Y10671D01*
G01X7146Y10078D01*
G01X6593Y10078D01*
G37*
G36*
G01X5853Y10078D02*
G01X5853Y10671D01*
G01X6406Y10671D01*
G01X6406Y10078D01*
G01X5853Y10078D01*
G37*
G36*
G01X6593Y9078D02*
G01X6593Y9671D01*
G01X7146Y9671D01*
G01X7146Y9078D01*
G01X6593Y9078D01*
G37*
G36*
G01X5853Y9078D02*
G01X5853Y9671D01*
G01X6406Y9671D01*
G01X6406Y9078D01*
G01X5853Y9078D01*
G37*
G36*
G01X4203Y12469D02*
G01X4203Y13021D01*
G01X4796Y13021D01*
G01X4796Y12469D01*
G01X4203Y12469D01*
G37*
G36*
G01X4203Y11728D02*
G01X4203Y12280D01*
G01X4796Y12280D01*
G01X4796Y11728D01*
G01X4203Y11728D01*
G37*
G01X21630Y14625D03*
G01X22369Y14625D03*
G36*
G01X9828Y12469D02*
G01X9828Y13021D01*
G01X10421Y13021D01*
G01X10421Y12469D01*
G01X9828Y12469D01*
G37*
G36*
G01X9828Y11728D02*
G01X9828Y12280D01*
G01X10421Y12280D01*
G01X10421Y11728D01*
G01X9828Y11728D01*
G37*
G36*
G01X15453Y12469D02*
G01X15453Y13021D01*
G01X16046Y13021D01*
G01X16046Y12469D01*
G01X15453Y12469D01*
G37*
G36*
G01X15453Y11728D02*
G01X15453Y12280D01*
G01X16046Y12280D01*
G01X16046Y11728D01*
G01X15453Y11728D01*
G37*
G36*
G01X12218Y11578D02*
G01X12218Y12171D01*
G01X12771Y12171D01*
G01X12771Y11578D01*
G01X12218Y11578D01*
G37*
G36*
G01X11478Y11578D02*
G01X11478Y12171D01*
G01X12031Y12171D01*
G01X12031Y11578D01*
G01X11478Y11578D01*
G37*
G36*
G01X23468Y10078D02*
G01X23468Y10671D01*
G01X24021Y10671D01*
G01X24021Y10078D01*
G01X23468Y10078D01*
G37*
G36*
G01X22728Y10078D02*
G01X22728Y10671D01*
G01X23281Y10671D01*
G01X23281Y10078D01*
G01X22728Y10078D01*
G37*
G36*
G01X23468Y9078D02*
G01X23468Y9671D01*
G01X24021Y9671D01*
G01X24021Y9078D01*
G01X23468Y9078D01*
G37*
G36*
G01X22728Y9078D02*
G01X22728Y9671D01*
G01X23281Y9671D01*
G01X23281Y9078D01*
G01X22728Y9078D01*
G37*
G36*
G01X21078Y12469D02*
G01X21078Y13021D01*
G01X21671Y13021D01*
G01X21671Y12469D01*
G01X21078Y12469D01*
G37*
G36*
G01X21078Y11728D02*
G01X21078Y12280D01*
G01X21671Y12280D01*
G01X21671Y11728D01*
G01X21078Y11728D01*
G37*
G36*
G01X23468Y6578D02*
G01X23468Y7171D01*
G01X24021Y7171D01*
G01X24021Y6578D01*
G01X23468Y6578D01*
G37*
G36*
G01X22728Y6578D02*
G01X22728Y7171D01*
G01X23281Y7171D01*
G01X23281Y6578D01*
G01X22728Y6578D01*
G37*
G36*
G01X6593Y6578D02*
G01X6593Y7171D01*
G01X7146Y7171D01*
G01X7146Y6578D01*
G01X6593Y6578D01*
G37*
G36*
G01X5853Y6578D02*
G01X5853Y7171D01*
G01X6406Y7171D01*
G01X6406Y6578D01*
G01X5853Y6578D01*
G37*
G01X10380Y14625D03*
G01X11119Y14625D03*
G36*
G01X12218Y10078D02*
G01X12218Y10671D01*
G01X12771Y10671D01*
G01X12771Y10078D01*
G01X12218Y10078D01*
G37*
G36*
G01X11478Y10078D02*
G01X11478Y10671D01*
G01X12031Y10671D01*
G01X12031Y10078D01*
G01X11478Y10078D01*
G37*
G36*
G01X12218Y9078D02*
G01X12218Y9671D01*
G01X12771Y9671D01*
G01X12771Y9078D01*
G01X12218Y9078D01*
G37*
G36*
G01X11478Y9078D02*
G01X11478Y9671D01*
G01X12031Y9671D01*
G01X12031Y9078D01*
G01X11478Y9078D01*
G37*
G54D23*
G01X11125Y17125D03*
G01X12125Y18125D03*
G01X12125Y16125D03*
G01X10125Y16125D03*
G01X10125Y18125D03*
G01X10125Y2375D03*
G01X11125Y3375D03*
G01X11125Y1375D03*
G01X9125Y1375D03*
G01X9125Y3375D03*
G36*
G01X12218Y6578D02*
G01X12218Y7171D01*
G01X12771Y7171D01*
G01X12771Y6578D01*
G01X12218Y6578D01*
G37*
G36*
G01X11478Y6578D02*
G01X11478Y7171D01*
G01X12031Y7171D01*
G01X12031Y6578D01*
G01X11478Y6578D01*
G37*
G54D22*
G01X16005Y14625D03*
G01X16744Y14625D03*
G36*
G01X17843Y10078D02*
G01X17843Y10671D01*
G01X18396Y10671D01*
G01X18396Y10078D01*
G01X17843Y10078D01*
G37*
G36*
G01X17103Y10078D02*
G01X17103Y10671D01*
G01X17656Y10671D01*
G01X17656Y10078D01*
G01X17103Y10078D01*
G37*
G36*
G01X6593Y12578D02*
G01X6593Y13171D01*
G01X7146Y13171D01*
G01X7146Y12578D01*
G01X6593Y12578D01*
G37*
G36*
G01X5853Y12578D02*
G01X5853Y13171D01*
G01X6406Y13171D01*
G01X6406Y12578D01*
G01X5853Y12578D01*
G37*
G54D23*
G01X16750Y17125D03*
G01X17750Y18125D03*
G01X17750Y16125D03*
G01X15750Y16125D03*
G01X15750Y18125D03*
G01X17750Y2375D03*
G01X18750Y3375D03*
G01X18750Y1375D03*
G01X16750Y1375D03*
G01X16750Y3375D03*
G36*
G01X17843Y9078D02*
G01X17843Y9671D01*
G01X18396Y9671D01*
G01X18396Y9078D01*
G01X17843Y9078D01*
G37*
G36*
G01X17103Y9078D02*
G01X17103Y9671D01*
G01X17656Y9671D01*
G01X17656Y9078D01*
G01X17103Y9078D01*
G37*
G36*
G01X17843Y6578D02*
G01X17843Y7171D01*
G01X18396Y7171D01*
G01X18396Y6578D01*
G01X17843Y6578D01*
G37*
G36*
G01X17103Y6578D02*
G01X17103Y7171D01*
G01X17656Y7171D01*
G01X17656Y6578D01*
G01X17103Y6578D01*
G37*
G01X22375Y17125D03*
G01X23375Y18125D03*
G01X23375Y16125D03*
G01X21375Y16125D03*
G01X21375Y18125D03*
G01X25375Y2375D03*
G01X26375Y3375D03*
G01X26375Y1375D03*
G01X24375Y1375D03*
G01X24375Y3375D03*
G36*
G01X3039Y4730D02*
G01X3039Y5519D01*
G01X3671Y5519D01*
G01X3671Y4730D01*
G01X3039Y4730D01*
G37*
G36*
G01X4080Y4730D02*
G01X4080Y5519D01*
G01X4710Y5519D01*
G01X4710Y4730D01*
G01X4080Y4730D01*
G37*
G36*
G01X9789Y4730D02*
G01X9789Y5519D01*
G01X10421Y5519D01*
G01X10421Y4730D01*
G01X9789Y4730D01*
G37*
G36*
G01X10830Y4730D02*
G01X10830Y5519D01*
G01X11460Y5519D01*
G01X11460Y4730D01*
G01X10830Y4730D01*
G37*
G54D24*
G01X17769Y5125D03*
G01X16730Y5125D03*
G01X23769Y5125D03*
G01X22730Y5125D03*
G36*
G01X6593Y7578D02*
G01X6593Y8171D01*
G01X7146Y8171D01*
G01X7146Y7578D01*
G01X6593Y7578D01*
G37*
G36*
G01X5853Y7578D02*
G01X5853Y8171D01*
G01X6406Y8171D01*
G01X6406Y7578D01*
G01X5853Y7578D01*
G37*
G36*
G01X12218Y7578D02*
G01X12218Y8171D01*
G01X12771Y8171D01*
G01X12771Y7578D01*
G01X12218Y7578D01*
G37*
G36*
G01X11478Y7578D02*
G01X11478Y8171D01*
G01X12031Y8171D01*
G01X12031Y7578D01*
G01X11478Y7578D01*
G37*
G36*
G01X17843Y7578D02*
G01X17843Y8171D01*
G01X18396Y8171D01*
G01X18396Y7578D01*
G01X17843Y7578D01*
G37*
G36*
G01X17103Y7578D02*
G01X17103Y8171D01*
G01X17656Y8171D01*
G01X17656Y7578D01*
G01X17103Y7578D01*
G37*
G36*
G01X23468Y7578D02*
G01X23468Y8171D01*
G01X24021Y8171D01*
G01X24021Y7578D01*
G01X23468Y7578D01*
G37*
G36*
G01X22728Y7578D02*
G01X22728Y8171D01*
G01X23281Y8171D01*
G01X23281Y7578D01*
G01X22728Y7578D01*
G37*
G54D25*
G01X1500Y12375D03*
G01X6250Y2375D03*
G01X21625Y2375D03*
G01X26500Y12375D03*
M00*
M02*
