G04 #@! TF.GenerationSoftware,KiCad,Pcbnew,(5.0.1)-4*
G04 #@! TF.CreationDate,2019-02-03T13:31:45+01:00*
G04 #@! TF.ProjectId,GPSDO-LCD-2,475053444F2D4C43442D322E6B696361,rev?*
G04 #@! TF.SameCoordinates,Original*
G04 #@! TF.FileFunction,Soldermask,Top*
G04 #@! TF.FilePolarity,Negative*
%FSLAX46Y46*%
G04 Gerber Fmt 4.6, Leading zero omitted, Abs format (unit mm)*
G04 Created by KiCad (PCBNEW (5.0.1)-4) date 03/02/2019 13:31:45*
%MOMM*%
%LPD*%
G01*
G04 APERTURE LIST*
%ADD10C,0.100000*%
G04 APERTURE END LIST*
D10*
G36*
X97080565Y-130307389D02*
X97271834Y-130386615D01*
X97443976Y-130501637D01*
X97590363Y-130648024D01*
X97705385Y-130820166D01*
X97784611Y-131011435D01*
X97825000Y-131214484D01*
X97825000Y-131421516D01*
X97784611Y-131624565D01*
X97705385Y-131815834D01*
X97590363Y-131987976D01*
X97443976Y-132134363D01*
X97271834Y-132249385D01*
X97080565Y-132328611D01*
X96877516Y-132369000D01*
X96670484Y-132369000D01*
X96467435Y-132328611D01*
X96276166Y-132249385D01*
X96104024Y-132134363D01*
X95957637Y-131987976D01*
X95842615Y-131815834D01*
X95763389Y-131624565D01*
X95723000Y-131421516D01*
X95723000Y-131214484D01*
X95763389Y-131011435D01*
X95842615Y-130820166D01*
X95957637Y-130648024D01*
X96104024Y-130501637D01*
X96276166Y-130386615D01*
X96467435Y-130307389D01*
X96670484Y-130267000D01*
X96877516Y-130267000D01*
X97080565Y-130307389D01*
X97080565Y-130307389D01*
G37*
G36*
X94540565Y-130307389D02*
X94731834Y-130386615D01*
X94903976Y-130501637D01*
X95050363Y-130648024D01*
X95165385Y-130820166D01*
X95244611Y-131011435D01*
X95285000Y-131214484D01*
X95285000Y-131421516D01*
X95244611Y-131624565D01*
X95165385Y-131815834D01*
X95050363Y-131987976D01*
X94903976Y-132134363D01*
X94731834Y-132249385D01*
X94540565Y-132328611D01*
X94337516Y-132369000D01*
X94130484Y-132369000D01*
X93927435Y-132328611D01*
X93736166Y-132249385D01*
X93564024Y-132134363D01*
X93417637Y-131987976D01*
X93302615Y-131815834D01*
X93223389Y-131624565D01*
X93183000Y-131421516D01*
X93183000Y-131214484D01*
X93223389Y-131011435D01*
X93302615Y-130820166D01*
X93417637Y-130648024D01*
X93564024Y-130501637D01*
X93736166Y-130386615D01*
X93927435Y-130307389D01*
X94130484Y-130267000D01*
X94337516Y-130267000D01*
X94540565Y-130307389D01*
X94540565Y-130307389D01*
G37*
G36*
X200995734Y-129703232D02*
X201205202Y-129789996D01*
X201393723Y-129915962D01*
X201554038Y-130076277D01*
X201680004Y-130264798D01*
X201766768Y-130474266D01*
X201811000Y-130696635D01*
X201811000Y-130923365D01*
X201766768Y-131145734D01*
X201680004Y-131355202D01*
X201554038Y-131543723D01*
X201393723Y-131704038D01*
X201205202Y-131830004D01*
X200995734Y-131916768D01*
X200773365Y-131961000D01*
X200546635Y-131961000D01*
X200324266Y-131916768D01*
X200114798Y-131830004D01*
X199926277Y-131704038D01*
X199765962Y-131543723D01*
X199639996Y-131355202D01*
X199553232Y-131145734D01*
X199509000Y-130923365D01*
X199509000Y-130696635D01*
X199553232Y-130474266D01*
X199639996Y-130264798D01*
X199765962Y-130076277D01*
X199926277Y-129915962D01*
X200114798Y-129789996D01*
X200324266Y-129703232D01*
X200546635Y-129659000D01*
X200773365Y-129659000D01*
X200995734Y-129703232D01*
X200995734Y-129703232D01*
G37*
G36*
X206075734Y-129703232D02*
X206285202Y-129789996D01*
X206473723Y-129915962D01*
X206634038Y-130076277D01*
X206760004Y-130264798D01*
X206846768Y-130474266D01*
X206891000Y-130696635D01*
X206891000Y-130923365D01*
X206846768Y-131145734D01*
X206760004Y-131355202D01*
X206634038Y-131543723D01*
X206473723Y-131704038D01*
X206285202Y-131830004D01*
X206075734Y-131916768D01*
X205853365Y-131961000D01*
X205626635Y-131961000D01*
X205404266Y-131916768D01*
X205194798Y-131830004D01*
X205006277Y-131704038D01*
X204845962Y-131543723D01*
X204719996Y-131355202D01*
X204633232Y-131145734D01*
X204589000Y-130923365D01*
X204589000Y-130696635D01*
X204633232Y-130474266D01*
X204719996Y-130264798D01*
X204845962Y-130076277D01*
X205006277Y-129915962D01*
X205194798Y-129789996D01*
X205404266Y-129703232D01*
X205626635Y-129659000D01*
X205853365Y-129659000D01*
X206075734Y-129703232D01*
X206075734Y-129703232D01*
G37*
G36*
X86125000Y-131607000D02*
X82023000Y-131607000D01*
X82023000Y-129505000D01*
X86125000Y-129505000D01*
X86125000Y-131607000D01*
X86125000Y-131607000D01*
G37*
G36*
X178056007Y-128041436D02*
X178155890Y-128061304D01*
X178438154Y-128178221D01*
X178692185Y-128347959D01*
X178908221Y-128563995D01*
X179077959Y-128818026D01*
X179189107Y-129086363D01*
X179194876Y-129100291D01*
X179254480Y-129399938D01*
X179254480Y-129705462D01*
X179216774Y-129895019D01*
X179194876Y-130005110D01*
X179077959Y-130287374D01*
X178908221Y-130541405D01*
X178692185Y-130757441D01*
X178438154Y-130927179D01*
X178155890Y-131044096D01*
X178056007Y-131063964D01*
X177856242Y-131103700D01*
X177550718Y-131103700D01*
X177350953Y-131063964D01*
X177251070Y-131044096D01*
X176968806Y-130927179D01*
X176714775Y-130757441D01*
X176498739Y-130541405D01*
X176329001Y-130287374D01*
X176212084Y-130005110D01*
X176190186Y-129895019D01*
X176152480Y-129705462D01*
X176152480Y-129399938D01*
X176212084Y-129100291D01*
X176217853Y-129086363D01*
X176329001Y-128818026D01*
X176498739Y-128563995D01*
X176714775Y-128347959D01*
X176968806Y-128178221D01*
X177251070Y-128061304D01*
X177350953Y-128041436D01*
X177550718Y-128001700D01*
X177856242Y-128001700D01*
X178056007Y-128041436D01*
X178056007Y-128041436D01*
G37*
G36*
X103057427Y-128041436D02*
X103157310Y-128061304D01*
X103439574Y-128178221D01*
X103693605Y-128347959D01*
X103909641Y-128563995D01*
X104079379Y-128818026D01*
X104190527Y-129086363D01*
X104196296Y-129100291D01*
X104255900Y-129399938D01*
X104255900Y-129705462D01*
X104218194Y-129895019D01*
X104196296Y-130005110D01*
X104079379Y-130287374D01*
X103909641Y-130541405D01*
X103693605Y-130757441D01*
X103439574Y-130927179D01*
X103157310Y-131044096D01*
X103057427Y-131063964D01*
X102857662Y-131103700D01*
X102552138Y-131103700D01*
X102352373Y-131063964D01*
X102252490Y-131044096D01*
X101970226Y-130927179D01*
X101716195Y-130757441D01*
X101500159Y-130541405D01*
X101330421Y-130287374D01*
X101213504Y-130005110D01*
X101191606Y-129895019D01*
X101153900Y-129705462D01*
X101153900Y-129399938D01*
X101213504Y-129100291D01*
X101219273Y-129086363D01*
X101330421Y-128818026D01*
X101500159Y-128563995D01*
X101716195Y-128347959D01*
X101970226Y-128178221D01*
X102252490Y-128061304D01*
X102352373Y-128041436D01*
X102552138Y-128001700D01*
X102857662Y-128001700D01*
X103057427Y-128041436D01*
X103057427Y-128041436D01*
G37*
G36*
X173696130Y-123722241D02*
X173696132Y-123722242D01*
X173696133Y-123722242D01*
X174342373Y-123989923D01*
X174916135Y-124373299D01*
X174923978Y-124378539D01*
X175418584Y-124873145D01*
X175418586Y-124873148D01*
X175807200Y-125454750D01*
X176074881Y-126100990D01*
X176074882Y-126100993D01*
X176211344Y-126787035D01*
X176211344Y-127486523D01*
X176076092Y-128166484D01*
X176074881Y-128172568D01*
X175807200Y-128818808D01*
X175807199Y-128818809D01*
X175418584Y-129400413D01*
X174923978Y-129895019D01*
X174923975Y-129895021D01*
X174342373Y-130283635D01*
X173696133Y-130551316D01*
X173696132Y-130551316D01*
X173696130Y-130551317D01*
X173010088Y-130687779D01*
X172310600Y-130687779D01*
X171624558Y-130551317D01*
X171624556Y-130551316D01*
X171624555Y-130551316D01*
X170978315Y-130283635D01*
X170396713Y-129895021D01*
X170396710Y-129895019D01*
X169902104Y-129400413D01*
X169513489Y-128818809D01*
X169513488Y-128818808D01*
X169245807Y-128172568D01*
X169244597Y-128166484D01*
X169109344Y-127486523D01*
X169109344Y-126787035D01*
X169245806Y-126100993D01*
X169245807Y-126100990D01*
X169513488Y-125454750D01*
X169902102Y-124873148D01*
X169902104Y-124873145D01*
X170396710Y-124378539D01*
X170404553Y-124373299D01*
X170978315Y-123989923D01*
X171624555Y-123722242D01*
X171624556Y-123722242D01*
X171624558Y-123722241D01*
X172310600Y-123585779D01*
X173010088Y-123585779D01*
X173696130Y-123722241D01*
X173696130Y-123722241D01*
G37*
G36*
X97080565Y-127767389D02*
X97271834Y-127846615D01*
X97443976Y-127961637D01*
X97590363Y-128108024D01*
X97705385Y-128280166D01*
X97784611Y-128471435D01*
X97825000Y-128674484D01*
X97825000Y-128881516D01*
X97784611Y-129084565D01*
X97705385Y-129275834D01*
X97590363Y-129447976D01*
X97443976Y-129594363D01*
X97271834Y-129709385D01*
X97080565Y-129788611D01*
X96877516Y-129829000D01*
X96670484Y-129829000D01*
X96467435Y-129788611D01*
X96276166Y-129709385D01*
X96104024Y-129594363D01*
X95957637Y-129447976D01*
X95842615Y-129275834D01*
X95763389Y-129084565D01*
X95723000Y-128881516D01*
X95723000Y-128674484D01*
X95763389Y-128471435D01*
X95842615Y-128280166D01*
X95957637Y-128108024D01*
X96104024Y-127961637D01*
X96276166Y-127846615D01*
X96467435Y-127767389D01*
X96670484Y-127727000D01*
X96877516Y-127727000D01*
X97080565Y-127767389D01*
X97080565Y-127767389D01*
G37*
G36*
X95285000Y-129829000D02*
X93183000Y-129829000D01*
X93183000Y-127727000D01*
X95285000Y-127727000D01*
X95285000Y-129829000D01*
X95285000Y-129829000D01*
G37*
G36*
X156378000Y-129583000D02*
X155026000Y-129583000D01*
X155026000Y-128481000D01*
X156378000Y-128481000D01*
X156378000Y-129583000D01*
X156378000Y-129583000D01*
G37*
G36*
X203506565Y-127259389D02*
X203697834Y-127338615D01*
X203869976Y-127453637D01*
X204016363Y-127600024D01*
X204131385Y-127772166D01*
X204210611Y-127963435D01*
X204251000Y-128166484D01*
X204251000Y-128373516D01*
X204210611Y-128576565D01*
X204131385Y-128767834D01*
X204016363Y-128939976D01*
X203869976Y-129086363D01*
X203697834Y-129201385D01*
X203506565Y-129280611D01*
X203303516Y-129321000D01*
X203096484Y-129321000D01*
X202893435Y-129280611D01*
X202702166Y-129201385D01*
X202530024Y-129086363D01*
X202383637Y-128939976D01*
X202268615Y-128767834D01*
X202189389Y-128576565D01*
X202149000Y-128373516D01*
X202149000Y-128166484D01*
X202189389Y-127963435D01*
X202268615Y-127772166D01*
X202383637Y-127600024D01*
X202530024Y-127453637D01*
X202702166Y-127338615D01*
X202893435Y-127259389D01*
X203096484Y-127219000D01*
X203303516Y-127219000D01*
X203506565Y-127259389D01*
X203506565Y-127259389D01*
G37*
G36*
X197751000Y-128771000D02*
X195949000Y-128771000D01*
X195949000Y-127769000D01*
X197751000Y-127769000D01*
X197751000Y-128771000D01*
X197751000Y-128771000D01*
G37*
G36*
X193276852Y-125616635D02*
X193421378Y-125645383D01*
X193703642Y-125762300D01*
X193957673Y-125932038D01*
X194173709Y-126148074D01*
X194343447Y-126402105D01*
X194460364Y-126684369D01*
X194519968Y-126984019D01*
X194519968Y-127289539D01*
X194460364Y-127589189D01*
X194343447Y-127871453D01*
X194173709Y-128125484D01*
X193957673Y-128341520D01*
X193703642Y-128511258D01*
X193421378Y-128628175D01*
X193321495Y-128648043D01*
X193121730Y-128687779D01*
X192816206Y-128687779D01*
X192616441Y-128648043D01*
X192516558Y-128628175D01*
X192234294Y-128511258D01*
X191980263Y-128341520D01*
X191764227Y-128125484D01*
X191594489Y-127871453D01*
X191477572Y-127589189D01*
X191417968Y-127289539D01*
X191417968Y-126984019D01*
X191477572Y-126684369D01*
X191594489Y-126402105D01*
X191764227Y-126148074D01*
X191980263Y-125932038D01*
X192234294Y-125762300D01*
X192516558Y-125645383D01*
X192661084Y-125616635D01*
X192816206Y-125585779D01*
X193121730Y-125585779D01*
X193276852Y-125616635D01*
X193276852Y-125616635D01*
G37*
G36*
X183126852Y-125616635D02*
X183271378Y-125645383D01*
X183553642Y-125762300D01*
X183807673Y-125932038D01*
X184023709Y-126148074D01*
X184193447Y-126402105D01*
X184310364Y-126684369D01*
X184369968Y-126984019D01*
X184369968Y-127289539D01*
X184310364Y-127589189D01*
X184193447Y-127871453D01*
X184023709Y-128125484D01*
X183807673Y-128341520D01*
X183553642Y-128511258D01*
X183271378Y-128628175D01*
X183171495Y-128648043D01*
X182971730Y-128687779D01*
X182666206Y-128687779D01*
X182466441Y-128648043D01*
X182366558Y-128628175D01*
X182084294Y-128511258D01*
X181830263Y-128341520D01*
X181614227Y-128125484D01*
X181444489Y-127871453D01*
X181327572Y-127589189D01*
X181267968Y-127289539D01*
X181267968Y-126984019D01*
X181327572Y-126684369D01*
X181444489Y-126402105D01*
X181614227Y-126148074D01*
X181830263Y-125932038D01*
X182084294Y-125762300D01*
X182366558Y-125645383D01*
X182511084Y-125616635D01*
X182666206Y-125585779D01*
X182971730Y-125585779D01*
X183126852Y-125616635D01*
X183126852Y-125616635D01*
G37*
G36*
X152676852Y-125616635D02*
X152821378Y-125645383D01*
X153103642Y-125762300D01*
X153357673Y-125932038D01*
X153573709Y-126148074D01*
X153743447Y-126402105D01*
X153860364Y-126684369D01*
X153919968Y-126984019D01*
X153919968Y-127289539D01*
X153860364Y-127589189D01*
X153743447Y-127871453D01*
X153573709Y-128125484D01*
X153357673Y-128341520D01*
X153103642Y-128511258D01*
X152821378Y-128628175D01*
X152721495Y-128648043D01*
X152521730Y-128687779D01*
X152216206Y-128687779D01*
X152016441Y-128648043D01*
X151916558Y-128628175D01*
X151634294Y-128511258D01*
X151380263Y-128341520D01*
X151164227Y-128125484D01*
X150994489Y-127871453D01*
X150877572Y-127589189D01*
X150817968Y-127289539D01*
X150817968Y-126984019D01*
X150877572Y-126684369D01*
X150994489Y-126402105D01*
X151164227Y-126148074D01*
X151380263Y-125932038D01*
X151634294Y-125762300D01*
X151916558Y-125645383D01*
X152061084Y-125616635D01*
X152216206Y-125585779D01*
X152521730Y-125585779D01*
X152676852Y-125616635D01*
X152676852Y-125616635D01*
G37*
G36*
X81125000Y-128207000D02*
X79023000Y-128207000D01*
X79023000Y-124105000D01*
X81125000Y-124105000D01*
X81125000Y-128207000D01*
X81125000Y-128207000D01*
G37*
G36*
X156378000Y-127583000D02*
X155026000Y-127583000D01*
X155026000Y-126481000D01*
X156378000Y-126481000D01*
X156378000Y-127583000D01*
X156378000Y-127583000D01*
G37*
G36*
X206075734Y-124623232D02*
X206285202Y-124709996D01*
X206473723Y-124835962D01*
X206634038Y-124996277D01*
X206760004Y-125184798D01*
X206846768Y-125394266D01*
X206891000Y-125616635D01*
X206891000Y-125843365D01*
X206846768Y-126065734D01*
X206760004Y-126275202D01*
X206634038Y-126463723D01*
X206473723Y-126624038D01*
X206285202Y-126750004D01*
X206075734Y-126836768D01*
X205853365Y-126881000D01*
X205626635Y-126881000D01*
X205404266Y-126836768D01*
X205194798Y-126750004D01*
X205006277Y-126624038D01*
X204845962Y-126463723D01*
X204719996Y-126275202D01*
X204633232Y-126065734D01*
X204589000Y-125843365D01*
X204589000Y-125616635D01*
X204633232Y-125394266D01*
X204719996Y-125184798D01*
X204845962Y-124996277D01*
X205006277Y-124835962D01*
X205194798Y-124709996D01*
X205404266Y-124623232D01*
X205626635Y-124579000D01*
X205853365Y-124579000D01*
X206075734Y-124623232D01*
X206075734Y-124623232D01*
G37*
G36*
X200995734Y-124623232D02*
X201205202Y-124709996D01*
X201393723Y-124835962D01*
X201554038Y-124996277D01*
X201680004Y-125184798D01*
X201766768Y-125394266D01*
X201811000Y-125616635D01*
X201811000Y-125843365D01*
X201766768Y-126065734D01*
X201680004Y-126275202D01*
X201554038Y-126463723D01*
X201393723Y-126624038D01*
X201205202Y-126750004D01*
X200995734Y-126836768D01*
X200773365Y-126881000D01*
X200546635Y-126881000D01*
X200324266Y-126836768D01*
X200114798Y-126750004D01*
X199926277Y-126624038D01*
X199765962Y-126463723D01*
X199639996Y-126275202D01*
X199553232Y-126065734D01*
X199509000Y-125843365D01*
X199509000Y-125616635D01*
X199553232Y-125394266D01*
X199639996Y-125184798D01*
X199765962Y-124996277D01*
X199926277Y-124835962D01*
X200114798Y-124709996D01*
X200324266Y-124623232D01*
X200546635Y-124579000D01*
X200773365Y-124579000D01*
X200995734Y-124623232D01*
X200995734Y-124623232D01*
G37*
G36*
X197751000Y-125871000D02*
X195949000Y-125871000D01*
X195949000Y-124869000D01*
X197751000Y-124869000D01*
X197751000Y-125871000D01*
X197751000Y-125871000D01*
G37*
G36*
X153351000Y-124108000D02*
X151449000Y-124108000D01*
X151449000Y-121256000D01*
X153351000Y-121256000D01*
X153351000Y-124108000D01*
X153351000Y-124108000D01*
G37*
G36*
X197526000Y-123995000D02*
X196174000Y-123995000D01*
X196174000Y-122893000D01*
X197526000Y-122893000D01*
X197526000Y-123995000D01*
X197526000Y-123995000D01*
G37*
G36*
X86125000Y-123407000D02*
X82023000Y-123407000D01*
X82023000Y-121305000D01*
X86125000Y-121305000D01*
X86125000Y-123407000D01*
X86125000Y-123407000D01*
G37*
G36*
X190175000Y-122263000D02*
X186573000Y-122263000D01*
X186573000Y-120561000D01*
X190175000Y-120561000D01*
X190175000Y-122263000D01*
X190175000Y-122263000D01*
G37*
G36*
X184775000Y-122263000D02*
X181173000Y-122263000D01*
X181173000Y-120561000D01*
X184775000Y-120561000D01*
X184775000Y-122263000D01*
X184775000Y-122263000D01*
G37*
G36*
X193833000Y-122167000D02*
X191231000Y-122167000D01*
X191231000Y-121165000D01*
X193833000Y-121165000D01*
X193833000Y-122167000D01*
X193833000Y-122167000D01*
G37*
G36*
X197526000Y-121995000D02*
X196174000Y-121995000D01*
X196174000Y-120893000D01*
X197526000Y-120893000D01*
X197526000Y-121995000D01*
X197526000Y-121995000D01*
G37*
G36*
X176827000Y-121072000D02*
X175725000Y-121072000D01*
X175725000Y-119720000D01*
X176827000Y-119720000D01*
X176827000Y-121072000D01*
X176827000Y-121072000D01*
G37*
G36*
X174827000Y-121072000D02*
X173725000Y-121072000D01*
X173725000Y-119720000D01*
X174827000Y-119720000D01*
X174827000Y-121072000D01*
X174827000Y-121072000D01*
G37*
G36*
X92726565Y-118481389D02*
X92917834Y-118560615D01*
X93089976Y-118675637D01*
X93236363Y-118822024D01*
X93351385Y-118994166D01*
X93430611Y-119185435D01*
X93471000Y-119388484D01*
X93471000Y-119595516D01*
X93430611Y-119798565D01*
X93351385Y-119989834D01*
X93236363Y-120161976D01*
X93089976Y-120308363D01*
X92917834Y-120423385D01*
X92726565Y-120502611D01*
X92523516Y-120543000D01*
X92316484Y-120543000D01*
X92113435Y-120502611D01*
X91922166Y-120423385D01*
X91750024Y-120308363D01*
X91603637Y-120161976D01*
X91488615Y-119989834D01*
X91409389Y-119798565D01*
X91369000Y-119595516D01*
X91369000Y-119388484D01*
X91409389Y-119185435D01*
X91488615Y-118994166D01*
X91603637Y-118822024D01*
X91750024Y-118675637D01*
X91922166Y-118560615D01*
X92113435Y-118481389D01*
X92316484Y-118441000D01*
X92523516Y-118441000D01*
X92726565Y-118481389D01*
X92726565Y-118481389D01*
G37*
G36*
X197526000Y-119677000D02*
X196174000Y-119677000D01*
X196174000Y-118575000D01*
X197526000Y-118575000D01*
X197526000Y-119677000D01*
X197526000Y-119677000D01*
G37*
G36*
X168169999Y-118071737D02*
X168184534Y-118076147D01*
X168197717Y-118081607D01*
X168221751Y-118086387D01*
X168246255Y-118086387D01*
X168270288Y-118081606D01*
X168292927Y-118072228D01*
X168294765Y-118071000D01*
X169526053Y-118071000D01*
X169538165Y-118077474D01*
X169561614Y-118084587D01*
X169586000Y-118086989D01*
X169610386Y-118084587D01*
X169628564Y-118078083D01*
X169628608Y-118078227D01*
X169650001Y-118071737D01*
X169666140Y-118070148D01*
X170203860Y-118070148D01*
X170222198Y-118071954D01*
X170234450Y-118072556D01*
X170252869Y-118072556D01*
X170275149Y-118074750D01*
X170359236Y-118091476D01*
X170380655Y-118097974D01*
X170459871Y-118130785D01*
X170479607Y-118141335D01*
X170550897Y-118188969D01*
X170568208Y-118203176D01*
X170628824Y-118263792D01*
X170643031Y-118281103D01*
X170690665Y-118352393D01*
X170701215Y-118372129D01*
X170734026Y-118451345D01*
X170740524Y-118472764D01*
X170757250Y-118556851D01*
X170759444Y-118579131D01*
X170759444Y-118597550D01*
X170760046Y-118609802D01*
X170761852Y-118628140D01*
X170761852Y-119115861D01*
X170760046Y-119134198D01*
X170759444Y-119146450D01*
X170759444Y-119164869D01*
X170757250Y-119187149D01*
X170740524Y-119271236D01*
X170734026Y-119292655D01*
X170701215Y-119371871D01*
X170690665Y-119391607D01*
X170643031Y-119462897D01*
X170628824Y-119480208D01*
X170568208Y-119540824D01*
X170550897Y-119555031D01*
X170479607Y-119602665D01*
X170459871Y-119613215D01*
X170380655Y-119646026D01*
X170359236Y-119652524D01*
X170275149Y-119669250D01*
X170252869Y-119671444D01*
X170234450Y-119671444D01*
X170222198Y-119672046D01*
X170203861Y-119673852D01*
X169666140Y-119673852D01*
X169650001Y-119672263D01*
X169635466Y-119667853D01*
X169622283Y-119662393D01*
X169598249Y-119657613D01*
X169573745Y-119657613D01*
X169549712Y-119662394D01*
X169527073Y-119671772D01*
X169525235Y-119673000D01*
X168293947Y-119673000D01*
X168281835Y-119666526D01*
X168258386Y-119659413D01*
X168234000Y-119657011D01*
X168209614Y-119659413D01*
X168191436Y-119665917D01*
X168191392Y-119665773D01*
X168169999Y-119672263D01*
X168153860Y-119673852D01*
X167616139Y-119673852D01*
X167597802Y-119672046D01*
X167585550Y-119671444D01*
X167567131Y-119671444D01*
X167544851Y-119669250D01*
X167460764Y-119652524D01*
X167439345Y-119646026D01*
X167360129Y-119613215D01*
X167340393Y-119602665D01*
X167269103Y-119555031D01*
X167251792Y-119540824D01*
X167191176Y-119480208D01*
X167176969Y-119462897D01*
X167129335Y-119391607D01*
X167118785Y-119371871D01*
X167085974Y-119292655D01*
X167079476Y-119271236D01*
X167062750Y-119187149D01*
X167060556Y-119164869D01*
X167060556Y-119146450D01*
X167059954Y-119134198D01*
X167058148Y-119115861D01*
X167058148Y-118628140D01*
X167059954Y-118609802D01*
X167060556Y-118597550D01*
X167060556Y-118579131D01*
X167062750Y-118556851D01*
X167079476Y-118472764D01*
X167085974Y-118451345D01*
X167118785Y-118372129D01*
X167129335Y-118352393D01*
X167176969Y-118281103D01*
X167191176Y-118263792D01*
X167251792Y-118203176D01*
X167269103Y-118188969D01*
X167340393Y-118141335D01*
X167360129Y-118130785D01*
X167439345Y-118097974D01*
X167460764Y-118091476D01*
X167544851Y-118074750D01*
X167567131Y-118072556D01*
X167585550Y-118072556D01*
X167597802Y-118071954D01*
X167616140Y-118070148D01*
X168153860Y-118070148D01*
X168169999Y-118071737D01*
X168169999Y-118071737D01*
G37*
G36*
X193833000Y-119267000D02*
X191231000Y-119267000D01*
X191231000Y-118265000D01*
X193833000Y-118265000D01*
X193833000Y-119267000D01*
X193833000Y-119267000D01*
G37*
G36*
X153351000Y-118858000D02*
X151449000Y-118858000D01*
X151449000Y-116006000D01*
X153351000Y-116006000D01*
X153351000Y-118858000D01*
X153351000Y-118858000D01*
G37*
G36*
X174687000Y-118436000D02*
X172785000Y-118436000D01*
X172785000Y-115584000D01*
X174687000Y-115584000D01*
X174687000Y-118436000D01*
X174687000Y-118436000D01*
G37*
G36*
X92726565Y-115941389D02*
X92917834Y-116020615D01*
X93089976Y-116135637D01*
X93236363Y-116282024D01*
X93351385Y-116454166D01*
X93430611Y-116645435D01*
X93471000Y-116848484D01*
X93471000Y-117055516D01*
X93430611Y-117258565D01*
X93351385Y-117449834D01*
X93236363Y-117621976D01*
X93089976Y-117768363D01*
X92917834Y-117883385D01*
X92726565Y-117962611D01*
X92523516Y-118003000D01*
X92316484Y-118003000D01*
X92113435Y-117962611D01*
X91922166Y-117883385D01*
X91750024Y-117768363D01*
X91603637Y-117621976D01*
X91488615Y-117449834D01*
X91409389Y-117258565D01*
X91369000Y-117055516D01*
X91369000Y-116848484D01*
X91409389Y-116645435D01*
X91488615Y-116454166D01*
X91603637Y-116282024D01*
X91750024Y-116135637D01*
X91922166Y-116020615D01*
X92113435Y-115941389D01*
X92316484Y-115901000D01*
X92523516Y-115901000D01*
X92726565Y-115941389D01*
X92726565Y-115941389D01*
G37*
G36*
X206075734Y-115479232D02*
X206285202Y-115565996D01*
X206473723Y-115691962D01*
X206634038Y-115852277D01*
X206760004Y-116040798D01*
X206846768Y-116250266D01*
X206891000Y-116472635D01*
X206891000Y-116699365D01*
X206846768Y-116921734D01*
X206760004Y-117131202D01*
X206634038Y-117319723D01*
X206473723Y-117480038D01*
X206285202Y-117606004D01*
X206075734Y-117692768D01*
X205853365Y-117737000D01*
X205626635Y-117737000D01*
X205404266Y-117692768D01*
X205194798Y-117606004D01*
X205006277Y-117480038D01*
X204845962Y-117319723D01*
X204719996Y-117131202D01*
X204633232Y-116921734D01*
X204589000Y-116699365D01*
X204589000Y-116472635D01*
X204633232Y-116250266D01*
X204719996Y-116040798D01*
X204845962Y-115852277D01*
X205006277Y-115691962D01*
X205194798Y-115565996D01*
X205404266Y-115479232D01*
X205626635Y-115435000D01*
X205853365Y-115435000D01*
X206075734Y-115479232D01*
X206075734Y-115479232D01*
G37*
G36*
X200995734Y-115479232D02*
X201205202Y-115565996D01*
X201393723Y-115691962D01*
X201554038Y-115852277D01*
X201680004Y-116040798D01*
X201766768Y-116250266D01*
X201811000Y-116472635D01*
X201811000Y-116699365D01*
X201766768Y-116921734D01*
X201680004Y-117131202D01*
X201554038Y-117319723D01*
X201393723Y-117480038D01*
X201205202Y-117606004D01*
X200995734Y-117692768D01*
X200773365Y-117737000D01*
X200546635Y-117737000D01*
X200324266Y-117692768D01*
X200114798Y-117606004D01*
X199926277Y-117480038D01*
X199765962Y-117319723D01*
X199639996Y-117131202D01*
X199553232Y-116921734D01*
X199509000Y-116699365D01*
X199509000Y-116472635D01*
X199553232Y-116250266D01*
X199639996Y-116040798D01*
X199765962Y-115852277D01*
X199926277Y-115691962D01*
X200114798Y-115565996D01*
X200324266Y-115479232D01*
X200546635Y-115435000D01*
X200773365Y-115435000D01*
X200995734Y-115479232D01*
X200995734Y-115479232D01*
G37*
G36*
X197526000Y-117677000D02*
X196174000Y-117677000D01*
X196174000Y-116575000D01*
X197526000Y-116575000D01*
X197526000Y-117677000D01*
X197526000Y-117677000D01*
G37*
G36*
X190689000Y-117250000D02*
X188787000Y-117250000D01*
X188787000Y-114398000D01*
X190689000Y-114398000D01*
X190689000Y-117250000D01*
X190689000Y-117250000D01*
G37*
G36*
X182143827Y-114558914D02*
X182143829Y-114558915D01*
X182143830Y-114558915D01*
X182380597Y-114656987D01*
X182593684Y-114799367D01*
X182774893Y-114980576D01*
X182774895Y-114980579D01*
X182917273Y-115193663D01*
X183014753Y-115429000D01*
X183015346Y-115430433D01*
X183065342Y-115681779D01*
X183065342Y-115938057D01*
X183015346Y-116189403D01*
X182917273Y-116426173D01*
X182774893Y-116639260D01*
X182593684Y-116820469D01*
X182593681Y-116820471D01*
X182380597Y-116962849D01*
X182143830Y-117060921D01*
X182143829Y-117060921D01*
X182143827Y-117060922D01*
X181892481Y-117110918D01*
X181636203Y-117110918D01*
X181384857Y-117060922D01*
X181384855Y-117060921D01*
X181384854Y-117060921D01*
X181148087Y-116962849D01*
X180935003Y-116820471D01*
X180935000Y-116820469D01*
X180753791Y-116639260D01*
X180611411Y-116426173D01*
X180513338Y-116189403D01*
X180463342Y-115938057D01*
X180463342Y-115681779D01*
X180513338Y-115430433D01*
X180513932Y-115429000D01*
X180611411Y-115193663D01*
X180753789Y-114980579D01*
X180753791Y-114980576D01*
X180935000Y-114799367D01*
X181148087Y-114656987D01*
X181384854Y-114558915D01*
X181384855Y-114558915D01*
X181384857Y-114558914D01*
X181636203Y-114508918D01*
X181892481Y-114508918D01*
X182143827Y-114558914D01*
X182143827Y-114558914D01*
G37*
G36*
X163043827Y-114558914D02*
X163043829Y-114558915D01*
X163043830Y-114558915D01*
X163280597Y-114656987D01*
X163493684Y-114799367D01*
X163674893Y-114980576D01*
X163674895Y-114980579D01*
X163817273Y-115193663D01*
X163914753Y-115429000D01*
X163915346Y-115430433D01*
X163965342Y-115681779D01*
X163965342Y-115938057D01*
X163915346Y-116189403D01*
X163817273Y-116426173D01*
X163674893Y-116639260D01*
X163493684Y-116820469D01*
X163493681Y-116820471D01*
X163280597Y-116962849D01*
X163043830Y-117060921D01*
X163043829Y-117060921D01*
X163043827Y-117060922D01*
X162792481Y-117110918D01*
X162536203Y-117110918D01*
X162284857Y-117060922D01*
X162284855Y-117060921D01*
X162284854Y-117060921D01*
X162048087Y-116962849D01*
X161835003Y-116820471D01*
X161835000Y-116820469D01*
X161653791Y-116639260D01*
X161511411Y-116426173D01*
X161413338Y-116189403D01*
X161363342Y-115938057D01*
X161363342Y-115681779D01*
X161413338Y-115430433D01*
X161413932Y-115429000D01*
X161511411Y-115193663D01*
X161653789Y-114980579D01*
X161653791Y-114980576D01*
X161835000Y-114799367D01*
X162048087Y-114656987D01*
X162284854Y-114558915D01*
X162284855Y-114558915D01*
X162284857Y-114558914D01*
X162536203Y-114508918D01*
X162792481Y-114508918D01*
X163043827Y-114558914D01*
X163043827Y-114558914D01*
G37*
G36*
X170973000Y-116431000D02*
X168371000Y-116431000D01*
X168371000Y-115429000D01*
X170973000Y-115429000D01*
X170973000Y-116431000D01*
X170973000Y-116431000D01*
G37*
G36*
X81182565Y-113979389D02*
X81373834Y-114058615D01*
X81545976Y-114173637D01*
X81692363Y-114320024D01*
X81807385Y-114492166D01*
X81886611Y-114683435D01*
X81927000Y-114886484D01*
X81927000Y-115093516D01*
X81886611Y-115296565D01*
X81807385Y-115487834D01*
X81692363Y-115659976D01*
X81545976Y-115806363D01*
X81373834Y-115921385D01*
X81182565Y-116000611D01*
X80979516Y-116041000D01*
X80772484Y-116041000D01*
X80569435Y-116000611D01*
X80378166Y-115921385D01*
X80206024Y-115806363D01*
X80059637Y-115659976D01*
X79944615Y-115487834D01*
X79865389Y-115296565D01*
X79825000Y-115093516D01*
X79825000Y-114886484D01*
X79865389Y-114683435D01*
X79944615Y-114492166D01*
X80059637Y-114320024D01*
X80206024Y-114173637D01*
X80378166Y-114058615D01*
X80569435Y-113979389D01*
X80772484Y-113939000D01*
X80979516Y-113939000D01*
X81182565Y-113979389D01*
X81182565Y-113979389D01*
G37*
G36*
X87682565Y-113979389D02*
X87873834Y-114058615D01*
X88045976Y-114173637D01*
X88192363Y-114320024D01*
X88307385Y-114492166D01*
X88386611Y-114683435D01*
X88427000Y-114886484D01*
X88427000Y-115093516D01*
X88386611Y-115296565D01*
X88307385Y-115487834D01*
X88192363Y-115659976D01*
X88045976Y-115806363D01*
X87873834Y-115921385D01*
X87682565Y-116000611D01*
X87479516Y-116041000D01*
X87272484Y-116041000D01*
X87069435Y-116000611D01*
X86878166Y-115921385D01*
X86706024Y-115806363D01*
X86559637Y-115659976D01*
X86444615Y-115487834D01*
X86365389Y-115296565D01*
X86325000Y-115093516D01*
X86325000Y-114886484D01*
X86365389Y-114683435D01*
X86444615Y-114492166D01*
X86559637Y-114320024D01*
X86706024Y-114173637D01*
X86878166Y-114058615D01*
X87069435Y-113979389D01*
X87272484Y-113939000D01*
X87479516Y-113939000D01*
X87682565Y-113979389D01*
X87682565Y-113979389D01*
G37*
G36*
X197751000Y-115563000D02*
X195949000Y-115563000D01*
X195949000Y-114561000D01*
X197751000Y-114561000D01*
X197751000Y-115563000D01*
X197751000Y-115563000D01*
G37*
G36*
X92726565Y-113401389D02*
X92917834Y-113480615D01*
X93089976Y-113595637D01*
X93236363Y-113742024D01*
X93351385Y-113914166D01*
X93430611Y-114105435D01*
X93471000Y-114308484D01*
X93471000Y-114515516D01*
X93430611Y-114718565D01*
X93351385Y-114909834D01*
X93236363Y-115081976D01*
X93089976Y-115228363D01*
X92917834Y-115343385D01*
X92726565Y-115422611D01*
X92523516Y-115463000D01*
X92316484Y-115463000D01*
X92113435Y-115422611D01*
X91922166Y-115343385D01*
X91750024Y-115228363D01*
X91603637Y-115081976D01*
X91488615Y-114909834D01*
X91409389Y-114718565D01*
X91369000Y-114515516D01*
X91369000Y-114308484D01*
X91409389Y-114105435D01*
X91488615Y-113914166D01*
X91603637Y-113742024D01*
X91750024Y-113595637D01*
X91922166Y-113480615D01*
X92113435Y-113401389D01*
X92316484Y-113361000D01*
X92523516Y-113361000D01*
X92726565Y-113401389D01*
X92726565Y-113401389D01*
G37*
G36*
X203506565Y-113035389D02*
X203697834Y-113114615D01*
X203869976Y-113229637D01*
X204016363Y-113376024D01*
X204131385Y-113548166D01*
X204210611Y-113739435D01*
X204251000Y-113942484D01*
X204251000Y-114149516D01*
X204210611Y-114352565D01*
X204131385Y-114543834D01*
X204016363Y-114715976D01*
X203869976Y-114862363D01*
X203697834Y-114977385D01*
X203506565Y-115056611D01*
X203303516Y-115097000D01*
X203096484Y-115097000D01*
X202893435Y-115056611D01*
X202702166Y-114977385D01*
X202530024Y-114862363D01*
X202383637Y-114715976D01*
X202268615Y-114543834D01*
X202189389Y-114352565D01*
X202149000Y-114149516D01*
X202149000Y-113942484D01*
X202189389Y-113739435D01*
X202268615Y-113548166D01*
X202383637Y-113376024D01*
X202530024Y-113229637D01*
X202702166Y-113114615D01*
X202893435Y-113035389D01*
X203096484Y-112995000D01*
X203303516Y-112995000D01*
X203506565Y-113035389D01*
X203506565Y-113035389D01*
G37*
G36*
X170973000Y-113531000D02*
X168371000Y-113531000D01*
X168371000Y-112529000D01*
X170973000Y-112529000D01*
X170973000Y-113531000D01*
X170973000Y-113531000D01*
G37*
G36*
X174687000Y-113186000D02*
X172785000Y-113186000D01*
X172785000Y-110334000D01*
X174687000Y-110334000D01*
X174687000Y-113186000D01*
X174687000Y-113186000D01*
G37*
G36*
X108118000Y-113073000D02*
X106766000Y-113073000D01*
X106766000Y-111971000D01*
X108118000Y-111971000D01*
X108118000Y-113073000D01*
X108118000Y-113073000D01*
G37*
G36*
X115738000Y-113073000D02*
X114386000Y-113073000D01*
X114386000Y-111971000D01*
X115738000Y-111971000D01*
X115738000Y-113073000D01*
X115738000Y-113073000D01*
G37*
G36*
X113198000Y-113073000D02*
X111846000Y-113073000D01*
X111846000Y-111971000D01*
X113198000Y-111971000D01*
X113198000Y-113073000D01*
X113198000Y-113073000D01*
G37*
G36*
X110658000Y-113073000D02*
X109306000Y-113073000D01*
X109306000Y-111971000D01*
X110658000Y-111971000D01*
X110658000Y-113073000D01*
X110658000Y-113073000D01*
G37*
G36*
X128438000Y-113057000D02*
X127086000Y-113057000D01*
X127086000Y-111955000D01*
X128438000Y-111955000D01*
X128438000Y-113057000D01*
X128438000Y-113057000D01*
G37*
G36*
X92726565Y-110861389D02*
X92917834Y-110940615D01*
X93089976Y-111055637D01*
X93236363Y-111202024D01*
X93351385Y-111374166D01*
X93430611Y-111565435D01*
X93471000Y-111768484D01*
X93471000Y-111975516D01*
X93430611Y-112178565D01*
X93351385Y-112369834D01*
X93236363Y-112541976D01*
X93089976Y-112688363D01*
X92917834Y-112803385D01*
X92726565Y-112882611D01*
X92523516Y-112923000D01*
X92316484Y-112923000D01*
X92113435Y-112882611D01*
X91922166Y-112803385D01*
X91750024Y-112688363D01*
X91603637Y-112541976D01*
X91488615Y-112369834D01*
X91409389Y-112178565D01*
X91369000Y-111975516D01*
X91369000Y-111768484D01*
X91409389Y-111565435D01*
X91488615Y-111374166D01*
X91603637Y-111202024D01*
X91750024Y-111055637D01*
X91922166Y-110940615D01*
X92113435Y-110861389D01*
X92316484Y-110821000D01*
X92523516Y-110821000D01*
X92726565Y-110861389D01*
X92726565Y-110861389D01*
G37*
G36*
X197751000Y-112663000D02*
X195949000Y-112663000D01*
X195949000Y-111661000D01*
X197751000Y-111661000D01*
X197751000Y-112663000D01*
X197751000Y-112663000D01*
G37*
G36*
X200995734Y-110399232D02*
X201205202Y-110485996D01*
X201393723Y-110611962D01*
X201554038Y-110772277D01*
X201680004Y-110960798D01*
X201766768Y-111170266D01*
X201811000Y-111392635D01*
X201811000Y-111619365D01*
X201766768Y-111841734D01*
X201680004Y-112051202D01*
X201554038Y-112239723D01*
X201393723Y-112400038D01*
X201205202Y-112526004D01*
X200995734Y-112612768D01*
X200773365Y-112657000D01*
X200546635Y-112657000D01*
X200324266Y-112612768D01*
X200114798Y-112526004D01*
X199926277Y-112400038D01*
X199765962Y-112239723D01*
X199639996Y-112051202D01*
X199553232Y-111841734D01*
X199509000Y-111619365D01*
X199509000Y-111392635D01*
X199553232Y-111170266D01*
X199639996Y-110960798D01*
X199765962Y-110772277D01*
X199926277Y-110611962D01*
X200114798Y-110485996D01*
X200324266Y-110399232D01*
X200546635Y-110355000D01*
X200773365Y-110355000D01*
X200995734Y-110399232D01*
X200995734Y-110399232D01*
G37*
G36*
X206075734Y-110399232D02*
X206285202Y-110485996D01*
X206473723Y-110611962D01*
X206634038Y-110772277D01*
X206760004Y-110960798D01*
X206846768Y-111170266D01*
X206891000Y-111392635D01*
X206891000Y-111619365D01*
X206846768Y-111841734D01*
X206760004Y-112051202D01*
X206634038Y-112239723D01*
X206473723Y-112400038D01*
X206285202Y-112526004D01*
X206075734Y-112612768D01*
X205853365Y-112657000D01*
X205626635Y-112657000D01*
X205404266Y-112612768D01*
X205194798Y-112526004D01*
X205006277Y-112400038D01*
X204845962Y-112239723D01*
X204719996Y-112051202D01*
X204633232Y-111841734D01*
X204589000Y-111619365D01*
X204589000Y-111392635D01*
X204633232Y-111170266D01*
X204719996Y-110960798D01*
X204845962Y-110772277D01*
X205006277Y-110611962D01*
X205194798Y-110485996D01*
X205404266Y-110399232D01*
X205626635Y-110355000D01*
X205853365Y-110355000D01*
X206075734Y-110399232D01*
X206075734Y-110399232D01*
G37*
G36*
X193462000Y-112549000D02*
X192110000Y-112549000D01*
X192110000Y-111447000D01*
X193462000Y-111447000D01*
X193462000Y-112549000D01*
X193462000Y-112549000D01*
G37*
G36*
X190689000Y-112000000D02*
X188787000Y-112000000D01*
X188787000Y-109148000D01*
X190689000Y-109148000D01*
X190689000Y-112000000D01*
X190689000Y-112000000D01*
G37*
G36*
X87682565Y-109479389D02*
X87873834Y-109558615D01*
X88045976Y-109673637D01*
X88192363Y-109820024D01*
X88307385Y-109992166D01*
X88386611Y-110183435D01*
X88427000Y-110386484D01*
X88427000Y-110593516D01*
X88386611Y-110796565D01*
X88307385Y-110987834D01*
X88192363Y-111159976D01*
X88045976Y-111306363D01*
X87873834Y-111421385D01*
X87682565Y-111500611D01*
X87479516Y-111541000D01*
X87272484Y-111541000D01*
X87069435Y-111500611D01*
X86878166Y-111421385D01*
X86706024Y-111306363D01*
X86559637Y-111159976D01*
X86444615Y-110987834D01*
X86365389Y-110796565D01*
X86325000Y-110593516D01*
X86325000Y-110386484D01*
X86365389Y-110183435D01*
X86444615Y-109992166D01*
X86559637Y-109820024D01*
X86706024Y-109673637D01*
X86878166Y-109558615D01*
X87069435Y-109479389D01*
X87272484Y-109439000D01*
X87479516Y-109439000D01*
X87682565Y-109479389D01*
X87682565Y-109479389D01*
G37*
G36*
X81182565Y-109479389D02*
X81373834Y-109558615D01*
X81545976Y-109673637D01*
X81692363Y-109820024D01*
X81807385Y-109992166D01*
X81886611Y-110183435D01*
X81927000Y-110386484D01*
X81927000Y-110593516D01*
X81886611Y-110796565D01*
X81807385Y-110987834D01*
X81692363Y-111159976D01*
X81545976Y-111306363D01*
X81373834Y-111421385D01*
X81182565Y-111500611D01*
X80979516Y-111541000D01*
X80772484Y-111541000D01*
X80569435Y-111500611D01*
X80378166Y-111421385D01*
X80206024Y-111306363D01*
X80059637Y-111159976D01*
X79944615Y-110987834D01*
X79865389Y-110796565D01*
X79825000Y-110593516D01*
X79825000Y-110386484D01*
X79865389Y-110183435D01*
X79944615Y-109992166D01*
X80059637Y-109820024D01*
X80206024Y-109673637D01*
X80378166Y-109558615D01*
X80569435Y-109479389D01*
X80772484Y-109439000D01*
X80979516Y-109439000D01*
X81182565Y-109479389D01*
X81182565Y-109479389D01*
G37*
G36*
X108118000Y-111073000D02*
X106766000Y-111073000D01*
X106766000Y-109971000D01*
X108118000Y-109971000D01*
X108118000Y-111073000D01*
X108118000Y-111073000D01*
G37*
G36*
X110658000Y-111073000D02*
X109306000Y-111073000D01*
X109306000Y-109971000D01*
X110658000Y-109971000D01*
X110658000Y-111073000D01*
X110658000Y-111073000D01*
G37*
G36*
X115738000Y-111073000D02*
X114386000Y-111073000D01*
X114386000Y-109971000D01*
X115738000Y-109971000D01*
X115738000Y-111073000D01*
X115738000Y-111073000D01*
G37*
G36*
X113198000Y-111073000D02*
X111846000Y-111073000D01*
X111846000Y-109971000D01*
X113198000Y-109971000D01*
X113198000Y-111073000D01*
X113198000Y-111073000D01*
G37*
G36*
X128438000Y-111057000D02*
X127086000Y-111057000D01*
X127086000Y-109955000D01*
X128438000Y-109955000D01*
X128438000Y-111057000D01*
X128438000Y-111057000D01*
G37*
G36*
X171135000Y-110637000D02*
X169733000Y-110637000D01*
X169733000Y-109835000D01*
X171135000Y-109835000D01*
X171135000Y-110637000D01*
X171135000Y-110637000D01*
G37*
G36*
X193462000Y-110549000D02*
X192110000Y-110549000D01*
X192110000Y-109447000D01*
X193462000Y-109447000D01*
X193462000Y-110549000D01*
X193462000Y-110549000D01*
G37*
G36*
X165014000Y-110533000D02*
X163662000Y-110533000D01*
X163662000Y-109431000D01*
X165014000Y-109431000D01*
X165014000Y-110533000D01*
X165014000Y-110533000D01*
G37*
G36*
X92726565Y-108321389D02*
X92917834Y-108400615D01*
X93089976Y-108515637D01*
X93236363Y-108662024D01*
X93351385Y-108834166D01*
X93430611Y-109025435D01*
X93471000Y-109228484D01*
X93471000Y-109435516D01*
X93430611Y-109638565D01*
X93351385Y-109829834D01*
X93236363Y-110001976D01*
X93089976Y-110148363D01*
X92917834Y-110263385D01*
X92726565Y-110342611D01*
X92523516Y-110383000D01*
X92316484Y-110383000D01*
X92113435Y-110342611D01*
X91922166Y-110263385D01*
X91750024Y-110148363D01*
X91603637Y-110001976D01*
X91488615Y-109829834D01*
X91409389Y-109638565D01*
X91369000Y-109435516D01*
X91369000Y-109228484D01*
X91409389Y-109025435D01*
X91488615Y-108834166D01*
X91603637Y-108662024D01*
X91750024Y-108515637D01*
X91922166Y-108400615D01*
X92113435Y-108321389D01*
X92316484Y-108281000D01*
X92523516Y-108281000D01*
X92726565Y-108321389D01*
X92726565Y-108321389D01*
G37*
G36*
X175049000Y-109388000D02*
X173947000Y-109388000D01*
X173947000Y-108036000D01*
X175049000Y-108036000D01*
X175049000Y-109388000D01*
X175049000Y-109388000D01*
G37*
G36*
X173049000Y-109388000D02*
X171947000Y-109388000D01*
X171947000Y-108036000D01*
X173049000Y-108036000D01*
X173049000Y-109388000D01*
X173049000Y-109388000D01*
G37*
G36*
X200574000Y-109009000D02*
X199222000Y-109009000D01*
X199222000Y-107907000D01*
X200574000Y-107907000D01*
X200574000Y-109009000D01*
X200574000Y-109009000D01*
G37*
G36*
X204101000Y-108959000D02*
X202299000Y-108959000D01*
X202299000Y-107957000D01*
X204101000Y-107957000D01*
X204101000Y-108959000D01*
X204101000Y-108959000D01*
G37*
G36*
X166731000Y-108880000D02*
X165629000Y-108880000D01*
X165629000Y-107528000D01*
X166731000Y-107528000D01*
X166731000Y-108880000D01*
X166731000Y-108880000D01*
G37*
G36*
X168731000Y-108880000D02*
X167629000Y-108880000D01*
X167629000Y-107528000D01*
X168731000Y-107528000D01*
X168731000Y-108880000D01*
X168731000Y-108880000D01*
G37*
G36*
X138159142Y-107168242D02*
X138307102Y-107229530D01*
X138440258Y-107318502D01*
X138553498Y-107431742D01*
X138642470Y-107564898D01*
X138703758Y-107712858D01*
X138735000Y-107869925D01*
X138735000Y-108030075D01*
X138703758Y-108187142D01*
X138642470Y-108335102D01*
X138553498Y-108468258D01*
X138440258Y-108581498D01*
X138307102Y-108670470D01*
X138159142Y-108731758D01*
X138002075Y-108763000D01*
X137841925Y-108763000D01*
X137684858Y-108731758D01*
X137536898Y-108670470D01*
X137403742Y-108581498D01*
X137290502Y-108468258D01*
X137201530Y-108335102D01*
X137140242Y-108187142D01*
X137109000Y-108030075D01*
X137109000Y-107869925D01*
X137140242Y-107712858D01*
X137201530Y-107564898D01*
X137290502Y-107431742D01*
X137403742Y-107318502D01*
X137536898Y-107229530D01*
X137684858Y-107168242D01*
X137841925Y-107137000D01*
X138002075Y-107137000D01*
X138159142Y-107168242D01*
X138159142Y-107168242D01*
G37*
G36*
X135619142Y-107168242D02*
X135767102Y-107229530D01*
X135900258Y-107318502D01*
X136013498Y-107431742D01*
X136102470Y-107564898D01*
X136163758Y-107712858D01*
X136195000Y-107869925D01*
X136195000Y-108030075D01*
X136163758Y-108187142D01*
X136102470Y-108335102D01*
X136013498Y-108468258D01*
X135900258Y-108581498D01*
X135767102Y-108670470D01*
X135619142Y-108731758D01*
X135462075Y-108763000D01*
X135301925Y-108763000D01*
X135144858Y-108731758D01*
X134996898Y-108670470D01*
X134863742Y-108581498D01*
X134750502Y-108468258D01*
X134661530Y-108335102D01*
X134600242Y-108187142D01*
X134569000Y-108030075D01*
X134569000Y-107869925D01*
X134600242Y-107712858D01*
X134661530Y-107564898D01*
X134750502Y-107431742D01*
X134863742Y-107318502D01*
X134996898Y-107229530D01*
X135144858Y-107168242D01*
X135301925Y-107137000D01*
X135462075Y-107137000D01*
X135619142Y-107168242D01*
X135619142Y-107168242D01*
G37*
G36*
X133079142Y-107168242D02*
X133227102Y-107229530D01*
X133360258Y-107318502D01*
X133473498Y-107431742D01*
X133562470Y-107564898D01*
X133623758Y-107712858D01*
X133655000Y-107869925D01*
X133655000Y-108030075D01*
X133623758Y-108187142D01*
X133562470Y-108335102D01*
X133473498Y-108468258D01*
X133360258Y-108581498D01*
X133227102Y-108670470D01*
X133079142Y-108731758D01*
X132922075Y-108763000D01*
X132761925Y-108763000D01*
X132604858Y-108731758D01*
X132456898Y-108670470D01*
X132323742Y-108581498D01*
X132210502Y-108468258D01*
X132121530Y-108335102D01*
X132060242Y-108187142D01*
X132029000Y-108030075D01*
X132029000Y-107869925D01*
X132060242Y-107712858D01*
X132121530Y-107564898D01*
X132210502Y-107431742D01*
X132323742Y-107318502D01*
X132456898Y-107229530D01*
X132604858Y-107168242D01*
X132761925Y-107137000D01*
X132922075Y-107137000D01*
X133079142Y-107168242D01*
X133079142Y-107168242D01*
G37*
G36*
X130539142Y-107168242D02*
X130687102Y-107229530D01*
X130820258Y-107318502D01*
X130933498Y-107431742D01*
X131022470Y-107564898D01*
X131083758Y-107712858D01*
X131115000Y-107869925D01*
X131115000Y-108030075D01*
X131083758Y-108187142D01*
X131022470Y-108335102D01*
X130933498Y-108468258D01*
X130820258Y-108581498D01*
X130687102Y-108670470D01*
X130539142Y-108731758D01*
X130382075Y-108763000D01*
X130221925Y-108763000D01*
X130064858Y-108731758D01*
X129916898Y-108670470D01*
X129783742Y-108581498D01*
X129670502Y-108468258D01*
X129581530Y-108335102D01*
X129520242Y-108187142D01*
X129489000Y-108030075D01*
X129489000Y-107869925D01*
X129520242Y-107712858D01*
X129581530Y-107564898D01*
X129670502Y-107431742D01*
X129783742Y-107318502D01*
X129916898Y-107229530D01*
X130064858Y-107168242D01*
X130221925Y-107137000D01*
X130382075Y-107137000D01*
X130539142Y-107168242D01*
X130539142Y-107168242D01*
G37*
G36*
X127999142Y-107168242D02*
X128147102Y-107229530D01*
X128280258Y-107318502D01*
X128393498Y-107431742D01*
X128482470Y-107564898D01*
X128543758Y-107712858D01*
X128575000Y-107869925D01*
X128575000Y-108030075D01*
X128543758Y-108187142D01*
X128482470Y-108335102D01*
X128393498Y-108468258D01*
X128280258Y-108581498D01*
X128147102Y-108670470D01*
X127999142Y-108731758D01*
X127842075Y-108763000D01*
X127681925Y-108763000D01*
X127524858Y-108731758D01*
X127376898Y-108670470D01*
X127243742Y-108581498D01*
X127130502Y-108468258D01*
X127041530Y-108335102D01*
X126980242Y-108187142D01*
X126949000Y-108030075D01*
X126949000Y-107869925D01*
X126980242Y-107712858D01*
X127041530Y-107564898D01*
X127130502Y-107431742D01*
X127243742Y-107318502D01*
X127376898Y-107229530D01*
X127524858Y-107168242D01*
X127681925Y-107137000D01*
X127842075Y-107137000D01*
X127999142Y-107168242D01*
X127999142Y-107168242D01*
G37*
G36*
X125459142Y-107168242D02*
X125607102Y-107229530D01*
X125740258Y-107318502D01*
X125853498Y-107431742D01*
X125942470Y-107564898D01*
X126003758Y-107712858D01*
X126035000Y-107869925D01*
X126035000Y-108030075D01*
X126003758Y-108187142D01*
X125942470Y-108335102D01*
X125853498Y-108468258D01*
X125740258Y-108581498D01*
X125607102Y-108670470D01*
X125459142Y-108731758D01*
X125302075Y-108763000D01*
X125141925Y-108763000D01*
X124984858Y-108731758D01*
X124836898Y-108670470D01*
X124703742Y-108581498D01*
X124590502Y-108468258D01*
X124501530Y-108335102D01*
X124440242Y-108187142D01*
X124409000Y-108030075D01*
X124409000Y-107869925D01*
X124440242Y-107712858D01*
X124501530Y-107564898D01*
X124590502Y-107431742D01*
X124703742Y-107318502D01*
X124836898Y-107229530D01*
X124984858Y-107168242D01*
X125141925Y-107137000D01*
X125302075Y-107137000D01*
X125459142Y-107168242D01*
X125459142Y-107168242D01*
G37*
G36*
X122919142Y-107168242D02*
X123067102Y-107229530D01*
X123200258Y-107318502D01*
X123313498Y-107431742D01*
X123402470Y-107564898D01*
X123463758Y-107712858D01*
X123495000Y-107869925D01*
X123495000Y-108030075D01*
X123463758Y-108187142D01*
X123402470Y-108335102D01*
X123313498Y-108468258D01*
X123200258Y-108581498D01*
X123067102Y-108670470D01*
X122919142Y-108731758D01*
X122762075Y-108763000D01*
X122601925Y-108763000D01*
X122444858Y-108731758D01*
X122296898Y-108670470D01*
X122163742Y-108581498D01*
X122050502Y-108468258D01*
X121961530Y-108335102D01*
X121900242Y-108187142D01*
X121869000Y-108030075D01*
X121869000Y-107869925D01*
X121900242Y-107712858D01*
X121961530Y-107564898D01*
X122050502Y-107431742D01*
X122163742Y-107318502D01*
X122296898Y-107229530D01*
X122444858Y-107168242D01*
X122601925Y-107137000D01*
X122762075Y-107137000D01*
X122919142Y-107168242D01*
X122919142Y-107168242D01*
G37*
G36*
X120379142Y-107168242D02*
X120527102Y-107229530D01*
X120660258Y-107318502D01*
X120773498Y-107431742D01*
X120862470Y-107564898D01*
X120923758Y-107712858D01*
X120955000Y-107869925D01*
X120955000Y-108030075D01*
X120923758Y-108187142D01*
X120862470Y-108335102D01*
X120773498Y-108468258D01*
X120660258Y-108581498D01*
X120527102Y-108670470D01*
X120379142Y-108731758D01*
X120222075Y-108763000D01*
X120061925Y-108763000D01*
X119904858Y-108731758D01*
X119756898Y-108670470D01*
X119623742Y-108581498D01*
X119510502Y-108468258D01*
X119421530Y-108335102D01*
X119360242Y-108187142D01*
X119329000Y-108030075D01*
X119329000Y-107869925D01*
X119360242Y-107712858D01*
X119421530Y-107564898D01*
X119510502Y-107431742D01*
X119623742Y-107318502D01*
X119756898Y-107229530D01*
X119904858Y-107168242D01*
X120061925Y-107137000D01*
X120222075Y-107137000D01*
X120379142Y-107168242D01*
X120379142Y-107168242D01*
G37*
G36*
X117839142Y-107168242D02*
X117987102Y-107229530D01*
X118120258Y-107318502D01*
X118233498Y-107431742D01*
X118322470Y-107564898D01*
X118383758Y-107712858D01*
X118415000Y-107869925D01*
X118415000Y-108030075D01*
X118383758Y-108187142D01*
X118322470Y-108335102D01*
X118233498Y-108468258D01*
X118120258Y-108581498D01*
X117987102Y-108670470D01*
X117839142Y-108731758D01*
X117682075Y-108763000D01*
X117521925Y-108763000D01*
X117364858Y-108731758D01*
X117216898Y-108670470D01*
X117083742Y-108581498D01*
X116970502Y-108468258D01*
X116881530Y-108335102D01*
X116820242Y-108187142D01*
X116789000Y-108030075D01*
X116789000Y-107869925D01*
X116820242Y-107712858D01*
X116881530Y-107564898D01*
X116970502Y-107431742D01*
X117083742Y-107318502D01*
X117216898Y-107229530D01*
X117364858Y-107168242D01*
X117521925Y-107137000D01*
X117682075Y-107137000D01*
X117839142Y-107168242D01*
X117839142Y-107168242D01*
G37*
G36*
X115299142Y-107168242D02*
X115447102Y-107229530D01*
X115580258Y-107318502D01*
X115693498Y-107431742D01*
X115782470Y-107564898D01*
X115843758Y-107712858D01*
X115875000Y-107869925D01*
X115875000Y-108030075D01*
X115843758Y-108187142D01*
X115782470Y-108335102D01*
X115693498Y-108468258D01*
X115580258Y-108581498D01*
X115447102Y-108670470D01*
X115299142Y-108731758D01*
X115142075Y-108763000D01*
X114981925Y-108763000D01*
X114824858Y-108731758D01*
X114676898Y-108670470D01*
X114543742Y-108581498D01*
X114430502Y-108468258D01*
X114341530Y-108335102D01*
X114280242Y-108187142D01*
X114249000Y-108030075D01*
X114249000Y-107869925D01*
X114280242Y-107712858D01*
X114341530Y-107564898D01*
X114430502Y-107431742D01*
X114543742Y-107318502D01*
X114676898Y-107229530D01*
X114824858Y-107168242D01*
X114981925Y-107137000D01*
X115142075Y-107137000D01*
X115299142Y-107168242D01*
X115299142Y-107168242D01*
G37*
G36*
X140699142Y-107168242D02*
X140847102Y-107229530D01*
X140980258Y-107318502D01*
X141093498Y-107431742D01*
X141182470Y-107564898D01*
X141243758Y-107712858D01*
X141275000Y-107869925D01*
X141275000Y-108030075D01*
X141243758Y-108187142D01*
X141182470Y-108335102D01*
X141093498Y-108468258D01*
X140980258Y-108581498D01*
X140847102Y-108670470D01*
X140699142Y-108731758D01*
X140542075Y-108763000D01*
X140381925Y-108763000D01*
X140224858Y-108731758D01*
X140076898Y-108670470D01*
X139943742Y-108581498D01*
X139830502Y-108468258D01*
X139741530Y-108335102D01*
X139680242Y-108187142D01*
X139649000Y-108030075D01*
X139649000Y-107869925D01*
X139680242Y-107712858D01*
X139741530Y-107564898D01*
X139830502Y-107431742D01*
X139943742Y-107318502D01*
X140076898Y-107229530D01*
X140224858Y-107168242D01*
X140381925Y-107137000D01*
X140542075Y-107137000D01*
X140699142Y-107168242D01*
X140699142Y-107168242D01*
G37*
G36*
X112759142Y-107168242D02*
X112907102Y-107229530D01*
X113040258Y-107318502D01*
X113153498Y-107431742D01*
X113242470Y-107564898D01*
X113303758Y-107712858D01*
X113335000Y-107869925D01*
X113335000Y-108030075D01*
X113303758Y-108187142D01*
X113242470Y-108335102D01*
X113153498Y-108468258D01*
X113040258Y-108581498D01*
X112907102Y-108670470D01*
X112759142Y-108731758D01*
X112602075Y-108763000D01*
X112441925Y-108763000D01*
X112284858Y-108731758D01*
X112136898Y-108670470D01*
X112003742Y-108581498D01*
X111890502Y-108468258D01*
X111801530Y-108335102D01*
X111740242Y-108187142D01*
X111709000Y-108030075D01*
X111709000Y-107869925D01*
X111740242Y-107712858D01*
X111801530Y-107564898D01*
X111890502Y-107431742D01*
X112003742Y-107318502D01*
X112136898Y-107229530D01*
X112284858Y-107168242D01*
X112441925Y-107137000D01*
X112602075Y-107137000D01*
X112759142Y-107168242D01*
X112759142Y-107168242D01*
G37*
G36*
X105139142Y-107168242D02*
X105287102Y-107229530D01*
X105420258Y-107318502D01*
X105533498Y-107431742D01*
X105622470Y-107564898D01*
X105683758Y-107712858D01*
X105715000Y-107869925D01*
X105715000Y-108030075D01*
X105683758Y-108187142D01*
X105622470Y-108335102D01*
X105533498Y-108468258D01*
X105420258Y-108581498D01*
X105287102Y-108670470D01*
X105139142Y-108731758D01*
X104982075Y-108763000D01*
X104821925Y-108763000D01*
X104664858Y-108731758D01*
X104516898Y-108670470D01*
X104383742Y-108581498D01*
X104270502Y-108468258D01*
X104181530Y-108335102D01*
X104120242Y-108187142D01*
X104089000Y-108030075D01*
X104089000Y-107869925D01*
X104120242Y-107712858D01*
X104181530Y-107564898D01*
X104270502Y-107431742D01*
X104383742Y-107318502D01*
X104516898Y-107229530D01*
X104664858Y-107168242D01*
X104821925Y-107137000D01*
X104982075Y-107137000D01*
X105139142Y-107168242D01*
X105139142Y-107168242D01*
G37*
G36*
X110219142Y-107168242D02*
X110367102Y-107229530D01*
X110500258Y-107318502D01*
X110613498Y-107431742D01*
X110702470Y-107564898D01*
X110763758Y-107712858D01*
X110795000Y-107869925D01*
X110795000Y-108030075D01*
X110763758Y-108187142D01*
X110702470Y-108335102D01*
X110613498Y-108468258D01*
X110500258Y-108581498D01*
X110367102Y-108670470D01*
X110219142Y-108731758D01*
X110062075Y-108763000D01*
X109901925Y-108763000D01*
X109744858Y-108731758D01*
X109596898Y-108670470D01*
X109463742Y-108581498D01*
X109350502Y-108468258D01*
X109261530Y-108335102D01*
X109200242Y-108187142D01*
X109169000Y-108030075D01*
X109169000Y-107869925D01*
X109200242Y-107712858D01*
X109261530Y-107564898D01*
X109350502Y-107431742D01*
X109463742Y-107318502D01*
X109596898Y-107229530D01*
X109744858Y-107168242D01*
X109901925Y-107137000D01*
X110062075Y-107137000D01*
X110219142Y-107168242D01*
X110219142Y-107168242D01*
G37*
G36*
X107679142Y-107168242D02*
X107827102Y-107229530D01*
X107960258Y-107318502D01*
X108073498Y-107431742D01*
X108162470Y-107564898D01*
X108223758Y-107712858D01*
X108255000Y-107869925D01*
X108255000Y-108030075D01*
X108223758Y-108187142D01*
X108162470Y-108335102D01*
X108073498Y-108468258D01*
X107960258Y-108581498D01*
X107827102Y-108670470D01*
X107679142Y-108731758D01*
X107522075Y-108763000D01*
X107361925Y-108763000D01*
X107204858Y-108731758D01*
X107056898Y-108670470D01*
X106923742Y-108581498D01*
X106810502Y-108468258D01*
X106721530Y-108335102D01*
X106660242Y-108187142D01*
X106629000Y-108030075D01*
X106629000Y-107869925D01*
X106660242Y-107712858D01*
X106721530Y-107564898D01*
X106810502Y-107431742D01*
X106923742Y-107318502D01*
X107056898Y-107229530D01*
X107204858Y-107168242D01*
X107361925Y-107137000D01*
X107522075Y-107137000D01*
X107679142Y-107168242D01*
X107679142Y-107168242D01*
G37*
G36*
X102599142Y-107168242D02*
X102747102Y-107229530D01*
X102880258Y-107318502D01*
X102993498Y-107431742D01*
X103082470Y-107564898D01*
X103143758Y-107712858D01*
X103175000Y-107869925D01*
X103175000Y-108030075D01*
X103143758Y-108187142D01*
X103082470Y-108335102D01*
X102993498Y-108468258D01*
X102880258Y-108581498D01*
X102747102Y-108670470D01*
X102599142Y-108731758D01*
X102442075Y-108763000D01*
X102281925Y-108763000D01*
X102124858Y-108731758D01*
X101976898Y-108670470D01*
X101843742Y-108581498D01*
X101730502Y-108468258D01*
X101641530Y-108335102D01*
X101580242Y-108187142D01*
X101549000Y-108030075D01*
X101549000Y-107869925D01*
X101580242Y-107712858D01*
X101641530Y-107564898D01*
X101730502Y-107431742D01*
X101843742Y-107318502D01*
X101976898Y-107229530D01*
X102124858Y-107168242D01*
X102281925Y-107137000D01*
X102442075Y-107137000D01*
X102599142Y-107168242D01*
X102599142Y-107168242D01*
G37*
G36*
X100059142Y-107168242D02*
X100207102Y-107229530D01*
X100340258Y-107318502D01*
X100453498Y-107431742D01*
X100542470Y-107564898D01*
X100603758Y-107712858D01*
X100635000Y-107869925D01*
X100635000Y-108030075D01*
X100603758Y-108187142D01*
X100542470Y-108335102D01*
X100453498Y-108468258D01*
X100340258Y-108581498D01*
X100207102Y-108670470D01*
X100059142Y-108731758D01*
X99902075Y-108763000D01*
X99741925Y-108763000D01*
X99584858Y-108731758D01*
X99436898Y-108670470D01*
X99303742Y-108581498D01*
X99190502Y-108468258D01*
X99101530Y-108335102D01*
X99040242Y-108187142D01*
X99009000Y-108030075D01*
X99009000Y-107869925D01*
X99040242Y-107712858D01*
X99101530Y-107564898D01*
X99190502Y-107431742D01*
X99303742Y-107318502D01*
X99436898Y-107229530D01*
X99584858Y-107168242D01*
X99741925Y-107137000D01*
X99902075Y-107137000D01*
X100059142Y-107168242D01*
X100059142Y-107168242D01*
G37*
G36*
X97519142Y-107168242D02*
X97667102Y-107229530D01*
X97800258Y-107318502D01*
X97913498Y-107431742D01*
X98002470Y-107564898D01*
X98063758Y-107712858D01*
X98095000Y-107869925D01*
X98095000Y-108030075D01*
X98063758Y-108187142D01*
X98002470Y-108335102D01*
X97913498Y-108468258D01*
X97800258Y-108581498D01*
X97667102Y-108670470D01*
X97519142Y-108731758D01*
X97362075Y-108763000D01*
X97201925Y-108763000D01*
X97044858Y-108731758D01*
X96896898Y-108670470D01*
X96763742Y-108581498D01*
X96650502Y-108468258D01*
X96561530Y-108335102D01*
X96500242Y-108187142D01*
X96469000Y-108030075D01*
X96469000Y-107869925D01*
X96500242Y-107712858D01*
X96561530Y-107564898D01*
X96650502Y-107431742D01*
X96763742Y-107318502D01*
X96896898Y-107229530D01*
X97044858Y-107168242D01*
X97201925Y-107137000D01*
X97362075Y-107137000D01*
X97519142Y-107168242D01*
X97519142Y-107168242D01*
G37*
G36*
X94979142Y-107168242D02*
X95127102Y-107229530D01*
X95260258Y-107318502D01*
X95373498Y-107431742D01*
X95462470Y-107564898D01*
X95523758Y-107712858D01*
X95555000Y-107869925D01*
X95555000Y-108030075D01*
X95523758Y-108187142D01*
X95462470Y-108335102D01*
X95373498Y-108468258D01*
X95260258Y-108581498D01*
X95127102Y-108670470D01*
X94979142Y-108731758D01*
X94822075Y-108763000D01*
X94661925Y-108763000D01*
X94504858Y-108731758D01*
X94356898Y-108670470D01*
X94223742Y-108581498D01*
X94110502Y-108468258D01*
X94021530Y-108335102D01*
X93960242Y-108187142D01*
X93929000Y-108030075D01*
X93929000Y-107869925D01*
X93960242Y-107712858D01*
X94021530Y-107564898D01*
X94110502Y-107431742D01*
X94223742Y-107318502D01*
X94356898Y-107229530D01*
X94504858Y-107168242D01*
X94661925Y-107137000D01*
X94822075Y-107137000D01*
X94979142Y-107168242D01*
X94979142Y-107168242D01*
G37*
G36*
X143239142Y-107168242D02*
X143387102Y-107229530D01*
X143520258Y-107318502D01*
X143633498Y-107431742D01*
X143722470Y-107564898D01*
X143783758Y-107712858D01*
X143815000Y-107869925D01*
X143815000Y-108030075D01*
X143783758Y-108187142D01*
X143722470Y-108335102D01*
X143633498Y-108468258D01*
X143520258Y-108581498D01*
X143387102Y-108670470D01*
X143239142Y-108731758D01*
X143082075Y-108763000D01*
X142921925Y-108763000D01*
X142764858Y-108731758D01*
X142616898Y-108670470D01*
X142483742Y-108581498D01*
X142370502Y-108468258D01*
X142281530Y-108335102D01*
X142220242Y-108187142D01*
X142189000Y-108030075D01*
X142189000Y-107869925D01*
X142220242Y-107712858D01*
X142281530Y-107564898D01*
X142370502Y-107431742D01*
X142483742Y-107318502D01*
X142616898Y-107229530D01*
X142764858Y-107168242D01*
X142921925Y-107137000D01*
X143082075Y-107137000D01*
X143239142Y-107168242D01*
X143239142Y-107168242D01*
G37*
G36*
X171135000Y-108737000D02*
X169733000Y-108737000D01*
X169733000Y-107935000D01*
X171135000Y-107935000D01*
X171135000Y-108737000D01*
X171135000Y-108737000D01*
G37*
G36*
X165014000Y-108533000D02*
X163662000Y-108533000D01*
X163662000Y-107431000D01*
X165014000Y-107431000D01*
X165014000Y-108533000D01*
X165014000Y-108533000D01*
G37*
G36*
X195440500Y-108001000D02*
X194195500Y-108001000D01*
X194195500Y-107391000D01*
X195440500Y-107391000D01*
X195440500Y-108001000D01*
X195440500Y-108001000D01*
G37*
G36*
X189090500Y-108001000D02*
X187845500Y-108001000D01*
X187845500Y-107391000D01*
X189090500Y-107391000D01*
X189090500Y-108001000D01*
X189090500Y-108001000D01*
G37*
G36*
X186837000Y-107889000D02*
X186035000Y-107889000D01*
X186035000Y-106487000D01*
X186837000Y-106487000D01*
X186837000Y-107889000D01*
X186837000Y-107889000D01*
G37*
G36*
X184937000Y-107889000D02*
X184135000Y-107889000D01*
X184135000Y-106487000D01*
X184937000Y-106487000D01*
X184937000Y-107889000D01*
X184937000Y-107889000D01*
G37*
G36*
X182093827Y-105033914D02*
X182093829Y-105033915D01*
X182093830Y-105033915D01*
X182149562Y-105057000D01*
X182330597Y-105131987D01*
X182543684Y-105274367D01*
X182724893Y-105455576D01*
X182867273Y-105668663D01*
X182965346Y-105905433D01*
X183015342Y-106156779D01*
X183015342Y-106413057D01*
X182965346Y-106664403D01*
X182867273Y-106901173D01*
X182724893Y-107114260D01*
X182543684Y-107295469D01*
X182543681Y-107295471D01*
X182330597Y-107437849D01*
X182093830Y-107535921D01*
X182093829Y-107535921D01*
X182093827Y-107535922D01*
X181842481Y-107585918D01*
X181586203Y-107585918D01*
X181334857Y-107535922D01*
X181334855Y-107535921D01*
X181334854Y-107535921D01*
X181098087Y-107437849D01*
X180885003Y-107295471D01*
X180885000Y-107295469D01*
X180703791Y-107114260D01*
X180561411Y-106901173D01*
X180463338Y-106664403D01*
X180413342Y-106413057D01*
X180413342Y-106156779D01*
X180463338Y-105905433D01*
X180561411Y-105668663D01*
X180703791Y-105455576D01*
X180885000Y-105274367D01*
X181098087Y-105131987D01*
X181279122Y-105057000D01*
X181334854Y-105033915D01*
X181334855Y-105033915D01*
X181334857Y-105033914D01*
X181586203Y-104983918D01*
X181842481Y-104983918D01*
X182093827Y-105033914D01*
X182093827Y-105033914D01*
G37*
G36*
X172710000Y-107175000D02*
X171958000Y-107175000D01*
X171958000Y-106013000D01*
X172710000Y-106013000D01*
X172710000Y-107175000D01*
X172710000Y-107175000D01*
G37*
G36*
X170810000Y-107175000D02*
X170058000Y-107175000D01*
X170058000Y-106013000D01*
X170810000Y-106013000D01*
X170810000Y-107175000D01*
X170810000Y-107175000D01*
G37*
G36*
X200574000Y-107009000D02*
X199222000Y-107009000D01*
X199222000Y-105907000D01*
X200574000Y-105907000D01*
X200574000Y-107009000D01*
X200574000Y-107009000D01*
G37*
G36*
X195440500Y-106731000D02*
X194195500Y-106731000D01*
X194195500Y-106121000D01*
X195440500Y-106121000D01*
X195440500Y-106731000D01*
X195440500Y-106731000D01*
G37*
G36*
X189090500Y-106731000D02*
X187845500Y-106731000D01*
X187845500Y-106121000D01*
X189090500Y-106121000D01*
X189090500Y-106731000D01*
X189090500Y-106731000D01*
G37*
G36*
X160839000Y-106619000D02*
X160037000Y-106619000D01*
X160037000Y-105217000D01*
X160839000Y-105217000D01*
X160839000Y-106619000D01*
X160839000Y-106619000D01*
G37*
G36*
X162739000Y-106619000D02*
X161937000Y-106619000D01*
X161937000Y-105217000D01*
X162739000Y-105217000D01*
X162739000Y-106619000D01*
X162739000Y-106619000D01*
G37*
G36*
X164649000Y-106619000D02*
X163847000Y-106619000D01*
X163847000Y-105217000D01*
X164649000Y-105217000D01*
X164649000Y-106619000D01*
X164649000Y-106619000D01*
G37*
G36*
X166549000Y-106619000D02*
X165747000Y-106619000D01*
X165747000Y-105217000D01*
X166549000Y-105217000D01*
X166549000Y-106619000D01*
X166549000Y-106619000D01*
G37*
G36*
X99341000Y-106340000D02*
X98239000Y-106340000D01*
X98239000Y-104988000D01*
X99341000Y-104988000D01*
X99341000Y-106340000D01*
X99341000Y-106340000D01*
G37*
G36*
X97341000Y-106340000D02*
X96239000Y-106340000D01*
X96239000Y-104988000D01*
X97341000Y-104988000D01*
X97341000Y-106340000D01*
X97341000Y-106340000D01*
G37*
G36*
X101539000Y-106253000D02*
X100137000Y-106253000D01*
X100137000Y-105451000D01*
X101539000Y-105451000D01*
X101539000Y-106253000D01*
X101539000Y-106253000D01*
G37*
G36*
X204101000Y-106059000D02*
X202299000Y-106059000D01*
X202299000Y-105057000D01*
X204101000Y-105057000D01*
X204101000Y-106059000D01*
X204101000Y-106059000D01*
G37*
G36*
X168881000Y-105811000D02*
X167479000Y-105811000D01*
X167479000Y-105009000D01*
X168881000Y-105009000D01*
X168881000Y-105811000D01*
X168881000Y-105811000D01*
G37*
G36*
X195440500Y-105461000D02*
X194195500Y-105461000D01*
X194195500Y-104851000D01*
X195440500Y-104851000D01*
X195440500Y-105461000D01*
X195440500Y-105461000D01*
G37*
G36*
X189090500Y-105461000D02*
X187845500Y-105461000D01*
X187845500Y-104851000D01*
X189090500Y-104851000D01*
X189090500Y-105461000D01*
X189090500Y-105461000D01*
G37*
G36*
X186955000Y-105324000D02*
X185853000Y-105324000D01*
X185853000Y-103972000D01*
X186955000Y-103972000D01*
X186955000Y-105324000D01*
X186955000Y-105324000D01*
G37*
G36*
X184955000Y-105324000D02*
X183853000Y-105324000D01*
X183853000Y-103972000D01*
X184955000Y-103972000D01*
X184955000Y-105324000D01*
X184955000Y-105324000D01*
G37*
G36*
X172710000Y-104975000D02*
X170058000Y-104975000D01*
X170058000Y-103813000D01*
X172710000Y-103813000D01*
X172710000Y-104975000D01*
X172710000Y-104975000D01*
G37*
G36*
X101539000Y-104353000D02*
X100137000Y-104353000D01*
X100137000Y-103551000D01*
X101539000Y-103551000D01*
X101539000Y-104353000D01*
X101539000Y-104353000D01*
G37*
G36*
X162739000Y-104333000D02*
X161937000Y-104333000D01*
X161937000Y-102931000D01*
X162739000Y-102931000D01*
X162739000Y-104333000D01*
X162739000Y-104333000D01*
G37*
G36*
X97241000Y-104333000D02*
X96439000Y-104333000D01*
X96439000Y-102931000D01*
X97241000Y-102931000D01*
X97241000Y-104333000D01*
X97241000Y-104333000D01*
G37*
G36*
X99141000Y-104333000D02*
X98339000Y-104333000D01*
X98339000Y-102931000D01*
X99141000Y-102931000D01*
X99141000Y-104333000D01*
X99141000Y-104333000D01*
G37*
G36*
X160839000Y-104333000D02*
X160037000Y-104333000D01*
X160037000Y-102931000D01*
X160839000Y-102931000D01*
X160839000Y-104333000D01*
X160839000Y-104333000D01*
G37*
G36*
X164699000Y-104308000D02*
X163597000Y-104308000D01*
X163597000Y-102956000D01*
X164699000Y-102956000D01*
X164699000Y-104308000D01*
X164699000Y-104308000D01*
G37*
G36*
X166699000Y-104308000D02*
X165597000Y-104308000D01*
X165597000Y-102956000D01*
X166699000Y-102956000D01*
X166699000Y-104308000D01*
X166699000Y-104308000D01*
G37*
G36*
X189090500Y-104191000D02*
X187845500Y-104191000D01*
X187845500Y-103581000D01*
X189090500Y-103581000D01*
X189090500Y-104191000D01*
X189090500Y-104191000D01*
G37*
G36*
X195440500Y-104191000D02*
X194195500Y-104191000D01*
X194195500Y-103581000D01*
X195440500Y-103581000D01*
X195440500Y-104191000D01*
X195440500Y-104191000D01*
G37*
G36*
X168881000Y-103911000D02*
X167479000Y-103911000D01*
X167479000Y-103109000D01*
X168881000Y-103109000D01*
X168881000Y-103911000D01*
X168881000Y-103911000D01*
G37*
G36*
X206075734Y-101255232D02*
X206285202Y-101341996D01*
X206473723Y-101467962D01*
X206634038Y-101628277D01*
X206760004Y-101816798D01*
X206846768Y-102026266D01*
X206891000Y-102248635D01*
X206891000Y-102475365D01*
X206846768Y-102697734D01*
X206760004Y-102907202D01*
X206634038Y-103095723D01*
X206473723Y-103256038D01*
X206285202Y-103382004D01*
X206075734Y-103468768D01*
X205853365Y-103513000D01*
X205626635Y-103513000D01*
X205404266Y-103468768D01*
X205194798Y-103382004D01*
X205006277Y-103256038D01*
X204845962Y-103095723D01*
X204719996Y-102907202D01*
X204633232Y-102697734D01*
X204589000Y-102475365D01*
X204589000Y-102248635D01*
X204633232Y-102026266D01*
X204719996Y-101816798D01*
X204845962Y-101628277D01*
X205006277Y-101467962D01*
X205194798Y-101341996D01*
X205404266Y-101255232D01*
X205626635Y-101211000D01*
X205853365Y-101211000D01*
X206075734Y-101255232D01*
X206075734Y-101255232D01*
G37*
G36*
X200995734Y-101255232D02*
X201205202Y-101341996D01*
X201393723Y-101467962D01*
X201554038Y-101628277D01*
X201680004Y-101816798D01*
X201766768Y-102026266D01*
X201811000Y-102248635D01*
X201811000Y-102475365D01*
X201766768Y-102697734D01*
X201680004Y-102907202D01*
X201554038Y-103095723D01*
X201393723Y-103256038D01*
X201205202Y-103382004D01*
X200995734Y-103468768D01*
X200773365Y-103513000D01*
X200546635Y-103513000D01*
X200324266Y-103468768D01*
X200114798Y-103382004D01*
X199926277Y-103256038D01*
X199765962Y-103095723D01*
X199639996Y-102907202D01*
X199553232Y-102697734D01*
X199509000Y-102475365D01*
X199509000Y-102248635D01*
X199553232Y-102026266D01*
X199639996Y-101816798D01*
X199765962Y-101628277D01*
X199926277Y-101467962D01*
X200114798Y-101341996D01*
X200324266Y-101255232D01*
X200546635Y-101211000D01*
X200773365Y-101211000D01*
X200995734Y-101255232D01*
X200995734Y-101255232D01*
G37*
G36*
X107381000Y-103459000D02*
X105979000Y-103459000D01*
X105979000Y-102657000D01*
X107381000Y-102657000D01*
X107381000Y-103459000D01*
X107381000Y-103459000D01*
G37*
G36*
X87682565Y-101279389D02*
X87873834Y-101358615D01*
X88045976Y-101473637D01*
X88192363Y-101620024D01*
X88307385Y-101792166D01*
X88386611Y-101983435D01*
X88427000Y-102186484D01*
X88427000Y-102393516D01*
X88386611Y-102596565D01*
X88307385Y-102787834D01*
X88192363Y-102959976D01*
X88045976Y-103106363D01*
X87873834Y-103221385D01*
X87682565Y-103300611D01*
X87479516Y-103341000D01*
X87272484Y-103341000D01*
X87069435Y-103300611D01*
X86878166Y-103221385D01*
X86706024Y-103106363D01*
X86559637Y-102959976D01*
X86444615Y-102787834D01*
X86365389Y-102596565D01*
X86325000Y-102393516D01*
X86325000Y-102186484D01*
X86365389Y-101983435D01*
X86444615Y-101792166D01*
X86559637Y-101620024D01*
X86706024Y-101473637D01*
X86878166Y-101358615D01*
X87069435Y-101279389D01*
X87272484Y-101239000D01*
X87479516Y-101239000D01*
X87682565Y-101279389D01*
X87682565Y-101279389D01*
G37*
G36*
X81182565Y-101279389D02*
X81373834Y-101358615D01*
X81545976Y-101473637D01*
X81692363Y-101620024D01*
X81807385Y-101792166D01*
X81886611Y-101983435D01*
X81927000Y-102186484D01*
X81927000Y-102393516D01*
X81886611Y-102596565D01*
X81807385Y-102787834D01*
X81692363Y-102959976D01*
X81545976Y-103106363D01*
X81373834Y-103221385D01*
X81182565Y-103300611D01*
X80979516Y-103341000D01*
X80772484Y-103341000D01*
X80569435Y-103300611D01*
X80378166Y-103221385D01*
X80206024Y-103106363D01*
X80059637Y-102959976D01*
X79944615Y-102787834D01*
X79865389Y-102596565D01*
X79825000Y-102393516D01*
X79825000Y-102186484D01*
X79865389Y-101983435D01*
X79944615Y-101792166D01*
X80059637Y-101620024D01*
X80206024Y-101473637D01*
X80378166Y-101358615D01*
X80569435Y-101279389D01*
X80772484Y-101239000D01*
X80979516Y-101239000D01*
X81182565Y-101279389D01*
X81182565Y-101279389D01*
G37*
G36*
X141925000Y-103271000D02*
X140523000Y-103271000D01*
X140523000Y-102469000D01*
X141925000Y-102469000D01*
X141925000Y-103271000D01*
X141925000Y-103271000D01*
G37*
G36*
X134305000Y-103271000D02*
X132903000Y-103271000D01*
X132903000Y-102469000D01*
X134305000Y-102469000D01*
X134305000Y-103271000D01*
X134305000Y-103271000D01*
G37*
G36*
X139385000Y-103271000D02*
X137983000Y-103271000D01*
X137983000Y-102469000D01*
X139385000Y-102469000D01*
X139385000Y-103271000D01*
X139385000Y-103271000D01*
G37*
G36*
X136845000Y-103205000D02*
X135443000Y-103205000D01*
X135443000Y-102403000D01*
X136845000Y-102403000D01*
X136845000Y-103205000D01*
X136845000Y-103205000D01*
G37*
G36*
X196510000Y-102405000D02*
X195158000Y-102405000D01*
X195158000Y-101303000D01*
X196510000Y-101303000D01*
X196510000Y-102405000D01*
X196510000Y-102405000D01*
G37*
G36*
X188869000Y-102301000D02*
X188067000Y-102301000D01*
X188067000Y-100899000D01*
X188869000Y-100899000D01*
X188869000Y-102301000D01*
X188869000Y-102301000D01*
G37*
G36*
X190769000Y-102301000D02*
X189967000Y-102301000D01*
X189967000Y-100899000D01*
X190769000Y-100899000D01*
X190769000Y-102301000D01*
X190769000Y-102301000D01*
G37*
G36*
X184971000Y-102276000D02*
X183869000Y-102276000D01*
X183869000Y-100924000D01*
X184971000Y-100924000D01*
X184971000Y-102276000D01*
X184971000Y-102276000D01*
G37*
G36*
X186971000Y-102276000D02*
X185869000Y-102276000D01*
X185869000Y-100924000D01*
X186971000Y-100924000D01*
X186971000Y-102276000D01*
X186971000Y-102276000D01*
G37*
G36*
X182565000Y-101869000D02*
X181163000Y-101869000D01*
X181163000Y-101067000D01*
X182565000Y-101067000D01*
X182565000Y-101869000D01*
X182565000Y-101869000D01*
G37*
G36*
X107381000Y-101559000D02*
X105979000Y-101559000D01*
X105979000Y-100757000D01*
X107381000Y-100757000D01*
X107381000Y-101559000D01*
X107381000Y-101559000D01*
G37*
G36*
X141925000Y-101371000D02*
X140523000Y-101371000D01*
X140523000Y-100569000D01*
X141925000Y-100569000D01*
X141925000Y-101371000D01*
X141925000Y-101371000D01*
G37*
G36*
X139385000Y-101371000D02*
X137983000Y-101371000D01*
X137983000Y-100569000D01*
X139385000Y-100569000D01*
X139385000Y-101371000D01*
X139385000Y-101371000D01*
G37*
G36*
X134305000Y-101371000D02*
X132903000Y-101371000D01*
X132903000Y-100569000D01*
X134305000Y-100569000D01*
X134305000Y-101371000D01*
X134305000Y-101371000D01*
G37*
G36*
X136845000Y-101305000D02*
X135443000Y-101305000D01*
X135443000Y-100503000D01*
X136845000Y-100503000D01*
X136845000Y-101305000D01*
X136845000Y-101305000D01*
G37*
G36*
X203506565Y-98811389D02*
X203697834Y-98890615D01*
X203869976Y-99005637D01*
X204016363Y-99152024D01*
X204131385Y-99324166D01*
X204210611Y-99515435D01*
X204251000Y-99718484D01*
X204251000Y-99925516D01*
X204210611Y-100128565D01*
X204131385Y-100319834D01*
X204016363Y-100491976D01*
X203869976Y-100638363D01*
X203697834Y-100753385D01*
X203506565Y-100832611D01*
X203303516Y-100873000D01*
X203096484Y-100873000D01*
X202893435Y-100832611D01*
X202702166Y-100753385D01*
X202530024Y-100638363D01*
X202383637Y-100491976D01*
X202268615Y-100319834D01*
X202189389Y-100128565D01*
X202149000Y-99925516D01*
X202149000Y-99718484D01*
X202189389Y-99515435D01*
X202268615Y-99324166D01*
X202383637Y-99152024D01*
X202530024Y-99005637D01*
X202702166Y-98890615D01*
X202893435Y-98811389D01*
X203096484Y-98771000D01*
X203303516Y-98771000D01*
X203506565Y-98811389D01*
X203506565Y-98811389D01*
G37*
G36*
X192557000Y-100777000D02*
X191755000Y-100777000D01*
X191755000Y-99375000D01*
X192557000Y-99375000D01*
X192557000Y-100777000D01*
X192557000Y-100777000D01*
G37*
G36*
X194457000Y-100777000D02*
X193655000Y-100777000D01*
X193655000Y-99375000D01*
X194457000Y-99375000D01*
X194457000Y-100777000D01*
X194457000Y-100777000D01*
G37*
G36*
X196510000Y-100405000D02*
X195158000Y-100405000D01*
X195158000Y-99303000D01*
X196510000Y-99303000D01*
X196510000Y-100405000D01*
X196510000Y-100405000D01*
G37*
G36*
X178056527Y-97040736D02*
X178156410Y-97060604D01*
X178438674Y-97177521D01*
X178692705Y-97347259D01*
X178908741Y-97563295D01*
X179078479Y-97817326D01*
X179194143Y-98096565D01*
X179195396Y-98099591D01*
X179255000Y-98399238D01*
X179255000Y-98704762D01*
X179251693Y-98721385D01*
X179195396Y-99004410D01*
X179078479Y-99286674D01*
X178908741Y-99540705D01*
X178692705Y-99756741D01*
X178438674Y-99926479D01*
X178156410Y-100043396D01*
X178056527Y-100063264D01*
X177856762Y-100103000D01*
X177551238Y-100103000D01*
X177351473Y-100063264D01*
X177251590Y-100043396D01*
X176969326Y-99926479D01*
X176715295Y-99756741D01*
X176499259Y-99540705D01*
X176329521Y-99286674D01*
X176212604Y-99004410D01*
X176156307Y-98721385D01*
X176153000Y-98704762D01*
X176153000Y-98399238D01*
X176212604Y-98099591D01*
X176213857Y-98096565D01*
X176329521Y-97817326D01*
X176499259Y-97563295D01*
X176715295Y-97347259D01*
X176969326Y-97177521D01*
X177251590Y-97060604D01*
X177351473Y-97040736D01*
X177551238Y-97001000D01*
X177856762Y-97001000D01*
X178056527Y-97040736D01*
X178056527Y-97040736D01*
G37*
G36*
X103057427Y-97040736D02*
X103157310Y-97060604D01*
X103439574Y-97177521D01*
X103693605Y-97347259D01*
X103909641Y-97563295D01*
X104079379Y-97817326D01*
X104195043Y-98096565D01*
X104196296Y-98099591D01*
X104255900Y-98399238D01*
X104255900Y-98704762D01*
X104252593Y-98721385D01*
X104196296Y-99004410D01*
X104079379Y-99286674D01*
X103909641Y-99540705D01*
X103693605Y-99756741D01*
X103439574Y-99926479D01*
X103157310Y-100043396D01*
X103057427Y-100063264D01*
X102857662Y-100103000D01*
X102552138Y-100103000D01*
X102352373Y-100063264D01*
X102252490Y-100043396D01*
X101970226Y-99926479D01*
X101716195Y-99756741D01*
X101500159Y-99540705D01*
X101330421Y-99286674D01*
X101213504Y-99004410D01*
X101157207Y-98721385D01*
X101153900Y-98704762D01*
X101153900Y-98399238D01*
X101213504Y-98099591D01*
X101214757Y-98096565D01*
X101330421Y-97817326D01*
X101500159Y-97563295D01*
X101716195Y-97347259D01*
X101970226Y-97177521D01*
X102252490Y-97060604D01*
X102352373Y-97040736D01*
X102552138Y-97001000D01*
X102857662Y-97001000D01*
X103057427Y-97040736D01*
X103057427Y-97040736D01*
G37*
G36*
X182565000Y-99969000D02*
X181163000Y-99969000D01*
X181163000Y-99167000D01*
X182565000Y-99167000D01*
X182565000Y-99969000D01*
X182565000Y-99969000D01*
G37*
G36*
X118550424Y-97214760D02*
X118550427Y-97214761D01*
X118550428Y-97214761D01*
X118729692Y-97269140D01*
X118729694Y-97269141D01*
X118729697Y-97269142D01*
X118894904Y-97357446D01*
X119039712Y-97476288D01*
X119158552Y-97621095D01*
X119246858Y-97786303D01*
X119246860Y-97786307D01*
X119279381Y-97893514D01*
X119301240Y-97965575D01*
X119315000Y-98105282D01*
X119315000Y-98998717D01*
X119301240Y-99138426D01*
X119246860Y-99317694D01*
X119158552Y-99482905D01*
X119039712Y-99627712D01*
X118894905Y-99746552D01*
X118894903Y-99746553D01*
X118729693Y-99834860D01*
X118550429Y-99889239D01*
X118550428Y-99889239D01*
X118550425Y-99889240D01*
X118364000Y-99907601D01*
X118177576Y-99889240D01*
X118177573Y-99889239D01*
X118177572Y-99889239D01*
X117998308Y-99834860D01*
X117833098Y-99746553D01*
X117833096Y-99746552D01*
X117688289Y-99627712D01*
X117569449Y-99482905D01*
X117481140Y-99317691D01*
X117426760Y-99138430D01*
X117413000Y-98998718D01*
X117413000Y-98105283D01*
X117426760Y-97965576D01*
X117426761Y-97965572D01*
X117481140Y-97786308D01*
X117481141Y-97786306D01*
X117481142Y-97786303D01*
X117569446Y-97621096D01*
X117688288Y-97476288D01*
X117833095Y-97357448D01*
X117998305Y-97269141D01*
X117998307Y-97269140D01*
X118177571Y-97214761D01*
X118177572Y-97214761D01*
X118177575Y-97214760D01*
X118364000Y-97196399D01*
X118550424Y-97214760D01*
X118550424Y-97214760D01*
G37*
G36*
X138870424Y-97214760D02*
X138870427Y-97214761D01*
X138870428Y-97214761D01*
X139049692Y-97269140D01*
X139049694Y-97269141D01*
X139049697Y-97269142D01*
X139214904Y-97357446D01*
X139359712Y-97476288D01*
X139478552Y-97621095D01*
X139566858Y-97786303D01*
X139566860Y-97786307D01*
X139599381Y-97893514D01*
X139621240Y-97965575D01*
X139635000Y-98105282D01*
X139635000Y-98998717D01*
X139621240Y-99138426D01*
X139566860Y-99317694D01*
X139478552Y-99482905D01*
X139359712Y-99627712D01*
X139214905Y-99746552D01*
X139214903Y-99746553D01*
X139049693Y-99834860D01*
X138870429Y-99889239D01*
X138870428Y-99889239D01*
X138870425Y-99889240D01*
X138684000Y-99907601D01*
X138497576Y-99889240D01*
X138497573Y-99889239D01*
X138497572Y-99889239D01*
X138318308Y-99834860D01*
X138153098Y-99746553D01*
X138153096Y-99746552D01*
X138008289Y-99627712D01*
X137889449Y-99482905D01*
X137801140Y-99317691D01*
X137746760Y-99138430D01*
X137733000Y-98998718D01*
X137733000Y-98105283D01*
X137746760Y-97965576D01*
X137746761Y-97965572D01*
X137801140Y-97786308D01*
X137801141Y-97786306D01*
X137801142Y-97786303D01*
X137889446Y-97621096D01*
X138008288Y-97476288D01*
X138153095Y-97357448D01*
X138318305Y-97269141D01*
X138318307Y-97269140D01*
X138497571Y-97214761D01*
X138497572Y-97214761D01*
X138497575Y-97214760D01*
X138684000Y-97196399D01*
X138870424Y-97214760D01*
X138870424Y-97214760D01*
G37*
G36*
X133790424Y-97214760D02*
X133790427Y-97214761D01*
X133790428Y-97214761D01*
X133969692Y-97269140D01*
X133969694Y-97269141D01*
X133969697Y-97269142D01*
X134134904Y-97357446D01*
X134279712Y-97476288D01*
X134398552Y-97621095D01*
X134486858Y-97786303D01*
X134486860Y-97786307D01*
X134519381Y-97893514D01*
X134541240Y-97965575D01*
X134555000Y-98105282D01*
X134555000Y-98998717D01*
X134541240Y-99138426D01*
X134486860Y-99317694D01*
X134398552Y-99482905D01*
X134279712Y-99627712D01*
X134134905Y-99746552D01*
X134134903Y-99746553D01*
X133969693Y-99834860D01*
X133790429Y-99889239D01*
X133790428Y-99889239D01*
X133790425Y-99889240D01*
X133604000Y-99907601D01*
X133417576Y-99889240D01*
X133417573Y-99889239D01*
X133417572Y-99889239D01*
X133238308Y-99834860D01*
X133073098Y-99746553D01*
X133073096Y-99746552D01*
X132928289Y-99627712D01*
X132809449Y-99482905D01*
X132721140Y-99317691D01*
X132666760Y-99138430D01*
X132653000Y-98998718D01*
X132653000Y-98105283D01*
X132666760Y-97965576D01*
X132666761Y-97965572D01*
X132721140Y-97786308D01*
X132721141Y-97786306D01*
X132721142Y-97786303D01*
X132809446Y-97621096D01*
X132928288Y-97476288D01*
X133073095Y-97357448D01*
X133238305Y-97269141D01*
X133238307Y-97269140D01*
X133417571Y-97214761D01*
X133417572Y-97214761D01*
X133417575Y-97214760D01*
X133604000Y-97196399D01*
X133790424Y-97214760D01*
X133790424Y-97214760D01*
G37*
G36*
X131250424Y-97214760D02*
X131250427Y-97214761D01*
X131250428Y-97214761D01*
X131429692Y-97269140D01*
X131429694Y-97269141D01*
X131429697Y-97269142D01*
X131594904Y-97357446D01*
X131739712Y-97476288D01*
X131858552Y-97621095D01*
X131946858Y-97786303D01*
X131946860Y-97786307D01*
X131979381Y-97893514D01*
X132001240Y-97965575D01*
X132015000Y-98105282D01*
X132015000Y-98998717D01*
X132001240Y-99138426D01*
X131946860Y-99317694D01*
X131858552Y-99482905D01*
X131739712Y-99627712D01*
X131594905Y-99746552D01*
X131594903Y-99746553D01*
X131429693Y-99834860D01*
X131250429Y-99889239D01*
X131250428Y-99889239D01*
X131250425Y-99889240D01*
X131064000Y-99907601D01*
X130877576Y-99889240D01*
X130877573Y-99889239D01*
X130877572Y-99889239D01*
X130698308Y-99834860D01*
X130533098Y-99746553D01*
X130533096Y-99746552D01*
X130388289Y-99627712D01*
X130269449Y-99482905D01*
X130181140Y-99317691D01*
X130126760Y-99138430D01*
X130113000Y-98998718D01*
X130113000Y-98105283D01*
X130126760Y-97965576D01*
X130126761Y-97965572D01*
X130181140Y-97786308D01*
X130181141Y-97786306D01*
X130181142Y-97786303D01*
X130269446Y-97621096D01*
X130388288Y-97476288D01*
X130533095Y-97357448D01*
X130698305Y-97269141D01*
X130698307Y-97269140D01*
X130877571Y-97214761D01*
X130877572Y-97214761D01*
X130877575Y-97214760D01*
X131064000Y-97196399D01*
X131250424Y-97214760D01*
X131250424Y-97214760D01*
G37*
G36*
X136330424Y-97214760D02*
X136330427Y-97214761D01*
X136330428Y-97214761D01*
X136509692Y-97269140D01*
X136509694Y-97269141D01*
X136509697Y-97269142D01*
X136674904Y-97357446D01*
X136819712Y-97476288D01*
X136938552Y-97621095D01*
X137026858Y-97786303D01*
X137026860Y-97786307D01*
X137059381Y-97893514D01*
X137081240Y-97965575D01*
X137095000Y-98105282D01*
X137095000Y-98998717D01*
X137081240Y-99138426D01*
X137026860Y-99317694D01*
X136938552Y-99482905D01*
X136819712Y-99627712D01*
X136674905Y-99746552D01*
X136674903Y-99746553D01*
X136509693Y-99834860D01*
X136330429Y-99889239D01*
X136330428Y-99889239D01*
X136330425Y-99889240D01*
X136144000Y-99907601D01*
X135957576Y-99889240D01*
X135957573Y-99889239D01*
X135957572Y-99889239D01*
X135778308Y-99834860D01*
X135613098Y-99746553D01*
X135613096Y-99746552D01*
X135468289Y-99627712D01*
X135349449Y-99482905D01*
X135261140Y-99317691D01*
X135206760Y-99138430D01*
X135193000Y-98998718D01*
X135193000Y-98105283D01*
X135206760Y-97965576D01*
X135206761Y-97965572D01*
X135261140Y-97786308D01*
X135261141Y-97786306D01*
X135261142Y-97786303D01*
X135349446Y-97621096D01*
X135468288Y-97476288D01*
X135613095Y-97357448D01*
X135778305Y-97269141D01*
X135778307Y-97269140D01*
X135957571Y-97214761D01*
X135957572Y-97214761D01*
X135957575Y-97214760D01*
X136144000Y-97196399D01*
X136330424Y-97214760D01*
X136330424Y-97214760D01*
G37*
G36*
X128710424Y-97214760D02*
X128710427Y-97214761D01*
X128710428Y-97214761D01*
X128889692Y-97269140D01*
X128889694Y-97269141D01*
X128889697Y-97269142D01*
X129054904Y-97357446D01*
X129199712Y-97476288D01*
X129318552Y-97621095D01*
X129406858Y-97786303D01*
X129406860Y-97786307D01*
X129439381Y-97893514D01*
X129461240Y-97965575D01*
X129475000Y-98105282D01*
X129475000Y-98998717D01*
X129461240Y-99138426D01*
X129406860Y-99317694D01*
X129318552Y-99482905D01*
X129199712Y-99627712D01*
X129054905Y-99746552D01*
X129054903Y-99746553D01*
X128889693Y-99834860D01*
X128710429Y-99889239D01*
X128710428Y-99889239D01*
X128710425Y-99889240D01*
X128524000Y-99907601D01*
X128337576Y-99889240D01*
X128337573Y-99889239D01*
X128337572Y-99889239D01*
X128158308Y-99834860D01*
X127993098Y-99746553D01*
X127993096Y-99746552D01*
X127848289Y-99627712D01*
X127729449Y-99482905D01*
X127641140Y-99317691D01*
X127586760Y-99138430D01*
X127573000Y-98998718D01*
X127573000Y-98105283D01*
X127586760Y-97965576D01*
X127586761Y-97965572D01*
X127641140Y-97786308D01*
X127641141Y-97786306D01*
X127641142Y-97786303D01*
X127729446Y-97621096D01*
X127848288Y-97476288D01*
X127993095Y-97357448D01*
X128158305Y-97269141D01*
X128158307Y-97269140D01*
X128337571Y-97214761D01*
X128337572Y-97214761D01*
X128337575Y-97214760D01*
X128524000Y-97196399D01*
X128710424Y-97214760D01*
X128710424Y-97214760D01*
G37*
G36*
X126170424Y-97214760D02*
X126170427Y-97214761D01*
X126170428Y-97214761D01*
X126349692Y-97269140D01*
X126349694Y-97269141D01*
X126349697Y-97269142D01*
X126514904Y-97357446D01*
X126659712Y-97476288D01*
X126778552Y-97621095D01*
X126866858Y-97786303D01*
X126866860Y-97786307D01*
X126899381Y-97893514D01*
X126921240Y-97965575D01*
X126935000Y-98105282D01*
X126935000Y-98998717D01*
X126921240Y-99138426D01*
X126866860Y-99317694D01*
X126778552Y-99482905D01*
X126659712Y-99627712D01*
X126514905Y-99746552D01*
X126514903Y-99746553D01*
X126349693Y-99834860D01*
X126170429Y-99889239D01*
X126170428Y-99889239D01*
X126170425Y-99889240D01*
X125984000Y-99907601D01*
X125797576Y-99889240D01*
X125797573Y-99889239D01*
X125797572Y-99889239D01*
X125618308Y-99834860D01*
X125453098Y-99746553D01*
X125453096Y-99746552D01*
X125308289Y-99627712D01*
X125189449Y-99482905D01*
X125101140Y-99317691D01*
X125046760Y-99138430D01*
X125033000Y-98998718D01*
X125033000Y-98105283D01*
X125046760Y-97965576D01*
X125046761Y-97965572D01*
X125101140Y-97786308D01*
X125101141Y-97786306D01*
X125101142Y-97786303D01*
X125189446Y-97621096D01*
X125308288Y-97476288D01*
X125453095Y-97357448D01*
X125618305Y-97269141D01*
X125618307Y-97269140D01*
X125797571Y-97214761D01*
X125797572Y-97214761D01*
X125797575Y-97214760D01*
X125984000Y-97196399D01*
X126170424Y-97214760D01*
X126170424Y-97214760D01*
G37*
G36*
X123630424Y-97214760D02*
X123630427Y-97214761D01*
X123630428Y-97214761D01*
X123809692Y-97269140D01*
X123809694Y-97269141D01*
X123809697Y-97269142D01*
X123974904Y-97357446D01*
X124119712Y-97476288D01*
X124238552Y-97621095D01*
X124326858Y-97786303D01*
X124326860Y-97786307D01*
X124359381Y-97893514D01*
X124381240Y-97965575D01*
X124395000Y-98105282D01*
X124395000Y-98998717D01*
X124381240Y-99138426D01*
X124326860Y-99317694D01*
X124238552Y-99482905D01*
X124119712Y-99627712D01*
X123974905Y-99746552D01*
X123974903Y-99746553D01*
X123809693Y-99834860D01*
X123630429Y-99889239D01*
X123630428Y-99889239D01*
X123630425Y-99889240D01*
X123444000Y-99907601D01*
X123257576Y-99889240D01*
X123257573Y-99889239D01*
X123257572Y-99889239D01*
X123078308Y-99834860D01*
X122913098Y-99746553D01*
X122913096Y-99746552D01*
X122768289Y-99627712D01*
X122649449Y-99482905D01*
X122561140Y-99317691D01*
X122506760Y-99138430D01*
X122493000Y-98998718D01*
X122493000Y-98105283D01*
X122506760Y-97965576D01*
X122506761Y-97965572D01*
X122561140Y-97786308D01*
X122561141Y-97786306D01*
X122561142Y-97786303D01*
X122649446Y-97621096D01*
X122768288Y-97476288D01*
X122913095Y-97357448D01*
X123078305Y-97269141D01*
X123078307Y-97269140D01*
X123257571Y-97214761D01*
X123257572Y-97214761D01*
X123257575Y-97214760D01*
X123444000Y-97196399D01*
X123630424Y-97214760D01*
X123630424Y-97214760D01*
G37*
G36*
X116010424Y-97214760D02*
X116010427Y-97214761D01*
X116010428Y-97214761D01*
X116189692Y-97269140D01*
X116189694Y-97269141D01*
X116189697Y-97269142D01*
X116354904Y-97357446D01*
X116499712Y-97476288D01*
X116618552Y-97621095D01*
X116706858Y-97786303D01*
X116706860Y-97786307D01*
X116739381Y-97893514D01*
X116761240Y-97965575D01*
X116775000Y-98105282D01*
X116775000Y-98998717D01*
X116761240Y-99138426D01*
X116706860Y-99317694D01*
X116618552Y-99482905D01*
X116499712Y-99627712D01*
X116354905Y-99746552D01*
X116354903Y-99746553D01*
X116189693Y-99834860D01*
X116010429Y-99889239D01*
X116010428Y-99889239D01*
X116010425Y-99889240D01*
X115824000Y-99907601D01*
X115637576Y-99889240D01*
X115637573Y-99889239D01*
X115637572Y-99889239D01*
X115458308Y-99834860D01*
X115293098Y-99746553D01*
X115293096Y-99746552D01*
X115148289Y-99627712D01*
X115029449Y-99482905D01*
X114941140Y-99317691D01*
X114886760Y-99138430D01*
X114873000Y-98998718D01*
X114873000Y-98105283D01*
X114886760Y-97965576D01*
X114886761Y-97965572D01*
X114941140Y-97786308D01*
X114941141Y-97786306D01*
X114941142Y-97786303D01*
X115029446Y-97621096D01*
X115148288Y-97476288D01*
X115293095Y-97357448D01*
X115458305Y-97269141D01*
X115458307Y-97269140D01*
X115637571Y-97214761D01*
X115637572Y-97214761D01*
X115637575Y-97214760D01*
X115824000Y-97196399D01*
X116010424Y-97214760D01*
X116010424Y-97214760D01*
G37*
G36*
X113470424Y-97214760D02*
X113470427Y-97214761D01*
X113470428Y-97214761D01*
X113649692Y-97269140D01*
X113649694Y-97269141D01*
X113649697Y-97269142D01*
X113814904Y-97357446D01*
X113959712Y-97476288D01*
X114078552Y-97621095D01*
X114166858Y-97786303D01*
X114166860Y-97786307D01*
X114199381Y-97893514D01*
X114221240Y-97965575D01*
X114235000Y-98105282D01*
X114235000Y-98998717D01*
X114221240Y-99138426D01*
X114166860Y-99317694D01*
X114078552Y-99482905D01*
X113959712Y-99627712D01*
X113814905Y-99746552D01*
X113814903Y-99746553D01*
X113649693Y-99834860D01*
X113470429Y-99889239D01*
X113470428Y-99889239D01*
X113470425Y-99889240D01*
X113284000Y-99907601D01*
X113097576Y-99889240D01*
X113097573Y-99889239D01*
X113097572Y-99889239D01*
X112918308Y-99834860D01*
X112753098Y-99746553D01*
X112753096Y-99746552D01*
X112608289Y-99627712D01*
X112489449Y-99482905D01*
X112401140Y-99317691D01*
X112346760Y-99138430D01*
X112333000Y-98998718D01*
X112333000Y-98105283D01*
X112346760Y-97965576D01*
X112346761Y-97965572D01*
X112401140Y-97786308D01*
X112401141Y-97786306D01*
X112401142Y-97786303D01*
X112489446Y-97621096D01*
X112608288Y-97476288D01*
X112753095Y-97357448D01*
X112918305Y-97269141D01*
X112918307Y-97269140D01*
X113097571Y-97214761D01*
X113097572Y-97214761D01*
X113097575Y-97214760D01*
X113284000Y-97196399D01*
X113470424Y-97214760D01*
X113470424Y-97214760D01*
G37*
G36*
X146490424Y-97214760D02*
X146490427Y-97214761D01*
X146490428Y-97214761D01*
X146669692Y-97269140D01*
X146669694Y-97269141D01*
X146669697Y-97269142D01*
X146834904Y-97357446D01*
X146979712Y-97476288D01*
X147098552Y-97621095D01*
X147186858Y-97786303D01*
X147186860Y-97786307D01*
X147219381Y-97893514D01*
X147241240Y-97965575D01*
X147255000Y-98105282D01*
X147255000Y-98998717D01*
X147241240Y-99138426D01*
X147186860Y-99317694D01*
X147098552Y-99482905D01*
X146979712Y-99627712D01*
X146834905Y-99746552D01*
X146834903Y-99746553D01*
X146669693Y-99834860D01*
X146490429Y-99889239D01*
X146490428Y-99889239D01*
X146490425Y-99889240D01*
X146304000Y-99907601D01*
X146117576Y-99889240D01*
X146117573Y-99889239D01*
X146117572Y-99889239D01*
X145938308Y-99834860D01*
X145773098Y-99746553D01*
X145773096Y-99746552D01*
X145628289Y-99627712D01*
X145509449Y-99482905D01*
X145421140Y-99317691D01*
X145366760Y-99138430D01*
X145353000Y-98998718D01*
X145353000Y-98105283D01*
X145366760Y-97965576D01*
X145366761Y-97965572D01*
X145421140Y-97786308D01*
X145421141Y-97786306D01*
X145421142Y-97786303D01*
X145509446Y-97621096D01*
X145628288Y-97476288D01*
X145773095Y-97357448D01*
X145938305Y-97269141D01*
X145938307Y-97269140D01*
X146117571Y-97214761D01*
X146117572Y-97214761D01*
X146117575Y-97214760D01*
X146304000Y-97196399D01*
X146490424Y-97214760D01*
X146490424Y-97214760D01*
G37*
G36*
X110930424Y-97214760D02*
X110930427Y-97214761D01*
X110930428Y-97214761D01*
X111109692Y-97269140D01*
X111109694Y-97269141D01*
X111109697Y-97269142D01*
X111274904Y-97357446D01*
X111419712Y-97476288D01*
X111538552Y-97621095D01*
X111626858Y-97786303D01*
X111626860Y-97786307D01*
X111659381Y-97893514D01*
X111681240Y-97965575D01*
X111695000Y-98105282D01*
X111695000Y-98998717D01*
X111681240Y-99138426D01*
X111626860Y-99317694D01*
X111538552Y-99482905D01*
X111419712Y-99627712D01*
X111274905Y-99746552D01*
X111274903Y-99746553D01*
X111109693Y-99834860D01*
X110930429Y-99889239D01*
X110930428Y-99889239D01*
X110930425Y-99889240D01*
X110744000Y-99907601D01*
X110557576Y-99889240D01*
X110557573Y-99889239D01*
X110557572Y-99889239D01*
X110378308Y-99834860D01*
X110213098Y-99746553D01*
X110213096Y-99746552D01*
X110068289Y-99627712D01*
X109949449Y-99482905D01*
X109861140Y-99317691D01*
X109806760Y-99138430D01*
X109793000Y-98998718D01*
X109793000Y-98105283D01*
X109806760Y-97965576D01*
X109806761Y-97965572D01*
X109861140Y-97786308D01*
X109861141Y-97786306D01*
X109861142Y-97786303D01*
X109949446Y-97621096D01*
X110068288Y-97476288D01*
X110213095Y-97357448D01*
X110378305Y-97269141D01*
X110378307Y-97269140D01*
X110557571Y-97214761D01*
X110557572Y-97214761D01*
X110557575Y-97214760D01*
X110744000Y-97196399D01*
X110930424Y-97214760D01*
X110930424Y-97214760D01*
G37*
G36*
X143950424Y-97214760D02*
X143950427Y-97214761D01*
X143950428Y-97214761D01*
X144129692Y-97269140D01*
X144129694Y-97269141D01*
X144129697Y-97269142D01*
X144294904Y-97357446D01*
X144439712Y-97476288D01*
X144558552Y-97621095D01*
X144646858Y-97786303D01*
X144646860Y-97786307D01*
X144679381Y-97893514D01*
X144701240Y-97965575D01*
X144715000Y-98105282D01*
X144715000Y-98998717D01*
X144701240Y-99138426D01*
X144646860Y-99317694D01*
X144558552Y-99482905D01*
X144439712Y-99627712D01*
X144294905Y-99746552D01*
X144294903Y-99746553D01*
X144129693Y-99834860D01*
X143950429Y-99889239D01*
X143950428Y-99889239D01*
X143950425Y-99889240D01*
X143764000Y-99907601D01*
X143577576Y-99889240D01*
X143577573Y-99889239D01*
X143577572Y-99889239D01*
X143398308Y-99834860D01*
X143233098Y-99746553D01*
X143233096Y-99746552D01*
X143088289Y-99627712D01*
X142969449Y-99482905D01*
X142881140Y-99317691D01*
X142826760Y-99138430D01*
X142813000Y-98998718D01*
X142813000Y-98105283D01*
X142826760Y-97965576D01*
X142826761Y-97965572D01*
X142881140Y-97786308D01*
X142881141Y-97786306D01*
X142881142Y-97786303D01*
X142969446Y-97621096D01*
X143088288Y-97476288D01*
X143233095Y-97357448D01*
X143398305Y-97269141D01*
X143398307Y-97269140D01*
X143577571Y-97214761D01*
X143577572Y-97214761D01*
X143577575Y-97214760D01*
X143764000Y-97196399D01*
X143950424Y-97214760D01*
X143950424Y-97214760D01*
G37*
G36*
X141410424Y-97214760D02*
X141410427Y-97214761D01*
X141410428Y-97214761D01*
X141589692Y-97269140D01*
X141589694Y-97269141D01*
X141589697Y-97269142D01*
X141754904Y-97357446D01*
X141899712Y-97476288D01*
X142018552Y-97621095D01*
X142106858Y-97786303D01*
X142106860Y-97786307D01*
X142139381Y-97893514D01*
X142161240Y-97965575D01*
X142175000Y-98105282D01*
X142175000Y-98998717D01*
X142161240Y-99138426D01*
X142106860Y-99317694D01*
X142018552Y-99482905D01*
X141899712Y-99627712D01*
X141754905Y-99746552D01*
X141754903Y-99746553D01*
X141589693Y-99834860D01*
X141410429Y-99889239D01*
X141410428Y-99889239D01*
X141410425Y-99889240D01*
X141224000Y-99907601D01*
X141037576Y-99889240D01*
X141037573Y-99889239D01*
X141037572Y-99889239D01*
X140858308Y-99834860D01*
X140693098Y-99746553D01*
X140693096Y-99746552D01*
X140548289Y-99627712D01*
X140429449Y-99482905D01*
X140341140Y-99317691D01*
X140286760Y-99138430D01*
X140273000Y-98998718D01*
X140273000Y-98105283D01*
X140286760Y-97965576D01*
X140286761Y-97965572D01*
X140341140Y-97786308D01*
X140341141Y-97786306D01*
X140341142Y-97786303D01*
X140429446Y-97621096D01*
X140548288Y-97476288D01*
X140693095Y-97357448D01*
X140858305Y-97269141D01*
X140858307Y-97269140D01*
X141037571Y-97214761D01*
X141037572Y-97214761D01*
X141037575Y-97214760D01*
X141224000Y-97196399D01*
X141410424Y-97214760D01*
X141410424Y-97214760D01*
G37*
G36*
X121090424Y-97214760D02*
X121090427Y-97214761D01*
X121090428Y-97214761D01*
X121269692Y-97269140D01*
X121269694Y-97269141D01*
X121269697Y-97269142D01*
X121434904Y-97357446D01*
X121579712Y-97476288D01*
X121698552Y-97621095D01*
X121786858Y-97786303D01*
X121786860Y-97786307D01*
X121819381Y-97893514D01*
X121841240Y-97965575D01*
X121855000Y-98105282D01*
X121855000Y-98998717D01*
X121841240Y-99138426D01*
X121786860Y-99317694D01*
X121698552Y-99482905D01*
X121579712Y-99627712D01*
X121434905Y-99746552D01*
X121434903Y-99746553D01*
X121269693Y-99834860D01*
X121090429Y-99889239D01*
X121090428Y-99889239D01*
X121090425Y-99889240D01*
X120904000Y-99907601D01*
X120717576Y-99889240D01*
X120717573Y-99889239D01*
X120717572Y-99889239D01*
X120538308Y-99834860D01*
X120373098Y-99746553D01*
X120373096Y-99746552D01*
X120228289Y-99627712D01*
X120109449Y-99482905D01*
X120021140Y-99317691D01*
X119966760Y-99138430D01*
X119953000Y-98998718D01*
X119953000Y-98105283D01*
X119966760Y-97965576D01*
X119966761Y-97965572D01*
X120021140Y-97786308D01*
X120021141Y-97786306D01*
X120021142Y-97786303D01*
X120109446Y-97621096D01*
X120228288Y-97476288D01*
X120373095Y-97357448D01*
X120538305Y-97269141D01*
X120538307Y-97269140D01*
X120717571Y-97214761D01*
X120717572Y-97214761D01*
X120717575Y-97214760D01*
X120904000Y-97196399D01*
X121090424Y-97214760D01*
X121090424Y-97214760D01*
G37*
G36*
X109155000Y-99903000D02*
X107253000Y-99903000D01*
X107253000Y-97201000D01*
X109155000Y-97201000D01*
X109155000Y-99903000D01*
X109155000Y-99903000D01*
G37*
G36*
X185359000Y-99837000D02*
X183957000Y-99837000D01*
X183957000Y-99035000D01*
X185359000Y-99035000D01*
X185359000Y-99837000D01*
X185359000Y-99837000D01*
G37*
G36*
X81182565Y-96779389D02*
X81373834Y-96858615D01*
X81545976Y-96973637D01*
X81692363Y-97120024D01*
X81807385Y-97292166D01*
X81886611Y-97483435D01*
X81927000Y-97686484D01*
X81927000Y-97893516D01*
X81886611Y-98096565D01*
X81807385Y-98287834D01*
X81692363Y-98459976D01*
X81545976Y-98606363D01*
X81373834Y-98721385D01*
X81182565Y-98800611D01*
X80979516Y-98841000D01*
X80772484Y-98841000D01*
X80569435Y-98800611D01*
X80378166Y-98721385D01*
X80206024Y-98606363D01*
X80059637Y-98459976D01*
X79944615Y-98287834D01*
X79865389Y-98096565D01*
X79825000Y-97893516D01*
X79825000Y-97686484D01*
X79865389Y-97483435D01*
X79944615Y-97292166D01*
X80059637Y-97120024D01*
X80206024Y-96973637D01*
X80378166Y-96858615D01*
X80569435Y-96779389D01*
X80772484Y-96739000D01*
X80979516Y-96739000D01*
X81182565Y-96779389D01*
X81182565Y-96779389D01*
G37*
G36*
X87682565Y-96779389D02*
X87873834Y-96858615D01*
X88045976Y-96973637D01*
X88192363Y-97120024D01*
X88307385Y-97292166D01*
X88386611Y-97483435D01*
X88427000Y-97686484D01*
X88427000Y-97893516D01*
X88386611Y-98096565D01*
X88307385Y-98287834D01*
X88192363Y-98459976D01*
X88045976Y-98606363D01*
X87873834Y-98721385D01*
X87682565Y-98800611D01*
X87479516Y-98841000D01*
X87272484Y-98841000D01*
X87069435Y-98800611D01*
X86878166Y-98721385D01*
X86706024Y-98606363D01*
X86559637Y-98459976D01*
X86444615Y-98287834D01*
X86365389Y-98096565D01*
X86325000Y-97893516D01*
X86325000Y-97686484D01*
X86365389Y-97483435D01*
X86444615Y-97292166D01*
X86559637Y-97120024D01*
X86706024Y-96973637D01*
X86878166Y-96858615D01*
X87069435Y-96779389D01*
X87272484Y-96739000D01*
X87479516Y-96739000D01*
X87682565Y-96779389D01*
X87682565Y-96779389D01*
G37*
G36*
X153396130Y-91622241D02*
X153396132Y-91622242D01*
X153396133Y-91622242D01*
X154042373Y-91889923D01*
X154616135Y-92273299D01*
X154623978Y-92278539D01*
X155118584Y-92773145D01*
X155118586Y-92773148D01*
X155507200Y-93354750D01*
X155563950Y-93491757D01*
X155774882Y-94000993D01*
X155911344Y-94687035D01*
X155911344Y-95386523D01*
X155799063Y-95951000D01*
X155774881Y-96072568D01*
X155507200Y-96718808D01*
X155200698Y-97177521D01*
X155118584Y-97300413D01*
X154623978Y-97795019D01*
X154623975Y-97795021D01*
X154042373Y-98183635D01*
X153396133Y-98451316D01*
X153396132Y-98451316D01*
X153396130Y-98451317D01*
X152710088Y-98587779D01*
X152010600Y-98587779D01*
X151324558Y-98451317D01*
X151324556Y-98451316D01*
X151324555Y-98451316D01*
X150678315Y-98183635D01*
X150096713Y-97795021D01*
X150096710Y-97795019D01*
X149602104Y-97300413D01*
X149519990Y-97177521D01*
X149213488Y-96718808D01*
X148945807Y-96072568D01*
X148921626Y-95951000D01*
X148809344Y-95386523D01*
X148809344Y-94687035D01*
X148945806Y-94000993D01*
X149156738Y-93491757D01*
X149213488Y-93354750D01*
X149602102Y-92773148D01*
X149602104Y-92773145D01*
X150096710Y-92278539D01*
X150104553Y-92273299D01*
X150678315Y-91889923D01*
X151324555Y-91622242D01*
X151324556Y-91622242D01*
X151324558Y-91622241D01*
X152010600Y-91485779D01*
X152710088Y-91485779D01*
X153396130Y-91622241D01*
X153396130Y-91622241D01*
G37*
G36*
X193996130Y-91622241D02*
X193996132Y-91622242D01*
X193996133Y-91622242D01*
X194642373Y-91889923D01*
X195216135Y-92273299D01*
X195223978Y-92278539D01*
X195718584Y-92773145D01*
X195718586Y-92773148D01*
X196107200Y-93354750D01*
X196163950Y-93491757D01*
X196374882Y-94000993D01*
X196511344Y-94687035D01*
X196511344Y-95386523D01*
X196399063Y-95951000D01*
X196374881Y-96072568D01*
X196107200Y-96718808D01*
X195800698Y-97177521D01*
X195718584Y-97300413D01*
X195223978Y-97795019D01*
X195223975Y-97795021D01*
X194642373Y-98183635D01*
X193996133Y-98451316D01*
X193996132Y-98451316D01*
X193996130Y-98451317D01*
X193310088Y-98587779D01*
X192610600Y-98587779D01*
X191924558Y-98451317D01*
X191924556Y-98451316D01*
X191924555Y-98451316D01*
X191278315Y-98183635D01*
X190696713Y-97795021D01*
X190696710Y-97795019D01*
X190202104Y-97300413D01*
X190119990Y-97177521D01*
X189813488Y-96718808D01*
X189545807Y-96072568D01*
X189521626Y-95951000D01*
X189409344Y-95386523D01*
X189409344Y-94687035D01*
X189545806Y-94000993D01*
X189756738Y-93491757D01*
X189813488Y-93354750D01*
X190202102Y-92773148D01*
X190202104Y-92773145D01*
X190696710Y-92278539D01*
X190704553Y-92273299D01*
X191278315Y-91889923D01*
X191924555Y-91622242D01*
X191924556Y-91622242D01*
X191924558Y-91622241D01*
X192610600Y-91485779D01*
X193310088Y-91485779D01*
X193996130Y-91622241D01*
X193996130Y-91622241D01*
G37*
G36*
X93374000Y-98487000D02*
X90522000Y-98487000D01*
X90522000Y-96585000D01*
X93374000Y-96585000D01*
X93374000Y-98487000D01*
X93374000Y-98487000D01*
G37*
G36*
X98624000Y-98487000D02*
X95772000Y-98487000D01*
X95772000Y-96585000D01*
X98624000Y-96585000D01*
X98624000Y-98487000D01*
X98624000Y-98487000D01*
G37*
G36*
X200995734Y-96175232D02*
X201205202Y-96261996D01*
X201393723Y-96387962D01*
X201554038Y-96548277D01*
X201680004Y-96736798D01*
X201766768Y-96946266D01*
X201811000Y-97168635D01*
X201811000Y-97395365D01*
X201766768Y-97617734D01*
X201680004Y-97827202D01*
X201554038Y-98015723D01*
X201393723Y-98176038D01*
X201205202Y-98302004D01*
X200995734Y-98388768D01*
X200773365Y-98433000D01*
X200546635Y-98433000D01*
X200324266Y-98388768D01*
X200114798Y-98302004D01*
X199926277Y-98176038D01*
X199765962Y-98015723D01*
X199639996Y-97827202D01*
X199553232Y-97617734D01*
X199509000Y-97395365D01*
X199509000Y-97168635D01*
X199553232Y-96946266D01*
X199639996Y-96736798D01*
X199765962Y-96548277D01*
X199926277Y-96387962D01*
X200114798Y-96261996D01*
X200324266Y-96175232D01*
X200546635Y-96131000D01*
X200773365Y-96131000D01*
X200995734Y-96175232D01*
X200995734Y-96175232D01*
G37*
G36*
X206075734Y-96175232D02*
X206285202Y-96261996D01*
X206473723Y-96387962D01*
X206634038Y-96548277D01*
X206760004Y-96736798D01*
X206846768Y-96946266D01*
X206891000Y-97168635D01*
X206891000Y-97395365D01*
X206846768Y-97617734D01*
X206760004Y-97827202D01*
X206634038Y-98015723D01*
X206473723Y-98176038D01*
X206285202Y-98302004D01*
X206075734Y-98388768D01*
X205853365Y-98433000D01*
X205626635Y-98433000D01*
X205404266Y-98388768D01*
X205194798Y-98302004D01*
X205006277Y-98176038D01*
X204845962Y-98015723D01*
X204719996Y-97827202D01*
X204633232Y-97617734D01*
X204589000Y-97395365D01*
X204589000Y-97168635D01*
X204633232Y-96946266D01*
X204719996Y-96736798D01*
X204845962Y-96548277D01*
X205006277Y-96387962D01*
X205194798Y-96261996D01*
X205404266Y-96175232D01*
X205626635Y-96131000D01*
X205853365Y-96131000D01*
X206075734Y-96175232D01*
X206075734Y-96175232D01*
G37*
G36*
X182093827Y-95508914D02*
X182093829Y-95508915D01*
X182093830Y-95508915D01*
X182330597Y-95606987D01*
X182543684Y-95749367D01*
X182724893Y-95930576D01*
X182867273Y-96143663D01*
X182965346Y-96380433D01*
X183015342Y-96631779D01*
X183015342Y-96888057D01*
X182966222Y-97135000D01*
X182965345Y-97139406D01*
X182949557Y-97177521D01*
X182867273Y-97376173D01*
X182724893Y-97589260D01*
X182543684Y-97770469D01*
X182543681Y-97770471D01*
X182330597Y-97912849D01*
X182093830Y-98010921D01*
X182093829Y-98010921D01*
X182093827Y-98010922D01*
X181842481Y-98060918D01*
X181586203Y-98060918D01*
X181334857Y-98010922D01*
X181334855Y-98010921D01*
X181334854Y-98010921D01*
X181098087Y-97912849D01*
X180885003Y-97770471D01*
X180885000Y-97770469D01*
X180703791Y-97589260D01*
X180561411Y-97376173D01*
X180479127Y-97177521D01*
X180463339Y-97139406D01*
X180462463Y-97135000D01*
X180413342Y-96888057D01*
X180413342Y-96631779D01*
X180463338Y-96380433D01*
X180561411Y-96143663D01*
X180703791Y-95930576D01*
X180885000Y-95749367D01*
X181098087Y-95606987D01*
X181334854Y-95508915D01*
X181334855Y-95508915D01*
X181334857Y-95508914D01*
X181586203Y-95458918D01*
X181842481Y-95458918D01*
X182093827Y-95508914D01*
X182093827Y-95508914D01*
G37*
G36*
X163043827Y-95508914D02*
X163043829Y-95508915D01*
X163043830Y-95508915D01*
X163280597Y-95606987D01*
X163493684Y-95749367D01*
X163674893Y-95930576D01*
X163817273Y-96143663D01*
X163915346Y-96380433D01*
X163965342Y-96631779D01*
X163965342Y-96888057D01*
X163916222Y-97135000D01*
X163915345Y-97139406D01*
X163899557Y-97177521D01*
X163817273Y-97376173D01*
X163674893Y-97589260D01*
X163493684Y-97770469D01*
X163493681Y-97770471D01*
X163280597Y-97912849D01*
X163043830Y-98010921D01*
X163043829Y-98010921D01*
X163043827Y-98010922D01*
X162792481Y-98060918D01*
X162536203Y-98060918D01*
X162284857Y-98010922D01*
X162284855Y-98010921D01*
X162284854Y-98010921D01*
X162048087Y-97912849D01*
X161835003Y-97770471D01*
X161835000Y-97770469D01*
X161653791Y-97589260D01*
X161511411Y-97376173D01*
X161429127Y-97177521D01*
X161413339Y-97139406D01*
X161412463Y-97135000D01*
X161363342Y-96888057D01*
X161363342Y-96631779D01*
X161413338Y-96380433D01*
X161511411Y-96143663D01*
X161653791Y-95930576D01*
X161835000Y-95749367D01*
X162048087Y-95606987D01*
X162284854Y-95508915D01*
X162284855Y-95508915D01*
X162284857Y-95508914D01*
X162536203Y-95458918D01*
X162792481Y-95458918D01*
X163043827Y-95508914D01*
X163043827Y-95508914D01*
G37*
G36*
X185359000Y-97937000D02*
X183957000Y-97937000D01*
X183957000Y-97135000D01*
X185359000Y-97135000D01*
X185359000Y-97937000D01*
X185359000Y-97937000D01*
G37*
G36*
X110195000Y-95951000D02*
X109393000Y-95951000D01*
X109393000Y-94549000D01*
X110195000Y-94549000D01*
X110195000Y-95951000D01*
X110195000Y-95951000D01*
G37*
G36*
X108793000Y-95951000D02*
X107991000Y-95951000D01*
X107991000Y-94549000D01*
X108793000Y-94549000D01*
X108793000Y-95951000D01*
X108793000Y-95951000D01*
G37*
G36*
X106893000Y-95951000D02*
X106091000Y-95951000D01*
X106091000Y-94549000D01*
X106893000Y-94549000D01*
X106893000Y-95951000D01*
X106893000Y-95951000D01*
G37*
G36*
X112095000Y-95951000D02*
X111293000Y-95951000D01*
X111293000Y-94549000D01*
X112095000Y-94549000D01*
X112095000Y-95951000D01*
X112095000Y-95951000D01*
G37*
G36*
X105437000Y-95926000D02*
X104335000Y-95926000D01*
X104335000Y-94574000D01*
X105437000Y-94574000D01*
X105437000Y-95926000D01*
X105437000Y-95926000D01*
G37*
G36*
X103437000Y-95926000D02*
X102335000Y-95926000D01*
X102335000Y-94574000D01*
X103437000Y-94574000D01*
X103437000Y-95926000D01*
X103437000Y-95926000D01*
G37*
G36*
X188153000Y-93873000D02*
X186751000Y-93873000D01*
X186751000Y-93071000D01*
X188153000Y-93071000D01*
X188153000Y-93873000D01*
X188153000Y-93873000D01*
G37*
G36*
X143239142Y-91928242D02*
X143387102Y-91989530D01*
X143520258Y-92078502D01*
X143633498Y-92191742D01*
X143722470Y-92324898D01*
X143783758Y-92472858D01*
X143815000Y-92629925D01*
X143815000Y-92790075D01*
X143783758Y-92947142D01*
X143736354Y-93061583D01*
X143722471Y-93095100D01*
X143633499Y-93228257D01*
X143520257Y-93341499D01*
X143500425Y-93354750D01*
X143387102Y-93430470D01*
X143239142Y-93491758D01*
X143082075Y-93523000D01*
X142921925Y-93523000D01*
X142764858Y-93491758D01*
X142616898Y-93430470D01*
X142503575Y-93354750D01*
X142483743Y-93341499D01*
X142370501Y-93228257D01*
X142281529Y-93095100D01*
X142267646Y-93061583D01*
X142220242Y-92947142D01*
X142189000Y-92790075D01*
X142189000Y-92629925D01*
X142220242Y-92472858D01*
X142281530Y-92324898D01*
X142370502Y-92191742D01*
X142483742Y-92078502D01*
X142616898Y-91989530D01*
X142764858Y-91928242D01*
X142921925Y-91897000D01*
X143082075Y-91897000D01*
X143239142Y-91928242D01*
X143239142Y-91928242D01*
G37*
G36*
X122919142Y-91928242D02*
X123067102Y-91989530D01*
X123200258Y-92078502D01*
X123313498Y-92191742D01*
X123402470Y-92324898D01*
X123463758Y-92472858D01*
X123495000Y-92629925D01*
X123495000Y-92790075D01*
X123463758Y-92947142D01*
X123416354Y-93061583D01*
X123402471Y-93095100D01*
X123313499Y-93228257D01*
X123200257Y-93341499D01*
X123180425Y-93354750D01*
X123067102Y-93430470D01*
X122919142Y-93491758D01*
X122762075Y-93523000D01*
X122601925Y-93523000D01*
X122444858Y-93491758D01*
X122296898Y-93430470D01*
X122183575Y-93354750D01*
X122163743Y-93341499D01*
X122050501Y-93228257D01*
X121961529Y-93095100D01*
X121947646Y-93061583D01*
X121900242Y-92947142D01*
X121869000Y-92790075D01*
X121869000Y-92629925D01*
X121900242Y-92472858D01*
X121961530Y-92324898D01*
X122050502Y-92191742D01*
X122163742Y-92078502D01*
X122296898Y-91989530D01*
X122444858Y-91928242D01*
X122601925Y-91897000D01*
X122762075Y-91897000D01*
X122919142Y-91928242D01*
X122919142Y-91928242D01*
G37*
G36*
X120379142Y-91928242D02*
X120527102Y-91989530D01*
X120660258Y-92078502D01*
X120773498Y-92191742D01*
X120862470Y-92324898D01*
X120923758Y-92472858D01*
X120955000Y-92629925D01*
X120955000Y-92790075D01*
X120923758Y-92947142D01*
X120876354Y-93061583D01*
X120862471Y-93095100D01*
X120773499Y-93228257D01*
X120660257Y-93341499D01*
X120640425Y-93354750D01*
X120527102Y-93430470D01*
X120379142Y-93491758D01*
X120222075Y-93523000D01*
X120061925Y-93523000D01*
X119904858Y-93491758D01*
X119756898Y-93430470D01*
X119643575Y-93354750D01*
X119623743Y-93341499D01*
X119510501Y-93228257D01*
X119421529Y-93095100D01*
X119407646Y-93061583D01*
X119360242Y-92947142D01*
X119329000Y-92790075D01*
X119329000Y-92629925D01*
X119360242Y-92472858D01*
X119421530Y-92324898D01*
X119510502Y-92191742D01*
X119623742Y-92078502D01*
X119756898Y-91989530D01*
X119904858Y-91928242D01*
X120061925Y-91897000D01*
X120222075Y-91897000D01*
X120379142Y-91928242D01*
X120379142Y-91928242D01*
G37*
G36*
X117839142Y-91928242D02*
X117987102Y-91989530D01*
X118120258Y-92078502D01*
X118233498Y-92191742D01*
X118322470Y-92324898D01*
X118383758Y-92472858D01*
X118415000Y-92629925D01*
X118415000Y-92790075D01*
X118383758Y-92947142D01*
X118336354Y-93061583D01*
X118322471Y-93095100D01*
X118233499Y-93228257D01*
X118120257Y-93341499D01*
X118100425Y-93354750D01*
X117987102Y-93430470D01*
X117839142Y-93491758D01*
X117682075Y-93523000D01*
X117521925Y-93523000D01*
X117364858Y-93491758D01*
X117216898Y-93430470D01*
X117103575Y-93354750D01*
X117083743Y-93341499D01*
X116970501Y-93228257D01*
X116881529Y-93095100D01*
X116867646Y-93061583D01*
X116820242Y-92947142D01*
X116789000Y-92790075D01*
X116789000Y-92629925D01*
X116820242Y-92472858D01*
X116881530Y-92324898D01*
X116970502Y-92191742D01*
X117083742Y-92078502D01*
X117216898Y-91989530D01*
X117364858Y-91928242D01*
X117521925Y-91897000D01*
X117682075Y-91897000D01*
X117839142Y-91928242D01*
X117839142Y-91928242D01*
G37*
G36*
X115299142Y-91928242D02*
X115447102Y-91989530D01*
X115580258Y-92078502D01*
X115693498Y-92191742D01*
X115782470Y-92324898D01*
X115843758Y-92472858D01*
X115875000Y-92629925D01*
X115875000Y-92790075D01*
X115843758Y-92947142D01*
X115796354Y-93061583D01*
X115782471Y-93095100D01*
X115693499Y-93228257D01*
X115580257Y-93341499D01*
X115560425Y-93354750D01*
X115447102Y-93430470D01*
X115299142Y-93491758D01*
X115142075Y-93523000D01*
X114981925Y-93523000D01*
X114824858Y-93491758D01*
X114676898Y-93430470D01*
X114563575Y-93354750D01*
X114543743Y-93341499D01*
X114430501Y-93228257D01*
X114341529Y-93095100D01*
X114327646Y-93061583D01*
X114280242Y-92947142D01*
X114249000Y-92790075D01*
X114249000Y-92629925D01*
X114280242Y-92472858D01*
X114341530Y-92324898D01*
X114430502Y-92191742D01*
X114543742Y-92078502D01*
X114676898Y-91989530D01*
X114824858Y-91928242D01*
X114981925Y-91897000D01*
X115142075Y-91897000D01*
X115299142Y-91928242D01*
X115299142Y-91928242D01*
G37*
G36*
X112759142Y-91928242D02*
X112907102Y-91989530D01*
X113040258Y-92078502D01*
X113153498Y-92191742D01*
X113242470Y-92324898D01*
X113303758Y-92472858D01*
X113335000Y-92629925D01*
X113335000Y-92790075D01*
X113303758Y-92947142D01*
X113256354Y-93061583D01*
X113242471Y-93095100D01*
X113153499Y-93228257D01*
X113040257Y-93341499D01*
X113020425Y-93354750D01*
X112907102Y-93430470D01*
X112759142Y-93491758D01*
X112602075Y-93523000D01*
X112441925Y-93523000D01*
X112284858Y-93491758D01*
X112136898Y-93430470D01*
X112023575Y-93354750D01*
X112003743Y-93341499D01*
X111890501Y-93228257D01*
X111801529Y-93095100D01*
X111787646Y-93061583D01*
X111740242Y-92947142D01*
X111709000Y-92790075D01*
X111709000Y-92629925D01*
X111740242Y-92472858D01*
X111801530Y-92324898D01*
X111890502Y-92191742D01*
X112003742Y-92078502D01*
X112136898Y-91989530D01*
X112284858Y-91928242D01*
X112441925Y-91897000D01*
X112602075Y-91897000D01*
X112759142Y-91928242D01*
X112759142Y-91928242D01*
G37*
G36*
X110219142Y-91928242D02*
X110367102Y-91989530D01*
X110500258Y-92078502D01*
X110613498Y-92191742D01*
X110702470Y-92324898D01*
X110763758Y-92472858D01*
X110795000Y-92629925D01*
X110795000Y-92790075D01*
X110763758Y-92947142D01*
X110716354Y-93061583D01*
X110702471Y-93095100D01*
X110613499Y-93228257D01*
X110500257Y-93341499D01*
X110480425Y-93354750D01*
X110367102Y-93430470D01*
X110219142Y-93491758D01*
X110062075Y-93523000D01*
X109901925Y-93523000D01*
X109744858Y-93491758D01*
X109596898Y-93430470D01*
X109483575Y-93354750D01*
X109463743Y-93341499D01*
X109350501Y-93228257D01*
X109261529Y-93095100D01*
X109247646Y-93061583D01*
X109200242Y-92947142D01*
X109169000Y-92790075D01*
X109169000Y-92629925D01*
X109200242Y-92472858D01*
X109261530Y-92324898D01*
X109350502Y-92191742D01*
X109463742Y-92078502D01*
X109596898Y-91989530D01*
X109744858Y-91928242D01*
X109901925Y-91897000D01*
X110062075Y-91897000D01*
X110219142Y-91928242D01*
X110219142Y-91928242D01*
G37*
G36*
X107679142Y-91928242D02*
X107827102Y-91989530D01*
X107960258Y-92078502D01*
X108073498Y-92191742D01*
X108162470Y-92324898D01*
X108223758Y-92472858D01*
X108255000Y-92629925D01*
X108255000Y-92790075D01*
X108223758Y-92947142D01*
X108176354Y-93061583D01*
X108162471Y-93095100D01*
X108073499Y-93228257D01*
X107960257Y-93341499D01*
X107940425Y-93354750D01*
X107827102Y-93430470D01*
X107679142Y-93491758D01*
X107522075Y-93523000D01*
X107361925Y-93523000D01*
X107204858Y-93491758D01*
X107056898Y-93430470D01*
X106943575Y-93354750D01*
X106923743Y-93341499D01*
X106810501Y-93228257D01*
X106721529Y-93095100D01*
X106707646Y-93061583D01*
X106660242Y-92947142D01*
X106629000Y-92790075D01*
X106629000Y-92629925D01*
X106660242Y-92472858D01*
X106721530Y-92324898D01*
X106810502Y-92191742D01*
X106923742Y-92078502D01*
X107056898Y-91989530D01*
X107204858Y-91928242D01*
X107361925Y-91897000D01*
X107522075Y-91897000D01*
X107679142Y-91928242D01*
X107679142Y-91928242D01*
G37*
G36*
X105139142Y-91928242D02*
X105287102Y-91989530D01*
X105420258Y-92078502D01*
X105533498Y-92191742D01*
X105622470Y-92324898D01*
X105683758Y-92472858D01*
X105715000Y-92629925D01*
X105715000Y-92790075D01*
X105683758Y-92947142D01*
X105636354Y-93061583D01*
X105622471Y-93095100D01*
X105533499Y-93228257D01*
X105420257Y-93341499D01*
X105400425Y-93354750D01*
X105287102Y-93430470D01*
X105139142Y-93491758D01*
X104982075Y-93523000D01*
X104821925Y-93523000D01*
X104664858Y-93491758D01*
X104516898Y-93430470D01*
X104403575Y-93354750D01*
X104383743Y-93341499D01*
X104270501Y-93228257D01*
X104181529Y-93095100D01*
X104167646Y-93061583D01*
X104120242Y-92947142D01*
X104089000Y-92790075D01*
X104089000Y-92629925D01*
X104120242Y-92472858D01*
X104181530Y-92324898D01*
X104270502Y-92191742D01*
X104383742Y-92078502D01*
X104516898Y-91989530D01*
X104664858Y-91928242D01*
X104821925Y-91897000D01*
X104982075Y-91897000D01*
X105139142Y-91928242D01*
X105139142Y-91928242D01*
G37*
G36*
X125459142Y-91928242D02*
X125607102Y-91989530D01*
X125740258Y-92078502D01*
X125853498Y-92191742D01*
X125942470Y-92324898D01*
X126003758Y-92472858D01*
X126035000Y-92629925D01*
X126035000Y-92790075D01*
X126003758Y-92947142D01*
X125956354Y-93061583D01*
X125942471Y-93095100D01*
X125853499Y-93228257D01*
X125740257Y-93341499D01*
X125720425Y-93354750D01*
X125607102Y-93430470D01*
X125459142Y-93491758D01*
X125302075Y-93523000D01*
X125141925Y-93523000D01*
X124984858Y-93491758D01*
X124836898Y-93430470D01*
X124723575Y-93354750D01*
X124703743Y-93341499D01*
X124590501Y-93228257D01*
X124501529Y-93095100D01*
X124487646Y-93061583D01*
X124440242Y-92947142D01*
X124409000Y-92790075D01*
X124409000Y-92629925D01*
X124440242Y-92472858D01*
X124501530Y-92324898D01*
X124590502Y-92191742D01*
X124703742Y-92078502D01*
X124836898Y-91989530D01*
X124984858Y-91928242D01*
X125141925Y-91897000D01*
X125302075Y-91897000D01*
X125459142Y-91928242D01*
X125459142Y-91928242D01*
G37*
G36*
X130539142Y-91928242D02*
X130687102Y-91989530D01*
X130820258Y-92078502D01*
X130933498Y-92191742D01*
X131022470Y-92324898D01*
X131083758Y-92472858D01*
X131115000Y-92629925D01*
X131115000Y-92790075D01*
X131083758Y-92947142D01*
X131036354Y-93061583D01*
X131022471Y-93095100D01*
X130933499Y-93228257D01*
X130820257Y-93341499D01*
X130800425Y-93354750D01*
X130687102Y-93430470D01*
X130539142Y-93491758D01*
X130382075Y-93523000D01*
X130221925Y-93523000D01*
X130064858Y-93491758D01*
X129916898Y-93430470D01*
X129803575Y-93354750D01*
X129783743Y-93341499D01*
X129670501Y-93228257D01*
X129581529Y-93095100D01*
X129567646Y-93061583D01*
X129520242Y-92947142D01*
X129489000Y-92790075D01*
X129489000Y-92629925D01*
X129520242Y-92472858D01*
X129581530Y-92324898D01*
X129670502Y-92191742D01*
X129783742Y-92078502D01*
X129916898Y-91989530D01*
X130064858Y-91928242D01*
X130221925Y-91897000D01*
X130382075Y-91897000D01*
X130539142Y-91928242D01*
X130539142Y-91928242D01*
G37*
G36*
X133079142Y-91928242D02*
X133227102Y-91989530D01*
X133360258Y-92078502D01*
X133473498Y-92191742D01*
X133562470Y-92324898D01*
X133623758Y-92472858D01*
X133655000Y-92629925D01*
X133655000Y-92790075D01*
X133623758Y-92947142D01*
X133576354Y-93061583D01*
X133562471Y-93095100D01*
X133473499Y-93228257D01*
X133360257Y-93341499D01*
X133340425Y-93354750D01*
X133227102Y-93430470D01*
X133079142Y-93491758D01*
X132922075Y-93523000D01*
X132761925Y-93523000D01*
X132604858Y-93491758D01*
X132456898Y-93430470D01*
X132343575Y-93354750D01*
X132323743Y-93341499D01*
X132210501Y-93228257D01*
X132121529Y-93095100D01*
X132107646Y-93061583D01*
X132060242Y-92947142D01*
X132029000Y-92790075D01*
X132029000Y-92629925D01*
X132060242Y-92472858D01*
X132121530Y-92324898D01*
X132210502Y-92191742D01*
X132323742Y-92078502D01*
X132456898Y-91989530D01*
X132604858Y-91928242D01*
X132761925Y-91897000D01*
X132922075Y-91897000D01*
X133079142Y-91928242D01*
X133079142Y-91928242D01*
G37*
G36*
X135619142Y-91928242D02*
X135767102Y-91989530D01*
X135900258Y-92078502D01*
X136013498Y-92191742D01*
X136102470Y-92324898D01*
X136163758Y-92472858D01*
X136195000Y-92629925D01*
X136195000Y-92790075D01*
X136163758Y-92947142D01*
X136116354Y-93061583D01*
X136102471Y-93095100D01*
X136013499Y-93228257D01*
X135900257Y-93341499D01*
X135880425Y-93354750D01*
X135767102Y-93430470D01*
X135619142Y-93491758D01*
X135462075Y-93523000D01*
X135301925Y-93523000D01*
X135144858Y-93491758D01*
X134996898Y-93430470D01*
X134883575Y-93354750D01*
X134863743Y-93341499D01*
X134750501Y-93228257D01*
X134661529Y-93095100D01*
X134647646Y-93061583D01*
X134600242Y-92947142D01*
X134569000Y-92790075D01*
X134569000Y-92629925D01*
X134600242Y-92472858D01*
X134661530Y-92324898D01*
X134750502Y-92191742D01*
X134863742Y-92078502D01*
X134996898Y-91989530D01*
X135144858Y-91928242D01*
X135301925Y-91897000D01*
X135462075Y-91897000D01*
X135619142Y-91928242D01*
X135619142Y-91928242D01*
G37*
G36*
X138159142Y-91928242D02*
X138307102Y-91989530D01*
X138440258Y-92078502D01*
X138553498Y-92191742D01*
X138642470Y-92324898D01*
X138703758Y-92472858D01*
X138735000Y-92629925D01*
X138735000Y-92790075D01*
X138703758Y-92947142D01*
X138656354Y-93061583D01*
X138642471Y-93095100D01*
X138553499Y-93228257D01*
X138440257Y-93341499D01*
X138420425Y-93354750D01*
X138307102Y-93430470D01*
X138159142Y-93491758D01*
X138002075Y-93523000D01*
X137841925Y-93523000D01*
X137684858Y-93491758D01*
X137536898Y-93430470D01*
X137423575Y-93354750D01*
X137403743Y-93341499D01*
X137290501Y-93228257D01*
X137201529Y-93095100D01*
X137187646Y-93061583D01*
X137140242Y-92947142D01*
X137109000Y-92790075D01*
X137109000Y-92629925D01*
X137140242Y-92472858D01*
X137201530Y-92324898D01*
X137290502Y-92191742D01*
X137403742Y-92078502D01*
X137536898Y-91989530D01*
X137684858Y-91928242D01*
X137841925Y-91897000D01*
X138002075Y-91897000D01*
X138159142Y-91928242D01*
X138159142Y-91928242D01*
G37*
G36*
X97519142Y-91928242D02*
X97667102Y-91989530D01*
X97800258Y-92078502D01*
X97913498Y-92191742D01*
X98002470Y-92324898D01*
X98063758Y-92472858D01*
X98095000Y-92629925D01*
X98095000Y-92790075D01*
X98063758Y-92947142D01*
X98016354Y-93061583D01*
X98002471Y-93095100D01*
X97913499Y-93228257D01*
X97800257Y-93341499D01*
X97780425Y-93354750D01*
X97667102Y-93430470D01*
X97519142Y-93491758D01*
X97362075Y-93523000D01*
X97201925Y-93523000D01*
X97044858Y-93491758D01*
X96896898Y-93430470D01*
X96783575Y-93354750D01*
X96763743Y-93341499D01*
X96650501Y-93228257D01*
X96561529Y-93095100D01*
X96547646Y-93061583D01*
X96500242Y-92947142D01*
X96469000Y-92790075D01*
X96469000Y-92629925D01*
X96500242Y-92472858D01*
X96561530Y-92324898D01*
X96650502Y-92191742D01*
X96763742Y-92078502D01*
X96896898Y-91989530D01*
X97044858Y-91928242D01*
X97201925Y-91897000D01*
X97362075Y-91897000D01*
X97519142Y-91928242D01*
X97519142Y-91928242D01*
G37*
G36*
X100059142Y-91928242D02*
X100207102Y-91989530D01*
X100340258Y-92078502D01*
X100453498Y-92191742D01*
X100542470Y-92324898D01*
X100603758Y-92472858D01*
X100635000Y-92629925D01*
X100635000Y-92790075D01*
X100603758Y-92947142D01*
X100556354Y-93061583D01*
X100542471Y-93095100D01*
X100453499Y-93228257D01*
X100340257Y-93341499D01*
X100320425Y-93354750D01*
X100207102Y-93430470D01*
X100059142Y-93491758D01*
X99902075Y-93523000D01*
X99741925Y-93523000D01*
X99584858Y-93491758D01*
X99436898Y-93430470D01*
X99323575Y-93354750D01*
X99303743Y-93341499D01*
X99190501Y-93228257D01*
X99101529Y-93095100D01*
X99087646Y-93061583D01*
X99040242Y-92947142D01*
X99009000Y-92790075D01*
X99009000Y-92629925D01*
X99040242Y-92472858D01*
X99101530Y-92324898D01*
X99190502Y-92191742D01*
X99303742Y-92078502D01*
X99436898Y-91989530D01*
X99584858Y-91928242D01*
X99741925Y-91897000D01*
X99902075Y-91897000D01*
X100059142Y-91928242D01*
X100059142Y-91928242D01*
G37*
G36*
X102599142Y-91928242D02*
X102747102Y-91989530D01*
X102880258Y-92078502D01*
X102993498Y-92191742D01*
X103082470Y-92324898D01*
X103143758Y-92472858D01*
X103175000Y-92629925D01*
X103175000Y-92790075D01*
X103143758Y-92947142D01*
X103096354Y-93061583D01*
X103082471Y-93095100D01*
X102993499Y-93228257D01*
X102880257Y-93341499D01*
X102860425Y-93354750D01*
X102747102Y-93430470D01*
X102599142Y-93491758D01*
X102442075Y-93523000D01*
X102281925Y-93523000D01*
X102124858Y-93491758D01*
X101976898Y-93430470D01*
X101863575Y-93354750D01*
X101843743Y-93341499D01*
X101730501Y-93228257D01*
X101641529Y-93095100D01*
X101627646Y-93061583D01*
X101580242Y-92947142D01*
X101549000Y-92790075D01*
X101549000Y-92629925D01*
X101580242Y-92472858D01*
X101641530Y-92324898D01*
X101730502Y-92191742D01*
X101843742Y-92078502D01*
X101976898Y-91989530D01*
X102124858Y-91928242D01*
X102281925Y-91897000D01*
X102442075Y-91897000D01*
X102599142Y-91928242D01*
X102599142Y-91928242D01*
G37*
G36*
X95555000Y-93523000D02*
X93929000Y-93523000D01*
X93929000Y-91897000D01*
X95555000Y-91897000D01*
X95555000Y-93523000D01*
X95555000Y-93523000D01*
G37*
G36*
X140699142Y-91928242D02*
X140847102Y-91989530D01*
X140980258Y-92078502D01*
X141093498Y-92191742D01*
X141182470Y-92324898D01*
X141243758Y-92472858D01*
X141275000Y-92629925D01*
X141275000Y-92790075D01*
X141243758Y-92947142D01*
X141196354Y-93061583D01*
X141182471Y-93095100D01*
X141093499Y-93228257D01*
X140980257Y-93341499D01*
X140960425Y-93354750D01*
X140847102Y-93430470D01*
X140699142Y-93491758D01*
X140542075Y-93523000D01*
X140381925Y-93523000D01*
X140224858Y-93491758D01*
X140076898Y-93430470D01*
X139963575Y-93354750D01*
X139943743Y-93341499D01*
X139830501Y-93228257D01*
X139741529Y-93095100D01*
X139727646Y-93061583D01*
X139680242Y-92947142D01*
X139649000Y-92790075D01*
X139649000Y-92629925D01*
X139680242Y-92472858D01*
X139741530Y-92324898D01*
X139830502Y-92191742D01*
X139943742Y-92078502D01*
X140076898Y-91989530D01*
X140224858Y-91928242D01*
X140381925Y-91897000D01*
X140542075Y-91897000D01*
X140699142Y-91928242D01*
X140699142Y-91928242D01*
G37*
G36*
X127999142Y-91928242D02*
X128147102Y-91989530D01*
X128280258Y-92078502D01*
X128393498Y-92191742D01*
X128482470Y-92324898D01*
X128543758Y-92472858D01*
X128575000Y-92629925D01*
X128575000Y-92790075D01*
X128543758Y-92947142D01*
X128496354Y-93061583D01*
X128482471Y-93095100D01*
X128393499Y-93228257D01*
X128280257Y-93341499D01*
X128260425Y-93354750D01*
X128147102Y-93430470D01*
X127999142Y-93491758D01*
X127842075Y-93523000D01*
X127681925Y-93523000D01*
X127524858Y-93491758D01*
X127376898Y-93430470D01*
X127263575Y-93354750D01*
X127243743Y-93341499D01*
X127130501Y-93228257D01*
X127041529Y-93095100D01*
X127027646Y-93061583D01*
X126980242Y-92947142D01*
X126949000Y-92790075D01*
X126949000Y-92629925D01*
X126980242Y-92472858D01*
X127041530Y-92324898D01*
X127130502Y-92191742D01*
X127243742Y-92078502D01*
X127376898Y-91989530D01*
X127524858Y-91928242D01*
X127681925Y-91897000D01*
X127842075Y-91897000D01*
X127999142Y-91928242D01*
X127999142Y-91928242D01*
G37*
G36*
X188153000Y-91973000D02*
X186751000Y-91973000D01*
X186751000Y-91171000D01*
X188153000Y-91171000D01*
X188153000Y-91973000D01*
X188153000Y-91973000D01*
G37*
G36*
X103403000Y-90617000D02*
X102601000Y-90617000D01*
X102601000Y-89215000D01*
X103403000Y-89215000D01*
X103403000Y-90617000D01*
X103403000Y-90617000D01*
G37*
G36*
X105303000Y-90617000D02*
X104501000Y-90617000D01*
X104501000Y-89215000D01*
X105303000Y-89215000D01*
X105303000Y-90617000D01*
X105303000Y-90617000D01*
G37*
G36*
X106827000Y-90617000D02*
X106025000Y-90617000D01*
X106025000Y-89215000D01*
X106827000Y-89215000D01*
X106827000Y-90617000D01*
X106827000Y-90617000D01*
G37*
G36*
X108727000Y-90617000D02*
X107925000Y-90617000D01*
X107925000Y-89215000D01*
X108727000Y-89215000D01*
X108727000Y-90617000D01*
X108727000Y-90617000D01*
G37*
G36*
X110549000Y-90592000D02*
X109447000Y-90592000D01*
X109447000Y-89240000D01*
X110549000Y-89240000D01*
X110549000Y-90592000D01*
X110549000Y-90592000D01*
G37*
G36*
X112549000Y-90592000D02*
X111447000Y-90592000D01*
X111447000Y-89240000D01*
X112549000Y-89240000D01*
X112549000Y-90592000D01*
X112549000Y-90592000D01*
G37*
G36*
X87682565Y-88071389D02*
X87873834Y-88150615D01*
X88045976Y-88265637D01*
X88192363Y-88412024D01*
X88307385Y-88584166D01*
X88386611Y-88775435D01*
X88427000Y-88978484D01*
X88427000Y-89185516D01*
X88386611Y-89388565D01*
X88307385Y-89579834D01*
X88192363Y-89751976D01*
X88045976Y-89898363D01*
X87873834Y-90013385D01*
X87682565Y-90092611D01*
X87479516Y-90133000D01*
X87272484Y-90133000D01*
X87069435Y-90092611D01*
X86878166Y-90013385D01*
X86706024Y-89898363D01*
X86559637Y-89751976D01*
X86444615Y-89579834D01*
X86365389Y-89388565D01*
X86325000Y-89185516D01*
X86325000Y-88978484D01*
X86365389Y-88775435D01*
X86444615Y-88584166D01*
X86559637Y-88412024D01*
X86706024Y-88265637D01*
X86878166Y-88150615D01*
X87069435Y-88071389D01*
X87272484Y-88031000D01*
X87479516Y-88031000D01*
X87682565Y-88071389D01*
X87682565Y-88071389D01*
G37*
G36*
X81182565Y-88071389D02*
X81373834Y-88150615D01*
X81545976Y-88265637D01*
X81692363Y-88412024D01*
X81807385Y-88584166D01*
X81886611Y-88775435D01*
X81927000Y-88978484D01*
X81927000Y-89185516D01*
X81886611Y-89388565D01*
X81807385Y-89579834D01*
X81692363Y-89751976D01*
X81545976Y-89898363D01*
X81373834Y-90013385D01*
X81182565Y-90092611D01*
X80979516Y-90133000D01*
X80772484Y-90133000D01*
X80569435Y-90092611D01*
X80378166Y-90013385D01*
X80206024Y-89898363D01*
X80059637Y-89751976D01*
X79944615Y-89579834D01*
X79865389Y-89388565D01*
X79825000Y-89185516D01*
X79825000Y-88978484D01*
X79865389Y-88775435D01*
X79944615Y-88584166D01*
X80059637Y-88412024D01*
X80206024Y-88265637D01*
X80378166Y-88150615D01*
X80569435Y-88071389D01*
X80772484Y-88031000D01*
X80979516Y-88031000D01*
X81182565Y-88071389D01*
X81182565Y-88071389D01*
G37*
G36*
X130724000Y-89943000D02*
X129372000Y-89943000D01*
X129372000Y-88841000D01*
X130724000Y-88841000D01*
X130724000Y-89943000D01*
X130724000Y-89943000D01*
G37*
G36*
X206329734Y-87031232D02*
X206539202Y-87117996D01*
X206727723Y-87243962D01*
X206888038Y-87404277D01*
X207014004Y-87592798D01*
X207100768Y-87802266D01*
X207145000Y-88024635D01*
X207145000Y-88251365D01*
X207100768Y-88473734D01*
X207014004Y-88683202D01*
X206888038Y-88871723D01*
X206727723Y-89032038D01*
X206539202Y-89158004D01*
X206329734Y-89244768D01*
X206107365Y-89289000D01*
X205880635Y-89289000D01*
X205658266Y-89244768D01*
X205448798Y-89158004D01*
X205260277Y-89032038D01*
X205099962Y-88871723D01*
X204973996Y-88683202D01*
X204887232Y-88473734D01*
X204843000Y-88251365D01*
X204843000Y-88024635D01*
X204887232Y-87802266D01*
X204973996Y-87592798D01*
X205099962Y-87404277D01*
X205260277Y-87243962D01*
X205448798Y-87117996D01*
X205658266Y-87031232D01*
X205880635Y-86987000D01*
X206107365Y-86987000D01*
X206329734Y-87031232D01*
X206329734Y-87031232D01*
G37*
G36*
X201249734Y-87031232D02*
X201459202Y-87117996D01*
X201647723Y-87243962D01*
X201808038Y-87404277D01*
X201934004Y-87592798D01*
X202020768Y-87802266D01*
X202065000Y-88024635D01*
X202065000Y-88251365D01*
X202020768Y-88473734D01*
X201934004Y-88683202D01*
X201808038Y-88871723D01*
X201647723Y-89032038D01*
X201459202Y-89158004D01*
X201249734Y-89244768D01*
X201027365Y-89289000D01*
X200800635Y-89289000D01*
X200578266Y-89244768D01*
X200368798Y-89158004D01*
X200180277Y-89032038D01*
X200019962Y-88871723D01*
X199893996Y-88683202D01*
X199807232Y-88473734D01*
X199763000Y-88251365D01*
X199763000Y-88024635D01*
X199807232Y-87802266D01*
X199893996Y-87592798D01*
X200019962Y-87404277D01*
X200180277Y-87243962D01*
X200368798Y-87117996D01*
X200578266Y-87031232D01*
X200800635Y-86987000D01*
X201027365Y-86987000D01*
X201249734Y-87031232D01*
X201249734Y-87031232D01*
G37*
G36*
X134767000Y-88331000D02*
X133965000Y-88331000D01*
X133965000Y-86929000D01*
X134767000Y-86929000D01*
X134767000Y-88331000D01*
X134767000Y-88331000D01*
G37*
G36*
X136667000Y-88331000D02*
X135865000Y-88331000D01*
X135865000Y-86929000D01*
X136667000Y-86929000D01*
X136667000Y-88331000D01*
X136667000Y-88331000D01*
G37*
G36*
X173021495Y-85025515D02*
X173121378Y-85045383D01*
X173403642Y-85162300D01*
X173657673Y-85332038D01*
X173873709Y-85548074D01*
X174043447Y-85802105D01*
X174160364Y-86084369D01*
X174219968Y-86384019D01*
X174219968Y-86689539D01*
X174160364Y-86989189D01*
X174043447Y-87271453D01*
X173873709Y-87525484D01*
X173657673Y-87741520D01*
X173403642Y-87911258D01*
X173121378Y-88028175D01*
X173021495Y-88048043D01*
X172821730Y-88087779D01*
X172516206Y-88087779D01*
X172316441Y-88048043D01*
X172216558Y-88028175D01*
X171934294Y-87911258D01*
X171680263Y-87741520D01*
X171464227Y-87525484D01*
X171294489Y-87271453D01*
X171177572Y-86989189D01*
X171117968Y-86689539D01*
X171117968Y-86384019D01*
X171177572Y-86084369D01*
X171294489Y-85802105D01*
X171464227Y-85548074D01*
X171680263Y-85332038D01*
X171934294Y-85162300D01*
X172216558Y-85045383D01*
X172316441Y-85025515D01*
X172516206Y-84985779D01*
X172821730Y-84985779D01*
X173021495Y-85025515D01*
X173021495Y-85025515D01*
G37*
G36*
X193321495Y-85025515D02*
X193421378Y-85045383D01*
X193703642Y-85162300D01*
X193957673Y-85332038D01*
X194173709Y-85548074D01*
X194343447Y-85802105D01*
X194460364Y-86084369D01*
X194519968Y-86384019D01*
X194519968Y-86689539D01*
X194460364Y-86989189D01*
X194343447Y-87271453D01*
X194173709Y-87525484D01*
X193957673Y-87741520D01*
X193703642Y-87911258D01*
X193421378Y-88028175D01*
X193321495Y-88048043D01*
X193121730Y-88087779D01*
X192816206Y-88087779D01*
X192616441Y-88048043D01*
X192516558Y-88028175D01*
X192234294Y-87911258D01*
X191980263Y-87741520D01*
X191764227Y-87525484D01*
X191594489Y-87271453D01*
X191477572Y-86989189D01*
X191417968Y-86689539D01*
X191417968Y-86384019D01*
X191477572Y-86084369D01*
X191594489Y-85802105D01*
X191764227Y-85548074D01*
X191980263Y-85332038D01*
X192234294Y-85162300D01*
X192516558Y-85045383D01*
X192616441Y-85025515D01*
X192816206Y-84985779D01*
X193121730Y-84985779D01*
X193321495Y-85025515D01*
X193321495Y-85025515D01*
G37*
G36*
X152721495Y-85025515D02*
X152821378Y-85045383D01*
X153103642Y-85162300D01*
X153357673Y-85332038D01*
X153573709Y-85548074D01*
X153743447Y-85802105D01*
X153860364Y-86084369D01*
X153919968Y-86384019D01*
X153919968Y-86689539D01*
X153860364Y-86989189D01*
X153743447Y-87271453D01*
X153573709Y-87525484D01*
X153357673Y-87741520D01*
X153103642Y-87911258D01*
X152821378Y-88028175D01*
X152721495Y-88048043D01*
X152521730Y-88087779D01*
X152216206Y-88087779D01*
X152016441Y-88048043D01*
X151916558Y-88028175D01*
X151634294Y-87911258D01*
X151380263Y-87741520D01*
X151164227Y-87525484D01*
X150994489Y-87271453D01*
X150877572Y-86989189D01*
X150817968Y-86689539D01*
X150817968Y-86384019D01*
X150877572Y-86084369D01*
X150994489Y-85802105D01*
X151164227Y-85548074D01*
X151380263Y-85332038D01*
X151634294Y-85162300D01*
X151916558Y-85045383D01*
X152016441Y-85025515D01*
X152216206Y-84985779D01*
X152521730Y-84985779D01*
X152721495Y-85025515D01*
X152721495Y-85025515D01*
G37*
G36*
X198513000Y-88057000D02*
X196711000Y-88057000D01*
X196711000Y-87055000D01*
X198513000Y-87055000D01*
X198513000Y-88057000D01*
X198513000Y-88057000D01*
G37*
G36*
X130724000Y-87943000D02*
X129372000Y-87943000D01*
X129372000Y-86841000D01*
X130724000Y-86841000D01*
X130724000Y-87943000D01*
X130724000Y-87943000D01*
G37*
G36*
X110515000Y-87823000D02*
X109713000Y-87823000D01*
X109713000Y-86421000D01*
X110515000Y-86421000D01*
X110515000Y-87823000D01*
X110515000Y-87823000D01*
G37*
G36*
X115717000Y-87823000D02*
X114915000Y-87823000D01*
X114915000Y-86421000D01*
X115717000Y-86421000D01*
X115717000Y-87823000D01*
X115717000Y-87823000D01*
G37*
G36*
X113817000Y-87823000D02*
X113015000Y-87823000D01*
X113015000Y-86421000D01*
X113817000Y-86421000D01*
X113817000Y-87823000D01*
X113817000Y-87823000D01*
G37*
G36*
X112415000Y-87823000D02*
X111613000Y-87823000D01*
X111613000Y-86421000D01*
X112415000Y-86421000D01*
X112415000Y-87823000D01*
X112415000Y-87823000D01*
G37*
G36*
X203760565Y-84587389D02*
X203951834Y-84666615D01*
X204123976Y-84781637D01*
X204270363Y-84928024D01*
X204385385Y-85100166D01*
X204464611Y-85291435D01*
X204505000Y-85494484D01*
X204505000Y-85701516D01*
X204464611Y-85904565D01*
X204385385Y-86095834D01*
X204270363Y-86267976D01*
X204123976Y-86414363D01*
X203951834Y-86529385D01*
X203760565Y-86608611D01*
X203557516Y-86649000D01*
X203350484Y-86649000D01*
X203147435Y-86608611D01*
X202956166Y-86529385D01*
X202784024Y-86414363D01*
X202637637Y-86267976D01*
X202522615Y-86095834D01*
X202443389Y-85904565D01*
X202403000Y-85701516D01*
X202403000Y-85494484D01*
X202443389Y-85291435D01*
X202522615Y-85100166D01*
X202637637Y-84928024D01*
X202784024Y-84781637D01*
X202956166Y-84666615D01*
X203147435Y-84587389D01*
X203350484Y-84547000D01*
X203557516Y-84547000D01*
X203760565Y-84587389D01*
X203760565Y-84587389D01*
G37*
G36*
X87682565Y-83571389D02*
X87873834Y-83650615D01*
X88045976Y-83765637D01*
X88192363Y-83912024D01*
X88307385Y-84084166D01*
X88386611Y-84275435D01*
X88427000Y-84478484D01*
X88427000Y-84685516D01*
X88386611Y-84888565D01*
X88307385Y-85079834D01*
X88192363Y-85251976D01*
X88045976Y-85398363D01*
X87873834Y-85513385D01*
X87682565Y-85592611D01*
X87479516Y-85633000D01*
X87272484Y-85633000D01*
X87069435Y-85592611D01*
X86878166Y-85513385D01*
X86706024Y-85398363D01*
X86559637Y-85251976D01*
X86444615Y-85079834D01*
X86365389Y-84888565D01*
X86325000Y-84685516D01*
X86325000Y-84478484D01*
X86365389Y-84275435D01*
X86444615Y-84084166D01*
X86559637Y-83912024D01*
X86706024Y-83765637D01*
X86878166Y-83650615D01*
X87069435Y-83571389D01*
X87272484Y-83531000D01*
X87479516Y-83531000D01*
X87682565Y-83571389D01*
X87682565Y-83571389D01*
G37*
G36*
X81182565Y-83571389D02*
X81373834Y-83650615D01*
X81545976Y-83765637D01*
X81692363Y-83912024D01*
X81807385Y-84084166D01*
X81886611Y-84275435D01*
X81927000Y-84478484D01*
X81927000Y-84685516D01*
X81886611Y-84888565D01*
X81807385Y-85079834D01*
X81692363Y-85251976D01*
X81545976Y-85398363D01*
X81373834Y-85513385D01*
X81182565Y-85592611D01*
X80979516Y-85633000D01*
X80772484Y-85633000D01*
X80569435Y-85592611D01*
X80378166Y-85513385D01*
X80206024Y-85398363D01*
X80059637Y-85251976D01*
X79944615Y-85079834D01*
X79865389Y-84888565D01*
X79825000Y-84685516D01*
X79825000Y-84478484D01*
X79865389Y-84275435D01*
X79944615Y-84084166D01*
X80059637Y-83912024D01*
X80206024Y-83765637D01*
X80378166Y-83650615D01*
X80569435Y-83571389D01*
X80772484Y-83531000D01*
X80979516Y-83531000D01*
X81182565Y-83571389D01*
X81182565Y-83571389D01*
G37*
G36*
X110953168Y-82768439D02*
X111154299Y-82829451D01*
X111186899Y-82846876D01*
X111339662Y-82928529D01*
X111502133Y-83061867D01*
X111635471Y-83224338D01*
X111717123Y-83377101D01*
X111734549Y-83409702D01*
X111795561Y-83610833D01*
X111795561Y-83610836D01*
X111810808Y-83765635D01*
X111811000Y-83767590D01*
X111811000Y-84380411D01*
X111795561Y-84537168D01*
X111734549Y-84738299D01*
X111734546Y-84738304D01*
X111635471Y-84923662D01*
X111502133Y-85086133D01*
X111339661Y-85219471D01*
X111205025Y-85291435D01*
X111154298Y-85318549D01*
X110953167Y-85379561D01*
X110744000Y-85400162D01*
X110534832Y-85379561D01*
X110333701Y-85318549D01*
X110301101Y-85301124D01*
X110148338Y-85219471D01*
X109985867Y-85086133D01*
X109852529Y-84923661D01*
X109776615Y-84781635D01*
X109753451Y-84738298D01*
X109692439Y-84537167D01*
X109677000Y-84380410D01*
X109677000Y-83767589D01*
X109692439Y-83610832D01*
X109753451Y-83409701D01*
X109799572Y-83323417D01*
X109852531Y-83224337D01*
X109985868Y-83061867D01*
X110148339Y-82928529D01*
X110301102Y-82846876D01*
X110333702Y-82829451D01*
X110534833Y-82768439D01*
X110744000Y-82747838D01*
X110953168Y-82768439D01*
X110953168Y-82768439D01*
G37*
G36*
X134321168Y-82768439D02*
X134522299Y-82829451D01*
X134554899Y-82846876D01*
X134707662Y-82928529D01*
X134870133Y-83061867D01*
X135003471Y-83224338D01*
X135085123Y-83377101D01*
X135102549Y-83409702D01*
X135163561Y-83610833D01*
X135163561Y-83610836D01*
X135178808Y-83765635D01*
X135179000Y-83767590D01*
X135179000Y-84380411D01*
X135163561Y-84537168D01*
X135102549Y-84738299D01*
X135102546Y-84738304D01*
X135003471Y-84923662D01*
X134870133Y-85086133D01*
X134707661Y-85219471D01*
X134573025Y-85291435D01*
X134522298Y-85318549D01*
X134321167Y-85379561D01*
X134112000Y-85400162D01*
X133902832Y-85379561D01*
X133701701Y-85318549D01*
X133669101Y-85301124D01*
X133516338Y-85219471D01*
X133353867Y-85086133D01*
X133220529Y-84923661D01*
X133144615Y-84781635D01*
X133121451Y-84738298D01*
X133060439Y-84537167D01*
X133045000Y-84380410D01*
X133045000Y-83767589D01*
X133060439Y-83610832D01*
X133121451Y-83409701D01*
X133167572Y-83323417D01*
X133220531Y-83224337D01*
X133353868Y-83061867D01*
X133516339Y-82928529D01*
X133669102Y-82846876D01*
X133701702Y-82829451D01*
X133902833Y-82768439D01*
X134112000Y-82747838D01*
X134321168Y-82768439D01*
X134321168Y-82768439D01*
G37*
G36*
X131781168Y-82768439D02*
X131982299Y-82829451D01*
X132014899Y-82846876D01*
X132167662Y-82928529D01*
X132330133Y-83061867D01*
X132463471Y-83224338D01*
X132545123Y-83377101D01*
X132562549Y-83409702D01*
X132623561Y-83610833D01*
X132623561Y-83610836D01*
X132638808Y-83765635D01*
X132639000Y-83767590D01*
X132639000Y-84380411D01*
X132623561Y-84537168D01*
X132562549Y-84738299D01*
X132562546Y-84738304D01*
X132463471Y-84923662D01*
X132330133Y-85086133D01*
X132167661Y-85219471D01*
X132033025Y-85291435D01*
X131982298Y-85318549D01*
X131781167Y-85379561D01*
X131572000Y-85400162D01*
X131362832Y-85379561D01*
X131161701Y-85318549D01*
X131129101Y-85301124D01*
X130976338Y-85219471D01*
X130813867Y-85086133D01*
X130680529Y-84923661D01*
X130604615Y-84781635D01*
X130581451Y-84738298D01*
X130520439Y-84537167D01*
X130505000Y-84380410D01*
X130505000Y-83767589D01*
X130520439Y-83610832D01*
X130581451Y-83409701D01*
X130627572Y-83323417D01*
X130680531Y-83224337D01*
X130813868Y-83061867D01*
X130976339Y-82928529D01*
X131129102Y-82846876D01*
X131161702Y-82829451D01*
X131362833Y-82768439D01*
X131572000Y-82747838D01*
X131781168Y-82768439D01*
X131781168Y-82768439D01*
G37*
G36*
X136861168Y-82768439D02*
X137062299Y-82829451D01*
X137094899Y-82846876D01*
X137247662Y-82928529D01*
X137410133Y-83061867D01*
X137543471Y-83224338D01*
X137625123Y-83377101D01*
X137642549Y-83409702D01*
X137703561Y-83610833D01*
X137703561Y-83610836D01*
X137718808Y-83765635D01*
X137719000Y-83767590D01*
X137719000Y-84380411D01*
X137703561Y-84537168D01*
X137642549Y-84738299D01*
X137642546Y-84738304D01*
X137543471Y-84923662D01*
X137410133Y-85086133D01*
X137247661Y-85219471D01*
X137113025Y-85291435D01*
X137062298Y-85318549D01*
X136861167Y-85379561D01*
X136652000Y-85400162D01*
X136442832Y-85379561D01*
X136241701Y-85318549D01*
X136209101Y-85301124D01*
X136056338Y-85219471D01*
X135893867Y-85086133D01*
X135760529Y-84923661D01*
X135684615Y-84781635D01*
X135661451Y-84738298D01*
X135600439Y-84537167D01*
X135585000Y-84380410D01*
X135585000Y-83767589D01*
X135600439Y-83610832D01*
X135661451Y-83409701D01*
X135707572Y-83323417D01*
X135760531Y-83224337D01*
X135893868Y-83061867D01*
X136056339Y-82928529D01*
X136209102Y-82846876D01*
X136241702Y-82829451D01*
X136442833Y-82768439D01*
X136652000Y-82747838D01*
X136861168Y-82768439D01*
X136861168Y-82768439D01*
G37*
G36*
X108413168Y-82768439D02*
X108614299Y-82829451D01*
X108646899Y-82846876D01*
X108799662Y-82928529D01*
X108962133Y-83061867D01*
X109095471Y-83224338D01*
X109177123Y-83377101D01*
X109194549Y-83409702D01*
X109255561Y-83610833D01*
X109255561Y-83610836D01*
X109270808Y-83765635D01*
X109271000Y-83767590D01*
X109271000Y-84380411D01*
X109255561Y-84537168D01*
X109194549Y-84738299D01*
X109194546Y-84738304D01*
X109095471Y-84923662D01*
X108962133Y-85086133D01*
X108799661Y-85219471D01*
X108665025Y-85291435D01*
X108614298Y-85318549D01*
X108413167Y-85379561D01*
X108204000Y-85400162D01*
X107994832Y-85379561D01*
X107793701Y-85318549D01*
X107761101Y-85301124D01*
X107608338Y-85219471D01*
X107445867Y-85086133D01*
X107312529Y-84923661D01*
X107236615Y-84781635D01*
X107213451Y-84738298D01*
X107152439Y-84537167D01*
X107137000Y-84380410D01*
X107137000Y-83767589D01*
X107152439Y-83610832D01*
X107213451Y-83409701D01*
X107259572Y-83323417D01*
X107312531Y-83224337D01*
X107445868Y-83061867D01*
X107608339Y-82928529D01*
X107761102Y-82846876D01*
X107793702Y-82829451D01*
X107994833Y-82768439D01*
X108204000Y-82747838D01*
X108413168Y-82768439D01*
X108413168Y-82768439D01*
G37*
G36*
X113493168Y-82768439D02*
X113694299Y-82829451D01*
X113726899Y-82846876D01*
X113879662Y-82928529D01*
X114042133Y-83061867D01*
X114175471Y-83224338D01*
X114257123Y-83377101D01*
X114274549Y-83409702D01*
X114335561Y-83610833D01*
X114335561Y-83610836D01*
X114350808Y-83765635D01*
X114351000Y-83767590D01*
X114351000Y-84380411D01*
X114335561Y-84537168D01*
X114274549Y-84738299D01*
X114274546Y-84738304D01*
X114175471Y-84923662D01*
X114042133Y-85086133D01*
X113879661Y-85219471D01*
X113745025Y-85291435D01*
X113694298Y-85318549D01*
X113493167Y-85379561D01*
X113284000Y-85400162D01*
X113074832Y-85379561D01*
X112873701Y-85318549D01*
X112841101Y-85301124D01*
X112688338Y-85219471D01*
X112525867Y-85086133D01*
X112392529Y-84923661D01*
X112316615Y-84781635D01*
X112293451Y-84738298D01*
X112232439Y-84537167D01*
X112217000Y-84380410D01*
X112217000Y-83767589D01*
X112232439Y-83610832D01*
X112293451Y-83409701D01*
X112339572Y-83323417D01*
X112392531Y-83224337D01*
X112525868Y-83061867D01*
X112688339Y-82928529D01*
X112841102Y-82846876D01*
X112873702Y-82829451D01*
X113074833Y-82768439D01*
X113284000Y-82747838D01*
X113493168Y-82768439D01*
X113493168Y-82768439D01*
G37*
G36*
X198513000Y-85157000D02*
X196711000Y-85157000D01*
X196711000Y-84155000D01*
X198513000Y-84155000D01*
X198513000Y-85157000D01*
X198513000Y-85157000D01*
G37*
G36*
X104816000Y-84625000D02*
X103464000Y-84625000D01*
X103464000Y-83523000D01*
X104816000Y-83523000D01*
X104816000Y-84625000D01*
X104816000Y-84625000D01*
G37*
G36*
X206329734Y-81951232D02*
X206539202Y-82037996D01*
X206727723Y-82163962D01*
X206888038Y-82324277D01*
X207014004Y-82512798D01*
X207100768Y-82722266D01*
X207145000Y-82944635D01*
X207145000Y-83171365D01*
X207100768Y-83393734D01*
X207014004Y-83603202D01*
X206888038Y-83791723D01*
X206727723Y-83952038D01*
X206539202Y-84078004D01*
X206329734Y-84164768D01*
X206107365Y-84209000D01*
X205880635Y-84209000D01*
X205658266Y-84164768D01*
X205448798Y-84078004D01*
X205260277Y-83952038D01*
X205099962Y-83791723D01*
X204973996Y-83603202D01*
X204887232Y-83393734D01*
X204843000Y-83171365D01*
X204843000Y-82944635D01*
X204887232Y-82722266D01*
X204973996Y-82512798D01*
X205099962Y-82324277D01*
X205260277Y-82163962D01*
X205448798Y-82037996D01*
X205658266Y-81951232D01*
X205880635Y-81907000D01*
X206107365Y-81907000D01*
X206329734Y-81951232D01*
X206329734Y-81951232D01*
G37*
G36*
X201249734Y-81951232D02*
X201459202Y-82037996D01*
X201647723Y-82163962D01*
X201808038Y-82324277D01*
X201934004Y-82512798D01*
X202020768Y-82722266D01*
X202065000Y-82944635D01*
X202065000Y-83171365D01*
X202020768Y-83393734D01*
X201934004Y-83603202D01*
X201808038Y-83791723D01*
X201647723Y-83952038D01*
X201459202Y-84078004D01*
X201249734Y-84164768D01*
X201027365Y-84209000D01*
X200800635Y-84209000D01*
X200578266Y-84164768D01*
X200368798Y-84078004D01*
X200180277Y-83952038D01*
X200019962Y-83791723D01*
X199893996Y-83603202D01*
X199807232Y-83393734D01*
X199763000Y-83171365D01*
X199763000Y-82944635D01*
X199807232Y-82722266D01*
X199893996Y-82512798D01*
X200019962Y-82324277D01*
X200180277Y-82163962D01*
X200368798Y-82037996D01*
X200578266Y-81951232D01*
X200800635Y-81907000D01*
X201027365Y-81907000D01*
X201249734Y-81951232D01*
X201249734Y-81951232D01*
G37*
G36*
X192105000Y-83251000D02*
X191303000Y-83251000D01*
X191303000Y-81849000D01*
X192105000Y-81849000D01*
X192105000Y-83251000D01*
X192105000Y-83251000D01*
G37*
G36*
X190205000Y-83251000D02*
X189403000Y-83251000D01*
X189403000Y-81849000D01*
X190205000Y-81849000D01*
X190205000Y-83251000D01*
X190205000Y-83251000D01*
G37*
G36*
X185987000Y-83226000D02*
X184885000Y-83226000D01*
X184885000Y-81874000D01*
X185987000Y-81874000D01*
X185987000Y-83226000D01*
X185987000Y-83226000D01*
G37*
G36*
X187987000Y-83226000D02*
X186885000Y-83226000D01*
X186885000Y-81874000D01*
X187987000Y-81874000D01*
X187987000Y-83226000D01*
X187987000Y-83226000D01*
G37*
G36*
X195639000Y-83226000D02*
X194537000Y-83226000D01*
X194537000Y-81874000D01*
X195639000Y-81874000D01*
X195639000Y-83226000D01*
X195639000Y-83226000D01*
G37*
G36*
X197639000Y-83226000D02*
X196537000Y-83226000D01*
X196537000Y-81874000D01*
X197639000Y-81874000D01*
X197639000Y-83226000D01*
X197639000Y-83226000D01*
G37*
G36*
X104816000Y-82625000D02*
X103464000Y-82625000D01*
X103464000Y-81523000D01*
X104816000Y-81523000D01*
X104816000Y-82625000D01*
X104816000Y-82625000D01*
G37*
M02*
