M48
;DRILL file {KiCad (5.0.1)-4} date 03/02/2019 13:31:52
;FORMAT={-:-/ absolute / inch / decimal}
FMAT,2
INCH,TZ
T1C0.0157
T2C0.0300
T3C0.0315
T4C0.0374
T5C0.0394
T6C0.0433
T7C0.0450
T8C0.0472
T9C0.0512
T10C0.0591
T11C0.0669
T12C0.0827
T13C0.0984
T14C0.1260
%
G90
G05
M72
T1
X3.53Y-5.09
X3.56Y-3.6
X3.61Y-3.75
X3.62Y-3.52
X3.63Y-3.68
X3.63Y-3.94
X3.64Y-4.87
X3.65Y-4.08
X3.71Y-3.23
X3.71Y-4.16
X3.72Y-4.34
X3.77Y-3.99
X3.83Y-4.45
X3.85Y-3.74
X3.8963Y-3.4815
X3.93Y-3.91
X3.96Y-3.74
X3.97Y-4.69
X3.98Y-3.23
X3.99Y-3.59
X4.05Y-4.04
X4.06Y-4.17
X4.14Y-4.83
X4.16Y-3.87
X4.16Y-4.51
X4.17Y-3.37
X4.18Y-3.22
X4.19Y-3.6
X4.26Y-4.04
X4.35Y-5.17
X4.36Y-4.56
X4.36Y-4.7
X4.44Y-4.12
X4.51Y-4.
X4.53Y-3.75
X4.54Y-3.5
X4.56Y-4.51
X4.58Y-4.83
X4.6Y-3.4
X4.61Y-3.8
X4.67Y-4.
X4.74Y-4.69
X4.74Y-4.96
X4.79Y-5.16
X4.81Y-3.4
X4.81Y-3.52
X4.81Y-3.8
X4.86Y-4.
X4.91Y-4.18
X4.96Y-4.62
X5.Y-4.15
X5.01Y-3.8
X5.02Y-4.83
X5.04Y-3.56
X5.06Y-4.15
X5.07Y-3.29
X5.12Y-4.15
X5.12Y-4.43
X5.21Y-3.54
X5.25Y-5.16
X5.31Y-3.8
X5.41Y-4.67
X5.42Y-4.37
X5.51Y-3.8
X5.69Y-5.16
X5.7Y-4.67
X5.76Y-4.37
X5.8091Y-4.1
X5.81Y-3.27
X6.Y-4.33
X6.04Y-4.12
X6.04Y-4.2
X6.13Y-5.16
X6.22Y-4.11
X6.22Y-4.2
X6.23Y-3.34
X6.23Y-3.46
X6.23Y-4.89
X6.25Y-4.33
X6.38Y-4.27
X6.4Y-4.74
X6.41Y-3.64
X6.41Y-3.97
X6.51Y-3.27
X6.51Y-3.44
X6.56Y-3.8
X6.58Y-4.01
X6.58Y-4.37
X6.63Y-3.61
X6.71Y-3.98
X6.72Y-3.6
X6.76Y-4.62
X6.81Y-3.79
X6.82Y-3.58
X6.86Y-3.92
X6.93Y-3.79
X6.93Y-4.5
X6.96Y-4.29
X6.98Y-4.82
X7.Y-3.41
X7.Y-3.68
X7.Y-4.6
X7.02Y-4.08
X7.08Y-4.44
X7.11Y-3.28
X7.13Y-3.58
X7.2Y-4.06
X7.21Y-4.31
X7.25Y-4.44
X7.3Y-3.31
X7.33Y-3.77
X7.37Y-3.91
X7.38Y-4.31
X7.38Y-4.56
X7.38Y-5.14
X7.41Y-3.47
X7.41Y-4.86
X7.42Y-4.69
X7.55Y-4.19
X7.61Y-4.03
X7.63Y-4.55
X7.74Y-4.47
X7.75Y-4.13
X7.77Y-4.33
T2
X3.73Y-3.65
X3.73Y-4.25
X3.83Y-3.65
X3.83Y-4.25
X3.93Y-3.65
X3.93Y-4.25
X4.03Y-3.65
X4.03Y-4.25
X4.13Y-3.65
X4.13Y-4.25
X4.23Y-3.65
X4.23Y-4.25
X4.33Y-3.65
X4.33Y-4.25
X4.43Y-3.65
X4.43Y-4.25
X4.53Y-3.65
X4.53Y-4.25
X4.63Y-3.65
X4.63Y-4.25
X4.73Y-3.65
X4.73Y-4.25
X4.83Y-3.65
X4.83Y-4.25
X4.93Y-3.65
X4.93Y-4.25
X5.03Y-3.65
X5.03Y-4.25
X5.13Y-3.65
X5.13Y-4.25
X5.23Y-3.65
X5.23Y-4.25
X5.33Y-3.65
X5.33Y-4.25
X5.43Y-3.65
X5.43Y-4.25
X5.53Y-3.65
X5.53Y-4.25
X5.63Y-3.65
X5.63Y-4.25
T3
X4.44Y-4.05
T4
X3.71Y-5.07
X3.71Y-5.17
X3.81Y-5.07
X3.81Y-5.17
T5
X3.6386Y-4.3044
X3.6386Y-4.4044
X3.6386Y-4.5044
X3.6386Y-4.6044
X3.6386Y-4.7044
X6.4041Y-3.8094
X6.4041Y-4.5594
X7.1541Y-3.8094
X7.1541Y-4.1844
X7.1561Y-4.5594
T6
X3.1841Y-4.35
X3.1841Y-4.5272
X3.44Y-4.35
X3.44Y-4.5272
X3.1841Y-3.33
X3.1841Y-3.5072
X3.44Y-3.33
X3.44Y-3.5072
X3.1841Y-3.85
X3.1841Y-4.0272
X3.44Y-3.85
X3.44Y-4.0272
T7
X5.18Y-3.31
X5.28Y-3.31
X5.38Y-3.31
X4.26Y-3.31
X4.36Y-3.31
X4.46Y-3.31
T8
X4.26Y-3.88
X4.36Y-3.88
X4.46Y-3.88
X4.56Y-3.88
X4.66Y-3.88
X4.76Y-3.88
X4.86Y-3.88
X4.96Y-3.88
X5.06Y-3.88
X5.16Y-3.88
X5.26Y-3.88
X5.36Y-3.88
X5.46Y-3.88
X5.56Y-3.88
X5.66Y-3.88
X5.76Y-3.88
T9
X5.9988Y-3.407
X5.9988Y-5.0054
X6.798Y-3.407
X7.1976Y-5.0054
X7.5972Y-3.407
X7.5972Y-5.0054
T10
X8.Y-4.49
X8.Y-5.05
X8.01Y-3.37
X8.Y-3.93
T11
X7.9Y-4.39
X7.9Y-4.59
X8.1Y-4.39
X8.1Y-4.59
X7.9Y-4.95
X7.9Y-5.15
X8.1Y-4.95
X8.1Y-5.15
X7.91Y-3.27
X7.91Y-3.47
X8.11Y-3.27
X8.11Y-3.47
X7.9Y-3.83
X7.9Y-4.03
X8.1Y-3.83
X8.1Y-4.03
T12
X3.18Y-3.68
X3.18Y-4.69
X8.Y-3.65
X8.Y-4.77
T13
X4.0435Y-3.88
X4.0435Y-5.1005
X6.9962Y-5.1005
X6.9962Y-3.88
T14
X5.9984Y-3.7416
X6.7977Y-5.0054
X7.5969Y-3.7416
T5
X3.1525Y-5.0081G85X3.1525Y-4.9254
G05
X3.2687Y-4.8172G85X3.3513Y-4.8172
G05
X3.2687Y-5.14G85X3.3513Y-5.14
G05
T0
M30
